SplineFontDB: 3.2
FontName: SieleItalic
FullName: Siele Italic
FamilyName: Siele
Weight: Regular
Copyright: Copyright (c) 2020, g,,,
UComments: "2020-4-8: Created with FontForge (http://fontforge.org)+AAoACgAA-Created for want of an open source 21st century Garamond.+AAoA-Design influences from various open source and historical typefaces.+AAoACgAA-The name Degarde comes from the French +IBwA-de garde+IB0A, apparently meaning +IBwA-on guard+IB0A or +IBwA-on call+IB0A."
FontLog: "Fontlog+AAoACgAA-2022-01-13+AAoA-No fontlog for this italic until now.+AAoA-Copied from italic embedded in the roman.+AAoA-In process of expanding and modifying."
Version: 001.000
ItalicAngle: 0
UnderlinePosition: -100
UnderlineWidth: 45
Ascent: 720
Descent: 280
InvalidEm: 0
LayerCount: 3
Layer: 0 0 "Back" 1
Layer: 1 0 "Fore" 0
Layer: 2 0 "Rough" 1
XUID: [1021 700 1000704272 7087436]
StyleMap: 0x0000
FSType: 0
OS2Version: 0
OS2_WeightWidthSlopeOnly: 0
OS2_UseTypoMetrics: 1
CreationTime: 1586314676
ModificationTime: 1642989048
PfmFamily: 17
TTFWeight: 400
TTFWidth: 5
LineGap: 90
VLineGap: 0
OS2TypoAscent: 0
OS2TypoAOffset: 1
OS2TypoDescent: 0
OS2TypoDOffset: 1
OS2TypoLinegap: 90
OS2WinAscent: 0
OS2WinAOffset: 1
OS2WinDescent: 0
OS2WinDOffset: 1
HheadAscent: 0
HheadAOffset: 1
HheadDescent: 0
HheadDOffset: 1
OS2Vendor: 'PfEd'
Lookup: 1 0 0 "'smcp' Lowercase to Small Capitals in Latin lookup 8" { "'smcp' Lowercase to Small Capitals in Latin lookup 8-1"  } ['smcp' ('DFLT' <'dflt' > 'latn' <'dflt' > ) ]
Lookup: 4 0 1 "'liga' Standard Ligatures in Latin lookup 2" { "'liga' Standard Ligatures in Latin lookup 2-1"  } ['liga' ('DFLT' <'dflt' > 'latn' <'dflt' > ) ]
Lookup: 4 0 0 "'dlig' Discretionary Ligatures lookup 12" { "'dlig' Discretionary Ligatures lookup 12-1"  } ['dlig' ('DFLT' <'dflt' > 'grek' <'dflt' > 'latn' <'dflt' > ) ]

StartChar: i
Encoding: 105 105 0
GlifName: i
Width: 252
Flags: HMW
LayerCount: 3
Back
SplineSet
41 361 m 1
 41 369 l 1
 152 415 l 1
 162 415 l 1
 162 31 l 1
 234 31 l 1
 234 0 l 1
 24 0 l 1
 24 31 l 1
 92 31 l 1
 92 319 l 1
 41 361 l 1
87 588 m 0
 87 613 107 633 132 633 c 0
 157 633 177 613 177 588 c 0
 177 563 157 543 132 543 c 0
 107 543 87 563 87 588 c 0
EndSplineSet
Fore
SplineSet
132 347 m 3
 117 347 80 324 44 291 c 1
 30 310 l 1
 88 373 150 414 187 414 c 3
 217 414 221 387 205 342 c 2
 117 88 l 2
 113 75 112 64 121 64 c 3
 133 64 172 85 217 140 c 1
 232 121 l 1
 169 35 104 -14 69 -14 c 11
 35 -14 31 25 47 70 c 2
 134 320 l 2
 141 340 140 347 132 347 c 3
160 580 m 0
 160 608 185 631 210 631 c 0
 229 631 244 616 244 596 c 0
 244 568 219 545 194 545 c 0
 175 545 160 560 160 580 c 0
EndSplineSet
Layer: 2
SplineSet
41 361 m 1
 41 369 l 1
 152 415 l 1
 162 415 l 1
 162 32 l 1
 234 32 l 1
 234 0 l 1
 24 0 l 1
 24 32 l 1
 92 32 l 1
 92 319 l 1
 41 361 l 1
87 588 m 0
 87 613 107 633 132 633 c 0
 157 633 177 613 177 588 c 0
 177 563 157 543 132 543 c 0
 107 543 87 563 87 588 c 0
EndSplineSet
Substitution2: "'smcp' Lowercase to Small Capitals in Latin lookup 8-1" i.smcp
EndChar

StartChar: n
Encoding: 110 110 1
GlifName: n
Width: 485
Flags: HMW
LayerCount: 3
Back
SplineSet
249 501 m 1
 250 500 l 1
 249 499 l 1
 248 500 l 1
 249 501 l 1
42 357 m 1
 42 365 l 1
 142 415 l 1
 152 415 l 1
 161 339 l 1
 162 338 l 1
 197 380 257 412 307 412 c 0
 375 412 427 370 427 290 c 2
 427 31 l 1
 492 31 l 1
 492 0 l 1
 304 0 l 1
 304 31 l 1
 357 31 l 1
 357 270 l 2
 357 325 320 360 270 360 c 0
 234 360 192 340 162 305 c 1
 162 31 l 1
 217 31 l 1
 217 0 l 1
 32 0 l 1
 32 31 l 1
 92 31 l 1
 92 320 l 1
 42 357 l 1
EndSplineSet
Fore
SplineSet
347 94 m 2
 344 86 342 79 342 74 c 0
 342 69 345 65 350 65 c 0
 362 65 400 85 445 140 c 1
 460 120 l 1
 397 35 329 -14 295 -14 c 0
 274 -14 265 1 265 21 c 0
 265 36 269 52 275 70 c 2
 350 285 l 2
 355 300 358 314 358 325 c 0
 358 343 351 355 335 355 c 0
 280 355 151 185 120 85 c 2
 98 15 l 1
 60 -3 l 1
 30 -3 l 1
 105 235 l 2
 120 283 125 312 125 330 c 0
 125 343 121 350 114 350 c 0
 100 350 67 332 35 301 c 1
 21 320 l 1
 69 375 128 414 165 414 c 0
 183 414 196 402 196 371 c 0
 196 342 185 296 158 226 c 1
 161 225 l 1
 235 340 305 413 377 413 c 0
 410 413 430 390 430 353 c 0
 430 337 426 318 419 298 c 2
 347 94 l 2
EndSplineSet
Substitution2: "'smcp' Lowercase to Small Capitals in Latin lookup 8-1" n.smcp
EndChar

StartChar: o
Encoding: 111 111 2
GlifName: o
Width: 364
Flags: HMW
AnchorPoint: "Top" 237 500 basechar 0
LayerCount: 3
Back
SplineSet
240 501 m 1
 241 500 l 1
 240 499 l 1
 239 500 l 1
 240 501 l 1
28 200 m 0
 28 318 122 412 240 412 c 0
 358 412 452 318 452 200 c 0
 452 82 358 -12 240 -12 c 0
 122 -12 28 82 28 200 c 0
110 210 m 0
 110 110 168 23 248 23 c 0
 322 23 370 92 370 190 c 0
 370 290 312 378 233 378 c 0
 158 378 110 308 110 210 c 0
EndSplineSet
Fore
SplineSet
25 130 m 0
 25 275 117 413 232 413 c 0
 292 413 339 350 339 270 c 0
 339 125 247 -13 132 -13 c 0
 72 -13 25 50 25 130 c 0
99 150 m 0
 99 70 122 25 157 25 c 0
 212 25 265 135 265 250 c 0
 265 330 242 375 207 375 c 0
 152 375 99 265 99 150 c 0
EndSplineSet
Substitution2: "'smcp' Lowercase to Small Capitals in Latin lookup 8-1" o.smcp
EndChar

StartChar: t
Encoding: 116 116 3
GlifName: t
Width: 280
Flags: HMW
LayerCount: 3
Back
SplineSet
85 80 m 2
 85 357 l 1
 29 357 l 1
 29 377 l 1
 140 470 l 1
 155 470 l 1
 155 400 l 1
 287 400 l 1
 287 357 l 1
 155 357 l 1
 155 105 l 2
 155 64 177 42 209 42 c 0
 237 42 258 53 277 75 c 1
 292 60 l 1
 268 20 224 -14 174 -14 c 0
 118 -14 85 20 85 80 c 2
EndSplineSet
Fore
SplineSet
177 500 m 1
 222 500 l 1
 195 400 l 1
 300 400 l 1
 300 359 l 1
 183 359 l 1
 107 90 l 2
 106 86 105 82 105 78 c 0
 105 67 110 60 120 60 c 0
 140 60 180 85 224 139 c 1
 240 120 l 1
 170 25 110 -13 70 -13 c 0
 47 -13 34 5 34 35 c 0
 34 46 37 62 42 80 c 2
 119 359 l 1
 55 359 l 1
 55 400 l 1
 133 400 l 1
 177 500 l 1
EndSplineSet
Substitution2: "'smcp' Lowercase to Small Capitals in Latin lookup 8-1" t.smcp
EndChar

StartChar: g
Encoding: 103 103 4
GlifName: g
Width: 360
Flags: HMW
LayerCount: 3
Back
SplineSet
101 -120 m 0
 101 -185 139 -237 226 -237 c 0
 316 -237 363 -184 363 -115 c 0
 363 -67 333 -40 288 -40 c 2
 151 -40 l 2
 126 -40 101 -70 101 -120 c 0
128 276 m 0
 128 204 171 157 224 157 c 0
 276 157 314 201 314 263 c 0
 314 335 271 382 218 382 c 0
 166 382 128 338 128 276 c 0
57 269 m 0
 57 350 130 412 221 412 c 0
 256 412 288 403 312 389 c 1
 437 389 l 1
 437 349 l 1
 356 349 l 1
 356 345 l 1
 373 325 385 300 385 270 c 0
 385 189 312 128 221 128 c 2
 156 127 l 1
 124 127 102 106 102 77 c 0
 102 48 124 27 156 27 c 1
 301 27 l 2
 376 27 429 -22 429 -93 c 0
 429 -182 336 -270 221 -270 c 0
 111 -270 35 -206 35 -135 c 0
 35 -90 65 -56 113 -35 c 1
 113 -32 l 1
 69 -15 46 15 46 55 c 0
 46 96 82 132 135 146 c 1
 135 149 l 1
 90 170 57 216 57 269 c 0
EndSplineSet
Fore
SplineSet
41 223 m 0
 41 325 117 413 205 413 c 0
 231 413 253 404 272 388 c 1
 380 388 l 1
 380 349 l 1
 300 349 l 1
 299 348 l 1
 307 333 309 315 309 297 c 0
 309 193 229 108 154 108 c 0
 134 108 112 87 112 62 c 0
 112 28 145 11 205 -23 c 0
 280 -65 320 -100 320 -145 c 0
 320 -215 225 -277 95 -277 c 0
 -20 -277 -98 -230 -98 -175 c 0
 -98 -120 -10 -59 80 -23 c 1
 80 -20 l 1
 65 -6 57 10 57 32 c 0
 57 64 85 95 116 109 c 1
 116 112 l 1
 72 123 41 168 41 223 c 0
109 233 m 0
 109 173 129 137 160 137 c 0
 205 137 241 207 241 287 c 0
 241 347 221 383 190 383 c 0
 145 383 109 313 109 233 c 0
100 -38 m 1
 20 -78 -30 -121 -30 -165 c 0
 -30 -210 30 -242 115 -242 c 0
 200 -242 260 -205 260 -165 c 0
 260 -129 219 -103 142 -61 c 2
 100 -38 l 1
EndSplineSet
Layer: 2
SplineSet
57 269 m 0
 57 350 130 412 221 412 c 0
 253 412 285 404 311 389 c 1
 436 389 l 1
 436 349 l 1
 356 349 l 1
 356 345 l 1
 373 325 385 300 385 270 c 0
 385 189 312 128 221 128 c 2
 156 127 l 2
 124 127 103 105 103 75 c 0
 103 45 124 23 156 23 c 2
 301 23 l 2
 376 23 429 -28 429 -98 c 0
 429 -180 340 -270 221 -270 c 0
 111 -270 35 -206 35 -135 c 0
 35 -98 65 -59 113 -39 c 1
 113 -36 l 1
 69 -19 45 11 45 52 c 0
 45 93 80 131 135 146 c 1
 135 149 l 1
 90 170 57 216 57 269 c 0
128 276 m 0
 128 204 171 157 224 157 c 0
 276 157 314 201 314 263 c 0
 314 335 271 382 218 382 c 0
 166 382 128 338 128 276 c 0
101 -120 m 0
 101 -185 140 -237 228 -237 c 0
 316 -237 363 -182 363 -118 c 0
 363 -73 333 -44 288 -44 c 2
 151 -44 l 2
 126 -44 101 -73 101 -120 c 0
EndSplineSet
Substitution2: "'smcp' Lowercase to Small Capitals in Latin lookup 8-1" g.smcp
EndChar

StartChar: h
Encoding: 104 104 5
GlifName: h
Width: 440
Flags: HMW
LayerCount: 3
Back
SplineSet
39 665 m 1
 39 673 l 1
 150 710 l 1
 160 710 l 1
 160 390 l 1
 157 341 l 1
 160 340 l 1
 195 380 259 412 310 412 c 0
 380 412 430 370 430 290 c 2
 430 31 l 1
 495 31 l 1
 495 0 l 1
 310 0 l 1
 310 31 l 1
 360 31 l 1
 360 270 l 2
 360 325 323 360 270 360 c 0
 233 360 192 342 160 307 c 1
 160 31 l 1
 215 31 l 1
 215 0 l 1
 30 0 l 1
 30 31 l 1
 90 31 l 1
 90 627 l 1
 39 665 l 1
EndSplineSet
Fore
SplineSet
313 352 m 0
 255 352 140 205 108 80 c 2
 91 14 l 1
 55 -3 l 1
 25 -3 l 1
 180 630 l 1
 130 667 l 1
 130 675 l 1
 260 710 l 1
 265 705 l 1
 155 280 l 1
 138 222 l 1
 141 221 l 1
 205 337 285 413 350 413 c 0
 390 413 413 375 413 323 c 0
 413 220 365 107 295 37 c 0
 260 2 220 -13 193 -13 c 0
 169 -13 154 2 154 22 c 0
 154 41 169 56 188 56 c 0
 207 56 215 40 230 40 c 0
 285 40 342 180 342 290 c 0
 342 333 330 352 313 352 c 0
EndSplineSet
Substitution2: "'smcp' Lowercase to Small Capitals in Latin lookup 8-1" h.smcp
EndChar

StartChar: a
Encoding: 97 97 6
GlifName: a
Width: 430
Flags: HMW
AnchorPoint: "Top" 305 500 basechar 0
LayerCount: 3
Back
SplineSet
247 100 m 1
 247 190 l 1
 207 178 l 2
 122 153 102 127 102 93 c 0
 102 62 125 43 152 43 c 0
 180 43 214 58 247 100 c 1
197 412 m 0
 267 412 315 365 315 300 c 2
 315 65 l 2
 315 45 324 37 340 37 c 0
 357 37 371 50 382 70 c 1
 398 55 l 1
 380 15 349 -12 312 -12 c 0
 272 -12 247 15 247 60 c 1
 248 65 l 1
 245 67 l 1
 207 20 164 -10 117 -10 c 0
 71 -10 31 27 31 77 c 0
 31 124 55 161 189 203 c 2
 247 221 l 1
 247 288 l 2
 247 343 212 370 167 370 c 0
 157 370 137 367 127 362 c 1
 122 313 l 1
 47 293 l 1
 47 295 l 2
 47 345 117 412 197 412 c 0
192 501 m 1
 193 500 l 1
 192 499 l 1
 191 500 l 1
 192 501 l 1
EndSplineSet
Fore
SplineSet
283 312 m 0
 283 330 272 342 258 342 c 0
 180 342 70 200 70 95 c 0
 70 77 80 67 93 67 c 0
 153 67 283 227 283 312 c 0
390 415 m 1
 390 410 l 1
 345 285 l 2
 307 180 288 115 288 84 c 0
 288 72 292 66 298 66 c 0
 312 66 350 85 398 143 c 1
 415 125 l 1
 345 35 283 -13 242 -13 c 0
 224 -13 215 0 215 27 c 0
 215 55 223 98 238 144 c 1
 235 145 l 1
 148 25 89 -13 52 -13 c 0
 26 -13 4 5 4 48 c 0
 4 200 184 400 290 400 c 0
 304 400 319 396 331 389 c 1
 332 389 l 1
 370 415 l 1
 390 415 l 1
EndSplineSet
Layer: 2
SplineSet
237 89 m 1
 237 186 l 1
 207 177 l 2
 130 154 110 127 110 93 c 0
 110 64 132 45 157 45 c 0
 184 45 215 64 237 89 c 1
197 412 m 0
 272 412 320 365 320 300 c 2
 320 67 l 2
 320 47 329 38 345 38 c 0
 362 38 376 51 387 70 c 1
 403 55 l 1
 385 15 353 -12 314 -12 c 0
 270 -12 242 15 242 55 c 1
 243 58 l 1
 240 60 l 1
 203 18 163 -10 115 -10 c 0
 65 -10 27 25 27 75 c 0
 27 122 50 161 188 203 c 2
 237 218 l 1
 237 288 l 2
 237 343 210 370 167 370 c 0
 157 370 139 367 129 362 c 1
 125 314 l 1
 37 291 l 1
 37 293 l 2
 37 345 107 412 197 412 c 0
EndSplineSet
Substitution2: "'smcp' Lowercase to Small Capitals in Latin lookup 8-1" a.smcp
EndChar

StartChar: j
Encoding: 106 106 7
GlifName: j
Width: 235
Flags: HMW
LayerCount: 3
Back
SplineSet
0 -270 m 1
 -10 -250 l 1
 65 -205 85 -145 85 -60 c 2
 85 325 l 1
 35 367 l 1
 35 375 l 1
 145 415 l 1
 155 415 l 1
 155 -45 l 2
 155 -150 100 -220 0 -270 c 1
80 588 m 0
 80 613 100 633 125 633 c 0
 150 633 170 613 170 588 c 0
 170 563 150 543 125 543 c 0
 100 543 80 563 80 588 c 0
EndSplineSet
Fore
SplineSet
179 414 m 11
 216 414 209 380 193 320 c 2
 115 35 l 2
 45 -220 -27 -270 -120 -270 c 0
 -135 -270 -156 -267 -175 -260 c 1
 -147 -200 l 1
 -145 -200 l 1
 -127 -212 -100 -222 -80 -222 c 0
 -34 -222 -4 -190 42 -15 c 2
 130 320 l 2
 135 340 134 350 123 350 c 3
 108 350 75 334 35 302 c 1
 22 323 l 1
 85 378 140 414 179 414 c 11
158 580 m 0
 158 608 183 631 208 631 c 0
 227 631 242 616 242 596 c 0
 242 568 217 545 192 545 c 0
 173 545 158 560 158 580 c 0
EndSplineSet
Layer: 2
SplineSet
1 -273 m 1
 -10 -252 l 1
 65 -207 85 -147 85 -62 c 2
 85 325 l 1
 35 367 l 1
 35 375 l 1
 145 415 l 1
 155 415 l 1
 155 -48 l 2
 155 -153 100 -222 1 -273 c 1
80 588 m 0
 80 613 100 633 125 633 c 0
 150 633 170 613 170 588 c 0
 170 563 150 543 125 543 c 0
 100 543 80 563 80 588 c 0
EndSplineSet
Substitution2: "'smcp' Lowercase to Small Capitals in Latin lookup 8-1" j.smcp
Substitution2: "'salt' Stylistic Alternatives in Latin lookup 2-1" j.alt
EndChar

StartChar: periodcentered
Encoding: 183 183 8
GlifName: periodcentered
Width: 470
Flags: HMW
LayerCount: 3
Back
SplineSet
43 220 m 0
 43 249 66 272 95 272 c 0
 124 272 147 249 147 220 c 0
 147 191 124 168 95 168 c 0
 66 168 43 191 43 220 c 0
EndSplineSet
Fore
SplineSet
45 640 m 1
 445 640 l 1
 445 0 l 1
 45 0 l 1
 45 640 l 1
95 590 m 1
 95 50 l 1
 395 50 l 1
 395 590 l 1
 95 590 l 1
EndSplineSet
EndChar

StartChar: period
Encoding: 46 46 9
GlifName: period
Width: 190
Flags: HMW
LayerCount: 3
Back
SplineSet
48 45 m 0
 48 74 71 97 100 97 c 0
 129 97 152 74 152 45 c 0
 152 16 129 -7 100 -7 c 0
 71 -7 48 16 48 45 c 0
EndSplineSet
Fore
SplineSet
23 33 m 0
 23 63 51 89 78 89 c 0
 101 89 117 72 117 49 c 0
 117 19 89 -7 62 -7 c 0
 39 -7 23 10 23 33 c 0
EndSplineSet
EndChar

StartChar: k
Encoding: 107 107 10
GlifName: k
Width: 425
Flags: HMW
LayerCount: 3
Back
SplineSet
440 400 m 1
 440 369 l 1
 390 369 l 1
 240 240 l 1
 430 31 l 1
 470 31 l 1
 470 0 l 1
 295 0 l 1
 295 31 l 1
 340 31 l 1
 170 220 l 1
 324 359 l 1
 327 369 l 1
 275 369 l 1
 275 400 l 1
 440 400 l 1
41 665 m 1
 41 673 l 1
 150 710 l 1
 160 710 l 1
 160 31 l 1
 220 31 l 1
 220 0 l 1
 28 0 l 1
 28 31 l 1
 90 31 l 1
 90 625 l 1
 41 665 l 1
EndSplineSet
Fore
SplineSet
145 200 m 1
 270 225 328 285 328 328 c 0
 328 347 313 362 293 362 c 0
 240 362 146 272 119 152 c 2
 88 15 l 1
 53 -3 l 1
 25 -3 l 1
 168 630 l 1
 118 670 l 1
 118 678 l 1
 246 710 l 1
 251 705 l 1
 159 326 l 1
 146 281 l 1
 148 280 l 1
 205 369 270 414 330 414 c 0
 365 414 392 385 392 350 c 0
 392 285 325 225 220 192 c 1
 220 190 l 1
 255 130 l 2
 294 64 310 45 325 45 c 0
 340 45 362 64 385 109 c 1
 405 95 l 1
 373 25 335 -14 300 -14 c 0
 267 -14 246 15 202 95 c 2
 145 198 l 1
 145 200 l 1
EndSplineSet
Substitution2: "'smcp' Lowercase to Small Capitals in Latin lookup 8-1" k.smcp
EndChar

StartChar: exclam
Encoding: 33 33 11
GlifName: exclam
Width: 205
Flags: HMW
LayerCount: 3
Back
SplineSet
74 650 m 1
 156 650 l 1
 130 180 l 1
 100 180 l 1
 74 650 l 1
69 42 m 0
 69 67 90 88 115 88 c 0
 140 88 161 67 161 42 c 0
 161 17 140 -4 115 -4 c 0
 90 -4 69 17 69 42 c 0
EndSplineSet
Fore
SplineSet
24 32 m 0
 24 63 51 88 79 88 c 0
 100 88 116 72 116 50 c 0
 116 19 89 -6 61 -6 c 0
 40 -6 24 10 24 32 c 0
190 650 m 1
 270 650 l 1
 116 180 l 1
 85 180 l 1
 190 650 l 1
EndSplineSet
EndChar

StartChar: quotedbl
Encoding: 34 34 12
GlifName: quotedbl
Width: 280
Flags: HMW
LayerCount: 3
Back
SplineSet
193 650 m 1
 235 650 l 1
 215 440 l 1
 159 440 l 1
 193 650 l 1
73 650 m 1
 115 650 l 1
 95 440 l 1
 39 440 l 1
 73 650 l 1
47 650 m 1
 115 650 l 1
 95 440 l 1
 65 440 l 1
 47 650 l 1
167 650 m 1
 235 650 l 1
 215 440 l 1
 185 440 l 1
 167 650 l 1
EndSplineSet
Fore
SplineSet
255 650 m 1
 325 650 l 1
 250 440 l 1
 218 440 l 1
 255 650 l 1
135 650 m 1
 205 650 l 1
 130 440 l 1
 98 440 l 1
 135 650 l 1
EndSplineSet
Layer: 2
SplineSet
73 650 m 1
 141 650 l 1
 69 440 l 1
 39 440 l 1
 73 650 l 1
193 650 m 1
 261 650 l 1
 189 440 l 1
 159 440 l 1
 193 650 l 1
EndSplineSet
EndChar

StartChar: numbersign
Encoding: 35 35 13
GlifName: numbersign
Width: 470
Flags: HMW
LayerCount: 3
Back
SplineSet
145 149 m 1
 305 149 l 1
 335 311 l 1
 175 311 l 1
 145 149 l 1
40 311 m 1
 40 355 l 1
 143 355 l 1
 180 560 l 1
 220 560 l 1
 183 355 l 1
 343 355 l 1
 380 560 l 1
 420 560 l 1
 383 355 l 1
 465 355 l 1
 465 311 l 1
 375 311 l 1
 345 149 l 1
 440 149 l 1
 440 105 l 1
 337 105 l 1
 300 -100 l 1
 260 -100 l 1
 297 105 l 1
 137 105 l 1
 100 -100 l 1
 60 -100 l 1
 97 105 l 1
 15 105 l 1
 15 149 l 1
 105 149 l 1
 135 311 l 1
 40 311 l 1
EndSplineSet
Fore
SplineSet
45 640 m 1
 445 640 l 1
 445 0 l 1
 45 0 l 1
 45 640 l 1
95 590 m 1
 95 50 l 1
 395 50 l 1
 395 590 l 1
 95 590 l 1
EndSplineSet
EndChar

StartChar: dollar
Encoding: 36 36 14
GlifName: dollar
Width: 470
Flags: HMW
LayerCount: 3
Back
SplineSet
234 270 m 1
 232 270 l 1
 232 32 l 1
 293 41 323 86 323 135 c 0
 323 192 290 228 234 270 c 1
190 400 m 1
 192 400 l 1
 192 609 l 1
 142 602 110 568 110 523 c 0
 110 473 135 442 190 400 c 1
192 32 m 1
 192 294 l 1
 76 374 40 418 40 493 c 0
 40 564 100 632 192 643 c 1
 192 700 l 1
 232 700 l 1
 232 645 l 1
 283 643 330 628 362 605 c 1
 370 493 l 1
 341 493 l 1
 340 499 l 2
 330 560 294 602 232 610 c 1
 232 376 l 1
 360 288 400 244 400 167 c 0
 400 83 333 10 232 -3 c 1
 232 -60 l 1
 192 -60 l 1
 192 -5 l 1
 142 -4 89 10 51 37 c 1
 33 165 l 1
 62 165 l 1
 65 153 l 2
 83 80 124 38 192 32 c 1
EndSplineSet
Fore
SplineSet
45 640 m 1
 445 640 l 1
 445 0 l 1
 45 0 l 1
 45 640 l 1
95 590 m 1
 95 50 l 1
 395 50 l 1
 395 590 l 1
 95 590 l 1
EndSplineSet
Substitution2: "'tnum' Tabular Numbers in Latin lookup 3-1" dollar.tnum
EndChar

StartChar: percent
Encoding: 37 37 15
GlifName: percent
Width: 470
Flags: HMW
LayerCount: 3
Back
SplineSet
567 645 m 1
 615 645 l 1
 213 -40 l 1
 165 -40 l 1
 567 645 l 1
445 150 m 0
 445 238 512 310 595 310 c 0
 678 310 745 238 745 150 c 0
 745 62 678 -10 595 -10 c 0
 512 -10 445 62 445 150 c 0
504 165 m 0
 504 78 548 24 603 24 c 0
 650 24 686 72 686 135 c 0
 686 222 642 276 587 276 c 0
 540 276 504 228 504 165 c 0
35 455 m 0
 35 543 102 615 185 615 c 0
 268 615 335 543 335 455 c 0
 335 367 268 295 185 295 c 0
 102 295 35 367 35 455 c 0
94 470 m 0
 94 383 138 329 193 329 c 0
 240 329 276 377 276 440 c 0
 276 527 232 581 177 581 c 0
 130 581 94 533 94 470 c 0
EndSplineSet
Fore
SplineSet
45 640 m 1
 445 640 l 1
 445 0 l 1
 45 0 l 1
 45 640 l 1
95 590 m 1
 95 50 l 1
 395 50 l 1
 395 590 l 1
 95 590 l 1
EndSplineSet
EndChar

StartChar: ampersand
Encoding: 38 38 16
GlifName: ampersand
Width: 890
Flags: HMW
LayerCount: 3
Back
SplineSet
450 370 m 1
 635 370 l 1
 635 339 l 1
 575 339 l 1
 542 265 507 200 471 149 c 1
 530 90 577 44 640 44 c 0
 670 44 690 55 710 70 c 1
 720 45 l 1
 690 15 650 -15 605 -15 c 0
 534 -15 500 14 426 91 c 1
 424 91 l 1
 366 25 300 -14 215 -14 c 0
 105 -14 35 64 35 153 c 0
 35 231 83 288 172 341 c 1
 172 344 l 1
 125 390 90 431 90 487 c 0
 90 560 150 630 240 630 c 0
 315 630 370 580 370 510 c 0
 370 445 318 400 257 365 c 1
 257 362 l 1
 446 173 l 1
 448 173 l 1
 472 209 496 255 515 305 c 1
 519 339 l 1
 450 339 l 1
 450 370 l 1
238 382 m 1
 283 412 303 451 303 500 c 0
 303 555 275 597 230 597 c 0
 190 597 155 565 155 513 c 0
 155 467 191 429 238 382 c 1
402 113 m 1
 191 324 l 1
 133 285 105 240 105 185 c 0
 105 105 167 45 245 45 c 0
 312 45 360 67 402 113 c 1
EndSplineSet
Fore
SplineSet
100 273 m 1
 165 325 l 2
 217 367 227 397 227 425 c 0
 227 462 202 485 172 485 c 0
 122 485 88 417 88 355 c 0
 88 327 92 299 100 273 c 1
310 440 m 2
 374 491 395 540 400 570 c 1
 479 586 l 1
 480 585 l 1
 470 545 403 470 325 410 c 2
 110 244 l 1
 158 127 277 42 420 42 c 0
 570 42 655 130 655 240 c 0
 655 320 617 390 555 390 c 0
 513 390 480 362 480 315 c 0
 480 305 482 293 486 285 c 1
 486 283 l 1
 422 245 l 1
 418 254 415 268 415 280 c 0
 415 355 510 437 600 437 c 0
 680 437 770 385 830 385 c 0
 870 385 890 408 890 440 c 0
 890 452 886 470 880 480 c 1
 880 482 l 1
 945 522 l 1
 948 513 950 500 950 490 c 0
 950 415 875 332 795 332 c 0
 730 332 694 365 644 373 c 1
 643 370 l 1
 690 337 710 295 710 258 c 0
 710 123 580 -12 390 -12 c 0
 165 -12 37 170 37 325 c 0
 37 450 130 535 205 535 c 0
 250 535 284 501 284 460 c 0
 284 440 274 419 265 409 c 1
 268 406 l 1
 310 440 l 2
EndSplineSet
Layer: 2
SplineSet
169 346 m 1
 234 385 l 1
 474 145 l 1
 430 85 l 1
 169 346 l 1
EndSplineSet
EndChar

StartChar: quotesingle
Encoding: 39 39 17
GlifName: quotesingle
Width: 160
Flags: HMW
LayerCount: 3
Back
SplineSet
47 650 m 1
 115 650 l 1
 95 440 l 1
 65 440 l 1
 47 650 l 1
EndSplineSet
Fore
SplineSet
135 650 m 1
 205 650 l 1
 130 440 l 1
 98 440 l 1
 135 650 l 1
EndSplineSet
EndChar

StartChar: parenleft
Encoding: 40 40 18
GlifName: parenleft
Width: 280
Flags: HMW
LayerCount: 3
Back
SplineSet
98 240 m 0
 98 65 160 -85 265 -188 c 1
 245 -205 l 1
 117 -105 32 55 32 240 c 0
 32 425 117 585 245 685 c 1
 265 668 l 1
 160 565 98 415 98 240 c 0
EndSplineSet
Fore
SplineSet
85 110 m 0
 85 10 110 -100 180 -189 c 1
 159 -205 l 1
 66 -120 20 0 20 130 c 0
 20 350 155 568 331 685 c 1
 350 666 l 1
 216 565 85 351 85 110 c 0
EndSplineSet
Layer: 2
SplineSet
82 99 m 0
 82 9 98 -89 173 -189 c 1
 152 -205 l 1
 57 -110 19 5 19 120 c 0
 19 355 155 565 340 685 c 1
 359 666 l 1
 225 567 82 340 82 99 c 0
-262 240 m 0
 -299 65 -269 -85 -186 -188 c 1
 -210 -205 l 1
 -317 -105 -367 55 -328 240 c 0
 -289 425 -169 585 -20 685 c 1
 -4 668 l 1
 -131 565 -225 415 -262 240 c 0
EndSplineSet
EndChar

StartChar: parenright
Encoding: 41 41 19
GlifName: parenright
Width: 280
Flags: HMW
LayerCount: 3
Back
SplineSet
182 240 m 0
 182 415 120 565 15 668 c 1
 35 685 l 1
 163 585 248 425 248 240 c 0
 248 55 163 -105 35 -205 c 1
 15 -188 l 1
 120 -85 182 65 182 240 c 0
EndSplineSet
Fore
SplineSet
195 370 m 0
 195 470 170 580 100 669 c 1
 121 685 l 1
 214 600 260 480 260 350 c 0
 260 130 125 -88 -51 -205 c 1
 -70 -186 l 1
 64 -85 195 129 195 370 c 0
EndSplineSet
Layer: 2
SplineSet
182 240 m 0
 216 415 183 565 98 668 c 1
 121 685 l 1
 230 585 284 425 248 240 c 0
 212 55 96 -105 -51 -205 c 1
 -68 -188 l 1
 57 -85 148 65 182 240 c 0
EndSplineSet
EndChar

StartChar: asterisk
Encoding: 42 42 20
GlifName: asterisk
Width: 380
Flags: HMW
LayerCount: 3
Back
SplineSet
223 482 m 1
 275 364 l 1
 230 344 l 1
 177 462 l 1
 81 375 l 1
 48 412 l 1
 144 499 l 1
 31 564 l 1
 57 607 l 1
 168 543 l 1
 195 670 l 1
 244 660 l 1
 217 532 l 1
 346 546 l 1
 352 496 l 1
 223 482 l 1
EndSplineSet
Fore
SplineSet
272 472 m 1
 274 343 l 1
 225 342 l 1
 222 471 l 1
 100 428 l 1
 83 475 l 1
 205 518 l 1
 126 622 l 1
 167 652 l 1
 245 550 l 1
 318 656 l 1
 360 628 l 1
 286 521 l 1
 410 484 l 1
 396 435 l 1
 272 472 l 1
EndSplineSet
Layer: 2
SplineSet
144 504 m 4
 144 527 163 546 186 546 c 4
 209 546 228 527 228 504 c 4
 228 481 209 462 186 462 c 4
 163 462 144 481 144 504 c 4
EndSplineSet
EndChar

StartChar: plus
Encoding: 43 43 21
GlifName: plus
Width: 480
Flags: HMW
LayerCount: 3
Back
SplineSet
217 243 m 1
 217 430 l 1
 263 430 l 1
 263 243 l 1
 450 243 l 1
 450 197 l 1
 263 197 l 1
 263 5 l 1
 217 5 l 1
 217 197 l 1
 30 197 l 1
 30 243 l 1
 217 243 l 1
EndSplineSet
Fore
SplineSet
221 243 m 1
 254 430 l 1
 300 430 l 1
 267 243 l 1
 454 243 l 1
 446 197 l 1
 259 197 l 1
 225 5 l 1
 179 5 l 1
 213 197 l 1
 26 197 l 1
 34 243 l 1
 221 243 l 1
EndSplineSet
Layer: 2
SplineSet
222 243 m 1
 261 430 l 1
 307 430 l 1
 268 243 l 1
 455 243 l 1
 445 197 l 1
 258 197 l 1
 217 5 l 1
 171 5 l 1
 212 197 l 1
 25 197 l 1
 35 243 l 1
 222 243 l 1
EndSplineSet
EndChar

StartChar: comma
Encoding: 44 44 22
GlifName: comma
Width: 190
Flags: HMW
LayerCount: 3
Back
SplineSet
44 28 m 1
 62 105 l 1
 69 105 l 2
 120 105 170 70 170 3 c 0
 170 -62 123 -120 42 -150 c 1
 30 -126 l 1
 78 -107 105 -69 105 -33 c 0
 105 3 80 23 44 28 c 1
EndSplineSet
Fore
SplineSet
25 45 m 1
 25 47 l 1
 93 105 l 1
 95 105 l 1
 122 82 136 50 136 18 c 0
 136 -52 80 -115 -25 -150 c 1
 -35 -125 l 1
 30 -100 58 -55 58 -15 c 0
 58 15 45 32 25 45 c 1
EndSplineSet
EndChar

StartChar: hyphen
Encoding: 45 45 23
GlifName: hyphen
Width: 240
Flags: HMW
LayerCount: 3
Back
SplineSet
20 234 m 1
 215 234 l 1
 215 176 l 1
 20 176 l 1
 20 234 l 1
EndSplineSet
Fore
SplineSet
28 231 m 1
 217 235 l 1
 207 179 l 1
 18 175 l 1
 28 231 l 1
EndSplineSet
EndChar

StartChar: slash
Encoding: 47 47 24
GlifName: slash
Width: 310
Flags: HMW
LayerCount: 3
Back
SplineSet
274 660 m 1
 320 660 l 1
 36 -100 l 1
 -10 -100 l 1
 274 660 l 1
EndSplineSet
Fore
SplineSet
350 660 m 1
 396 660 l 1
 -22 -100 l 1
 -68 -100 l 1
 350 660 l 1
EndSplineSet
EndChar

StartChar: zero
Encoding: 48 48 25
GlifName: zero
Width: 480
Flags: HMW
LayerCount: 3
Back
SplineSet
28 215 m 0
 28 340 130 442 255 442 c 0
 380 442 482 340 482 215 c 0
 482 90 380 -12 255 -12 c 0
 130 -12 28 90 28 215 c 0
84 217 m 0
 84 119 159 39 246 39 c 0
 335 39 378 110 378 215 c 0
 378 320 335 391 245 391 c 0
 156 391 84 316 84 217 c 0
EndSplineSet
Fore
SplineSet
75 185 m 0
 75 100 125 41 195 41 c 0
 290 41 365 160 365 270 c 0
 365 350 317 391 252 391 c 0
 157 391 75 295 75 185 c 0
18 177 m 0
 18 320 130 442 260 442 c 0
 380 442 457 360 457 248 c 0
 457 110 335 -12 200 -12 c 0
 85 -12 18 65 18 177 c 0
EndSplineSet
Layer: 2
SplineSet
88 217 m 0
 74 119 138 39 225 39 c 0
 314 39 367 110 382 215 c 0
 397 320 364 391 274 391 c 0
 185 391 102 316 88 217 c 0
28 215 m 0
 46 340 162 442 287 442 c 0
 412 442 500 340 482 215 c 0
 464 90 348 -12 223 -12 c 0
 98 -12 10 90 28 215 c 0
EndSplineSet
Substitution2: "'dnom' Denominators lookup 15-1" zero.dnom
Substitution2: "'numr' Numerators lookup 14-1" zero.numr
Substitution2: "'lnum' Lining Figures in Latin lookup 4-1" zero.lnum
Substitution2: "'tnum' Tabular Numbers in Latin lookup 3-1" zero.tnum
EndChar

StartChar: one
Encoding: 49 49 26
GlifName: one
Width: 360
Flags: HMW
LayerCount: 3
Back
SplineSet
216 34 m 1
 315 30 l 1
 315 -2 l 1
 180 2 l 1
 45 -2 l 1
 45 30 l 1
 144 34 l 1
 144 396 l 1
 45 400 l 1
 45 432 l 1
 180 428 l 1
 315 432 l 1
 315 400 l 1
 216 396 l 1
 216 34 l 1
EndSplineSet
Fore
SplineSet
262 434 m 1
 272 434 l 1
 189 36 l 1
 290 30 l 1
 290 -2 l 1
 145 2 l 1
 20 -2 l 1
 20 30 l 1
 117 36 l 1
 189 381 l 1
 87 375 l 1
 90 405 l 1
 262 434 l 1
EndSplineSet
Layer: 2
SplineSet
252 432 m 1
 262 432 l 1
 179 35 l 1
 280 30 l 1
 280 -2 l 1
 135 2 l 1
 10 -2 l 1
 10 30 l 1
 107 35 l 1
 180 385 l 1
 75 380 l 1
 80 410 l 1
 252 432 l 1
178 34 m 1
 276 30 l 1
 269 -2 l 1
 135 2 l 1
 -1 -2 l 1
 6 30 l 1
 106 34 l 1
 182 396 l 1
 84 400 l 1
 91 432 l 1
 225 428 l 1
 361 432 l 1
 354 400 l 1
 254 396 l 1
 178 34 l 1
EndSplineSet
Substitution2: "'ss05' Style Set 5 lookup 16-1" one.alt
Substitution2: "'dnom' Denominators lookup 15-1" one.dnom
Substitution2: "'numr' Numerators lookup 14-1" one.numr
Substitution2: "'lnum' Lining Figures in Latin lookup 4-1" one.lnum
Substitution2: "'tnum' Tabular Numbers in Latin lookup 3-1" one.tnum
EndChar

StartChar: two
Encoding: 50 50 27
GlifName: two
Width: 470
Flags: HMW
LayerCount: 3
Back
SplineSet
390 0 m 1
 35 0 l 1
 35 30 l 1
 185 165 235 222 235 307 c 0
 235 355 203 384 163 384 c 0
 127 384 100 363 80 336 c 1
 62 355 l 1
 92 405 140 443 195 443 c 0
 265 443 314 395 314 327 c 0
 314 252 267 191 160 98 c 2
 121 64 l 1
 122 61 l 1
 155 62 l 1
 341 62 l 2
 361 62 371 70 377 97 c 2
 381 115 l 1
 410 115 l 1
 390 0 l 1
EndSplineSet
Fore
SplineSet
365 0 m 1
 25 0 l 1
 25 30 l 1
 192 160 270 225 270 310 c 0
 270 355 245 384 205 384 c 0
 170 384 137 365 115 340 c 1
 100 360 l 1
 130 406 180 443 240 443 c 0
 305 443 350 400 350 335 c 0
 350 255 284 185 165 97 c 2
 120 64 l 1
 121 61 l 1
 160 62 l 1
 315 62 l 2
 345 62 357 75 371 105 c 1
 400 105 l 1
 365 0 l 1
EndSplineSet
Layer: 2
SplineSet
357 0 m 1
 2 0 l 1
 8 30 l 1
 184 165 245 222 262 307 c 0
 271 355 245 384 205 384 c 0
 169 384 137 363 112 336 c 1
 98 355 l 1
 138 405 193 443 248 443 c 0
 318 443 358 395 345 327 c 0
 330 252 271 191 146 98 c 2
 100 64 l 1
 101 61 l 1
 134 62 l 1
 320 62 l 2
 340 62 352 70 363 97 c 2
 370 115 l 1
 399 115 l 1
 357 0 l 1
EndSplineSet
Substitution2: "'ss05' Style Set 5 lookup 16-1" two.alt
Substitution2: "'dnom' Denominators lookup 15-1" two.dnom
Substitution2: "'numr' Numerators lookup 14-1" two.numr
Substitution2: "'lnum' Lining Figures in Latin lookup 4-1" two.lnum
Substitution2: "'tnum' Tabular Numbers in Latin lookup 3-1" two.tnum
EndChar

StartChar: three
Encoding: 51 51 28
GlifName: three
Width: 470
Flags: HMW
LayerCount: 3
Back
SplineSet
30 -185 m 1
 160 -162 252 -87 252 23 c 0
 252 98 204 140 142 140 c 0
 123 140 100 136 80 128 c 1
 70 153 l 1
 85 161 l 2
 175 209 208 258 208 315 c 0
 208 358 177 387 143 387 c 0
 112 387 83 372 62 346 c 1
 45 364 l 1
 73 410 115 442 170 442 c 0
 232 442 280 398 280 338 c 0
 280 278 245 234 195 196 c 1
 195 193 l 1
 270 187 327 128 327 43 c 0
 327 -102 185 -192 35 -210 c 1
 30 -185 l 1
EndSplineSet
Fore
SplineSet
45 640 m 1
 445 640 l 1
 445 0 l 1
 45 0 l 1
 45 640 l 1
95 590 m 1
 95 50 l 1
 395 50 l 1
 395 590 l 1
 95 590 l 1
EndSplineSet
Substitution2: "'ss05' Style Set 5 lookup 16-1" three.alt
Substitution2: "'dnom' Denominators lookup 15-1" three.dnom
Substitution2: "'numr' Numerators lookup 14-1" three.numr
Substitution2: "'lnum' Lining Figures in Latin lookup 4-1" three.lnum
Substitution2: "'tnum' Tabular Numbers in Latin lookup 3-1" three.tnum
EndChar

StartChar: four
Encoding: 52 52 29
GlifName: four
Width: 445
Flags: HMW
LayerCount: 3
Back
SplineSet
275 285 m 1
 284 323 l 1
 283 323 l 1
 53 62 l 1
 53 60 l 1
 425 60 l 1
 410 0 l 1
 -20 0 l 1
 -20 35 l 1
 345 450 l 1
 370 450 l 1
 250 -200 l 1
 185 -200 l 1
 275 285 l 1
EndSplineSet
Fore
SplineSet
275 285 m 1
 284 323 l 1
 283 323 l 1
 53 62 l 1
 53 60 l 1
 233 60 l 1
 275 285 l 1
287 0 m 1
 250 -200 l 1
 185 -200 l 1
 222 0 l 1
 -20 0 l 1
 -20 35 l 1
 345 450 l 1
 370 450 l 1
 298 60 l 1
 425 60 l 1
 410 0 l 1
 287 0 l 1
EndSplineSet
Layer: 2
SplineSet
163 332 m 0
 163 342 172 351 182 351 c 0
 192 351 201 342 201 332 c 0
 201 322 192 313 182 313 c 0
 172 313 163 322 163 332 c 0
259 60 m 1
 307 334 l 1
 306 334 l 1
 52 62 l 1
 52 60 l 1
 259 60 l 1
313 0 m 1
 278 -200 l 1
 213 -200 l 1
 248 0 l 1
 -27 0 l 1
 -21 35 l 1
 367 450 l 1
 392 450 l 1
 324 60 l 1
 403 60 l 2
 421 60 432 65 441 91 c 2
 449 115 l 1
 477 115 l 1
 443 0 l 1
 313 0 l 1
EndSplineSet
Substitution2: "'ss05' Style Set 5 lookup 16-1" four.alt
Substitution2: "'dnom' Denominators lookup 15-1" four.dnom
Substitution2: "'numr' Numerators lookup 14-1" four.numr
Substitution2: "'lnum' Lining Figures in Latin lookup 4-1" four.lnum
Substitution2: "'tnum' Tabular Numbers in Latin lookup 3-1" four.tnum
EndChar

StartChar: five
Encoding: 53 53 30
GlifName: five
Width: 385
Flags: HMW
LayerCount: 3
Back
SplineSet
60 210 m 1
 85 430 l 1
 335 430 l 1
 335 365 l 1
 120 365 l 1
 110 271 l 1
 210 233 294 156 294 35 c 0
 294 -95 187 -193 42 -220 c 1
 37 -194 l 1
 148 -162 220 -90 220 20 c 0
 220 117 155 180 60 210 c 1
EndSplineSet
Fore
SplineSet
70 218 m 1
 126 430 l 1
 370 430 l 1
 360 365 l 1
 150 365 l 1
 135 275 l 1
 220 237 275 170 275 80 c 0
 275 -65 135 -191 -25 -220 c 1
 -25 -194 l 1
 90 -160 200 -55 200 57 c 0
 200 130 160 185 70 218 c 1
EndSplineSet
Layer: 2
SplineSet
82 210 m 1
 154 430 l 1
 404 430 l 1
 390 365 l 1
 175 365 l 1
 145 271 l 1
 237 233 305 156 279 35 c 0
 251 -95 124 -193 -27 -220 c 1
 -27 -194 l 1
 91 -162 179 -90 202 20 c 0
 223 117 171 180 82 210 c 1
EndSplineSet
Substitution2: "'ss05' Style Set 5 lookup 16-1" five.alt
Substitution2: "'dnom' Denominators lookup 15-1" five.dnom
Substitution2: "'numr' Numerators lookup 14-1" five.numr
Substitution2: "'lnum' Lining Figures in Latin lookup 4-1" five.lnum
Substitution2: "'tnum' Tabular Numbers in Latin lookup 3-1" five.tnum
EndChar

StartChar: six
Encoding: 54 54 31
GlifName: six
Width: 470
Flags: HMW
LayerCount: 3
Back
SplineSet
405 660 m 1
 415 636 l 1
 240 553 120 400 120 226 c 0
 120 98 172 23 247 23 c 0
 312 23 352 85 352 165 c 0
 352 255 303 307 235 307 c 0
 217 307 192 302 174 294 c 1
 169 315 l 1
 199 340 237 355 275 355 c 0
 357 355 431 292 431 185 c 0
 431 70 347 -12 235 -12 c 0
 135 -12 41 70 41 205 c 0
 41 415 205 588 405 660 c 1
EndSplineSet
Fore
SplineSet
45 640 m 1
 445 640 l 1
 445 0 l 1
 45 0 l 1
 45 640 l 1
95 590 m 1
 95 50 l 1
 395 50 l 1
 395 590 l 1
 95 590 l 1
EndSplineSet
Substitution2: "'ss05' Style Set 5 lookup 16-1" six.alt
Substitution2: "'dnom' Denominators lookup 15-1" six.dnom
Substitution2: "'numr' Numerators lookup 14-1" six.numr
Substitution2: "'lnum' Lining Figures in Latin lookup 4-1" six.lnum
Substitution2: "'tnum' Tabular Numbers in Latin lookup 3-1" six.tnum
EndChar

StartChar: seven
Encoding: 55 55 32
GlifName: seven
Width: 470
Flags: HMW
LayerCount: 3
Back
SplineSet
400 430 m 1
 400 410 l 1
 115 -225 l 1
 65 -215 l 1
 338 363 l 1
 338 365 l 1
 97 365 l 2
 75 365 64 358 57 324 c 2
 54 310 l 1
 25 310 l 1
 43 430 l 1
 400 430 l 1
EndSplineSet
Fore
SplineSet
45 640 m 1
 445 640 l 1
 445 0 l 1
 45 0 l 1
 45 640 l 1
95 590 m 1
 95 50 l 1
 395 50 l 1
 395 590 l 1
 95 590 l 1
EndSplineSet
Substitution2: "'ss05' Style Set 5 lookup 16-1" seven.alt
Substitution2: "'dnom' Denominators lookup 15-1" seven.dnom
Substitution2: "'numr' Numerators lookup 14-1" seven.numr
Substitution2: "'lnum' Lining Figures in Latin lookup 4-1" seven.lnum
Substitution2: "'tnum' Tabular Numbers in Latin lookup 3-1" seven.tnum
EndChar

StartChar: eight
Encoding: 56 56 33
GlifName: eight
Width: 470
Flags: HMW
LayerCount: 3
Back
SplineSet
243 368 m 1
 291 405 307 450 307 503 c 0
 307 572 273 619 215 619 c 0
 164 619 126 579 126 525 c 0
 126 467 166 429 214 391 c 2
 243 368 l 1
171 328 m 1
 110 378 57 426 57 495 c 0
 57 575 127 653 225 653 c 0
 313 653 378 588 378 515 c 0
 378 442 337 397 265 352 c 1
 265 351 l 1
 336 294 402 244 402 160 c 0
 402 65 324 -13 215 -13 c 0
 116 -13 37 55 37 145 c 0
 37 220 85 277 171 327 c 1
 171 328 l 1
192 311 m 1
 141 275 112 225 112 160 c 0
 112 77 157 22 227 22 c 0
 291 22 330 66 330 130 c 0
 330 186 299 225 222 287 c 2
 192 311 l 1
EndSplineSet
Fore
SplineSet
45 640 m 1
 445 640 l 1
 445 0 l 1
 45 0 l 1
 45 640 l 1
95 590 m 1
 95 50 l 1
 395 50 l 1
 395 590 l 1
 95 590 l 1
EndSplineSet
Substitution2: "'ss05' Style Set 5 lookup 16-1" eight.alt
Substitution2: "'dnom' Denominators lookup 15-1" eight.dnom
Substitution2: "'numr' Numerators lookup 14-1" eight.numr
Substitution2: "'lnum' Lining Figures in Latin lookup 4-1" eight.lnum
Substitution2: "'tnum' Tabular Numbers in Latin lookup 3-1" eight.tnum
EndChar

StartChar: nine
Encoding: 57 57 34
GlifName: nine
Width: 470
Flags: HMW
LayerCount: 3
Back
SplineSet
60 -225 m 1
 50 -200 l 1
 245 -120 344 20 344 195 c 0
 344 330 294 407 219 407 c 0
 155 407 115 350 115 272 c 0
 115 180 163 125 227 125 c 0
 247 125 272 129 290 137 c 1
 295 117 l 1
 263 90 225 77 190 77 c 0
 109 77 36 139 36 245 c 0
 36 358 124 442 232 442 c 0
 335 442 424 360 424 215 c 0
 424 10 285 -155 60 -225 c 1
EndSplineSet
Fore
SplineSet
45 640 m 1
 445 640 l 1
 445 0 l 1
 45 0 l 1
 45 640 l 1
95 590 m 1
 95 50 l 1
 395 50 l 1
 395 590 l 1
 95 590 l 1
EndSplineSet
Substitution2: "'ss05' Style Set 5 lookup 16-1" nine.alt
Substitution2: "'dnom' Denominators lookup 15-1" nine.dnom
Substitution2: "'numr' Numerators lookup 14-1" nine.numr
Substitution2: "'lnum' Lining Figures in Latin lookup 4-1" nine.lnum
Substitution2: "'tnum' Tabular Numbers in Latin lookup 3-1" nine.tnum
EndChar

StartChar: colon
Encoding: 58 58 35
GlifName: colon
Width: 190
Flags: HMW
LayerCount: 3
Back
SplineSet
50 353 m 0
 50 381 72 403 100 403 c 0
 128 403 150 381 150 353 c 0
 150 325 128 303 100 303 c 0
 72 303 50 325 50 353 c 0
50 43 m 0
 50 71 72 93 100 93 c 0
 128 93 150 71 150 43 c 0
 150 15 128 -7 100 -7 c 0
 72 -7 50 15 50 43 c 0
EndSplineSet
Fore
SplineSet
20 33 m 0
 20 62 47 87 73 87 c 0
 95 87 110 71 110 49 c 0
 110 20 83 -5 57 -5 c 0
 35 -5 20 11 20 33 c 0
90 348 m 0
 90 377 117 402 143 402 c 0
 165 402 180 386 180 364 c 0
 180 335 153 310 127 310 c 0
 105 310 90 326 90 348 c 0
EndSplineSet
EndChar

StartChar: semicolon
Encoding: 59 59 36
GlifName: semicolon
Width: 190
Flags: HMW
LayerCount: 3
Back
SplineSet
50 353 m 0
 50 381 72 403 100 403 c 0
 128 403 150 381 150 353 c 0
 150 325 128 303 100 303 c 0
 72 303 50 325 50 353 c 0
39 28 m 1
 57 105 l 1
 65 105 l 2
 116 105 164 70 164 6 c 0
 164 -52 119 -110 39 -140 c 1
 26 -116 l 1
 74 -97 100 -62 100 -25 c 0
 100 7 72 23 39 28 c 1
EndSplineSet
Fore
SplineSet
25 45 m 1
 25 47 l 1
 93 105 l 1
 95 105 l 1
 122 82 136 50 136 18 c 0
 136 -52 80 -115 -25 -150 c 1
 -35 -125 l 1
 30 -100 58 -55 58 -15 c 0
 58 15 45 32 25 45 c 1
95 348 m 0
 95 377 122 402 148 402 c 0
 170 402 185 386 185 364 c 0
 185 335 158 310 132 310 c 0
 110 310 95 326 95 348 c 0
EndSplineSet
EndChar

StartChar: less
Encoding: 60 60 37
GlifName: less
Width: 470
Flags: HMW
LayerCount: 3
Back
SplineSet
445 47 m 1
 445 -5 l 1
 25 205 l 1
 25 235 l 1
 445 445 l 1
 445 393 l 1
 103 222 l 1
 103 218 l 1
 445 47 l 1
EndSplineSet
Fore
SplineSet
45 640 m 1
 445 640 l 1
 445 0 l 1
 45 0 l 1
 45 640 l 1
95 590 m 1
 95 50 l 1
 395 50 l 1
 395 590 l 1
 95 590 l 1
EndSplineSet
EndChar

StartChar: equal
Encoding: 61 61 38
GlifName: equal
Width: 480
Flags: HMW
LayerCount: 3
Back
SplineSet
25 294 m 1
 25 340 l 1
 445 340 l 1
 445 294 l 1
 25 294 l 1
25 100 m 1
 25 146 l 1
 445 146 l 1
 445 100 l 1
 25 100 l 1
EndSplineSet
Fore
SplineSet
37 294 m 1
 45 340 l 1
 465 340 l 1
 457 294 l 1
 37 294 l 1
3 100 m 1
 11 146 l 1
 431 146 l 1
 423 100 l 1
 3 100 l 1
EndSplineSet
EndChar

StartChar: greater
Encoding: 62 62 39
GlifName: greater
Width: 470
Flags: HMW
LayerCount: 3
Back
SplineSet
25 393 m 1
 25 445 l 1
 445 235 l 1
 445 205 l 1
 25 -5 l 1
 25 47 l 1
 367 218 l 1
 367 222 l 1
 25 393 l 1
EndSplineSet
Fore
SplineSet
45 640 m 1
 445 640 l 1
 445 0 l 1
 45 0 l 1
 45 640 l 1
95 590 m 1
 95 50 l 1
 395 50 l 1
 395 590 l 1
 95 590 l 1
EndSplineSet
EndChar

StartChar: question
Encoding: 63 63 40
GlifName: question
Width: 315
Flags: HMW
LayerCount: 3
Back
SplineSet
64 42 m 0
 64 67 85 88 110 88 c 0
 135 88 156 67 156 42 c 0
 156 17 135 -4 110 -4 c 0
 85 -4 64 17 64 42 c 0
257 442 m 0
 257 520 185 553 90 555 c 1
 90 668 l 1
 118 668 l 1
 118 664 l 2
 118 637 131 637 171 617 c 0
 247 580 292 525 292 440 c 0
 292 358 249 301 175 265 c 0
 135 245 125 240 125 210 c 2
 125 180 l 1
 95 180 l 1
 95 325 l 1
 185 328 257 360 257 442 c 0
EndSplineSet
Fore
SplineSet
24 32 m 0
 24 63 51 88 79 88 c 0
 100 88 116 72 116 50 c 0
 116 19 89 -6 61 -6 c 0
 40 -6 24 10 24 32 c 0
175 652 m 0
 260 652 325 596 325 500 c 0
 325 430 295 387 235 337 c 0
 170 282 130 265 119 222 c 2
 108 180 l 1
 78 180 l 1
 95 260 l 2
 107 315 132 336 200 390 c 0
 250 430 285 460 285 517 c 0
 285 565 243 594 185 594 c 0
 162 594 138 589 120 580 c 1
 118 580 l 1
 100 634 l 1
 122 646 152 652 175 652 c 0
EndSplineSet
EndChar

StartChar: at
Encoding: 64 64 41
GlifName: at
Width: 470
Flags: HMW
LayerCount: 3
Back
SplineSet
500 -3 m 0
 425 -3 395 35 395 70 c 0
 395 95 400 125 408 156 c 1
 405 158 l 1
 330 53 285 22 245 22 c 0
 225 22 205 40 205 75 c 0
 205 205 355 395 450 395 c 0
 463 395 479 391 492 384 c 1
 522 405 l 1
 549 405 l 1
 549 400 l 1
 525 325 l 2
 479 182 465 127 465 98 c 0
 465 70 475 42 530 42 c 0
 615 42 705 115 705 240 c 0
 705 382 575 520 397 520 c 0
 222 520 85 380 85 203 c 0
 85 23 225 -120 403 -120 c 0
 500 -120 580 -80 638 -13 c 1
 660 -30 l 1
 595 -110 510 -160 397 -160 c 0
 200 -160 40 0 40 198 c 0
 40 399 201 560 402 560 c 0
 600 560 750 405 750 245 c 0
 750 70 610 -3 500 -3 c 0
445 310 m 0
 445 325 435 335 420 335 c 0
 350 335 258 200 258 115 c 0
 258 100 268 92 278 92 c 0
 333 92 445 225 445 310 c 0
EndSplineSet
Fore
SplineSet
45 640 m 1
 445 640 l 1
 445 0 l 1
 45 0 l 1
 45 640 l 1
95 590 m 1
 95 50 l 1
 395 50 l 1
 395 590 l 1
 95 590 l 1
EndSplineSet
EndChar

StartChar: A
Encoding: 65 65 42
GlifName: A_
Width: 630
Flags: HMW
LayerCount: 3
Back
SplineSet
426 227 m 1
 168 227 l 1
 108 87 l 1
 93 31 l 1
 166 31 l 1
 166 0 l 1
 -9 0 l 1
 -9 31 l 1
 38 31 l 1
 310 660 l 1
 334 660 l 1
 591 31 l 1
 636 31 l 1
 636 0 l 1
 436 0 l 1
 436 31 l 1
 504 31 l 1
 426 227 l 1
411 265 m 1
 303 535 l 1
 299 535 l 1
 184 265 l 1
 411 265 l 1
EndSplineSet
Fore
SplineSet
453 260 m 1
 453 533 l 1
 450 533 l 1
 231 260 l 1
 453 260 l 1
453 222 m 1
 201 222 l 1
 95 90 l 1
 57 32 l 1
 125 32 l 1
 125 0 l 1
 -55 0 l 1
 -55 32 l 1
 -4 32 l 1
 505 661 l 1
 530 661 l 1
 530 32 l 1
 596 32 l 1
 596 0 l 1
 384 0 l 1
 384 32 l 1
 453 32 l 1
 453 222 l 1
EndSplineSet
Layer: 2
SplineSet
178 350 m 0
 178 362 187 371 199 371 c 0
 211 371 220 362 220 350 c 0
 220 338 211 329 199 329 c 0
 187 329 178 338 178 350 c 0
178 351 m 0
 178 362 187 371 198 371 c 0
 209 371 218 362 218 351 c 0
 218 340 209 331 198 331 c 0
 187 331 178 340 178 351 c 0
EndSplineSet
Substitution2: "'salt' Stylistic Alternatives in Latin lookup 2-1" A.alt
Substitution2: "'c2sc' Capitals to Small Capitals in Latin lookup 9-1" a.smcp
EndChar

StartChar: B
Encoding: 66 66 43
GlifName: B_
Width: 540
Flags: HMW
LayerCount: 3
Back
SplineSet
365 347 m 1
 453 330 520 273 520 188 c 0
 520 70 430 0 270 0 c 2
 40 0 l 1
 40 31 l 1
 115 31 l 1
 115 609 l 1
 40 609 l 1
 40 640 l 1
 260 640 l 2
 397 640 480 585 480 490 c 0
 480 425 430 373 365 350 c 1
 365 347 l 1
195 322 m 1
 195 69 l 2
 195 50 206 38 225 38 c 2
 265 38 l 2
 370 38 432 93 432 180 c 0
 432 265 374 322 252 322 c 2
 195 322 l 1
247 604 m 2
 195 604 l 1
 195 358 l 1
 265 358 l 2
 340 358 396 406 396 483 c 0
 396 560 352 604 247 604 c 2
EndSplineSet
Fore
SplineSet
210 0 m 2
 -30 0 l 1
 -30 32 l 1
 50 32 l 1
 167 608 l 1
 89 608 l 1
 89 640 l 1
 307 640 l 2
 442 640 509 590 509 505 c 0
 509 420 432 364 362 346 c 1
 362 343 l 1
 439 325 488 270 488 205 c 0
 488 80 385 0 210 0 c 2
205 38 m 2
 340 38 400 110 400 198 c 0
 400 270 350 324 245 324 c 2
 189 324 l 1
 139 75 l 2
 134 50 145 38 165 38 c 2
 205 38 l 2
197 360 m 1
 260 360 l 2
 372 360 425 425 425 500 c 0
 425 560 387 604 297 604 c 2
 246 604 l 1
 197 360 l 1
EndSplineSet
Substitution2: "'c2sc' Capitals to Small Capitals in Latin lookup 9-1" b.smcp
EndChar

StartChar: C
Encoding: 67 67 44
GlifName: C_
Width: 605
Flags: HMW
LayerCount: 3
Back
SplineSet
585 138 m 2
 605 185 l 1
 635 185 l 1
 584 30 l 1
 528 2 452 -14 385 -14 c 0
 178 -14 35 125 35 320 c 0
 35 515 198 654 385 654 c 0
 455 654 532 637 588 607 c 1
 610 460 l 1
 580 460 l 1
 573 490 l 2
 566 520 552 548 535 565 c 0
 505 595 452 618 377 618 c 0
 240 618 130 505 130 335 c 0
 130 152 235 25 390 25 c 0
 505 25 557 72 585 138 c 2
EndSplineSet
Fore
SplineSet
420 615 m 0
 255 615 122 450 122 260 c 0
 122 115 205 26 335 26 c 0
 430 26 478 70 504 148 c 2
 513 175 l 1
 543 175 l 1
 510 32 l 1
 465 2 390 -14 322 -14 c 0
 155 -14 30 90 30 253 c 0
 30 470 215 654 435 654 c 0
 495 654 575 635 622 607 c 1
 598 470 l 1
 568 470 l 1
 570 500 l 2
 576 585 520 615 420 615 c 0
EndSplineSet
Substitution2: "'c2sc' Capitals to Small Capitals in Latin lookup 9-1" c.smcp
EndChar

StartChar: D
Encoding: 68 68 45
GlifName: D_
Width: 680
Flags: HMW
LayerCount: 3
Back
SplineSet
315 642 m 2
 520 642 689 530 689 332 c 0
 689 140 542 0 325 0 c 2
 40 0 l 1
 40 31 l 1
 115 31 l 1
 115 609 l 1
 40 609 l 1
 40 640 l 1
 315 642 l 2
305 605 m 2
 195 605 l 1
 195 80 l 2
 195 52 210 38 240 38 c 2
 322 38 l 2
 490 38 597 150 597 320 c 4
 597 505 477 605 305 605 c 2
EndSplineSet
Fore
SplineSet
295 603 m 2
 252 603 l 1
 140 79 l 2
 134 52 143 39 175 39 c 2
 250 39 l 2
 445 39 585 170 585 355 c 0
 585 520 465 603 295 603 c 2
310 640 m 2
 525 640 675 542 675 362 c 0
 675 150 475 0 253 0 c 2
 -18 0 l 1
 -18 32 l 1
 50 32 l 1
 174 608 l 1
 94 608 l 1
 94 640 l 1
 310 640 l 2
EndSplineSet
Substitution2: "'c2sc' Capitals to Small Capitals in Latin lookup 9-1" d.smcp
EndChar

StartChar: E
Encoding: 69 69 46
GlifName: E_
Width: 540
Flags: HMW
LayerCount: 3
Back
SplineSet
390 604 m 2
 195 604 l 1
 195 355 l 1
 395 355 l 1
 395 423 l 1
 425 423 l 1
 425 338 l 1
 425 243 l 1
 395 243 l 1
 395 318 l 1
 195 318 l 1
 195 68 l 2
 195 48 205 38 225 38 c 2
 380 38 l 2
 440 38 468 62 492 147 c 2
 500 175 l 1
 530 175 l 1
 495 0 l 1
 33 0 l 1
 33 31 l 1
 115 31 l 1
 115 609 l 1
 40 609 l 1
 40 640 l 1
 490 640 l 1
 495 490 l 1
 466 490 l 1
 462 524 l 2
 454 590 432 604 390 604 c 2
EndSplineSet
Fore
SplineSet
74 608 m 1
 74 640 l 1
 529 640 l 1
 504 490 l 1
 475 490 l 1
 479 545 l 2
 482 587 466 604 426 604 c 2
 243 604 l 1
 197 360 l 1
 386 360 l 1
 397 425 l 1
 428 425 l 1
 400 245 l 1
 369 245 l 1
 381 323 l 1
 190 323 l 1
 141 65 l 2
 138 47 145 38 164 38 c 2
 325 38 l 2
 395 38 427 60 462 120 c 2
 485 160 l 1
 516 160 l 1
 440 0 l 1
 -19 0 l 1
 -19 32 l 1
 55 32 l 1
 165 608 l 1
 74 608 l 1
EndSplineSet
Substitution2: "'c2sc' Capitals to Small Capitals in Latin lookup 9-1" e.smcp
EndChar

StartChar: F
Encoding: 70 70 47
GlifName: F_
Width: 495
Flags: HMW
LayerCount: 3
Back
SplineSet
195 305 m 1
 195 31 l 1
 285 31 l 1
 285 0 l 1
 42 0 l 1
 42 31 l 1
 115 31 l 1
 115 609 l 1
 35 609 l 1
 35 640 l 1
 485 640 l 1
 495 480 l 1
 465 480 l 1
 457 527 l 2
 447 585 422 604 379 604 c 2
 195 604 l 1
 195 342 l 1
 400 342 l 1
 400 420 l 1
 430 420 l 1
 430 325 l 1
 430 220 l 1
 400 220 l 1
 400 305 l 1
 195 305 l 1
EndSplineSet
Fore
SplineSet
130 32 m 1
 224 32 l 1
 224 0 l 1
 -25 0 l 1
 -25 32 l 1
 50 32 l 1
 170 608 l 1
 84 608 l 1
 84 640 l 1
 545 640 l 1
 525 480 l 1
 495 480 l 1
 495 525 l 2
 495 585 480 604 435 604 c 2
 249 604 l 1
 196 345 l 1
 402 345 l 1
 412 410 l 1
 443 410 l 1
 417 225 l 1
 386 225 l 1
 397 308 l 1
 188 308 l 1
 130 32 l 1
EndSplineSet
Substitution2: "'c2sc' Capitals to Small Capitals in Latin lookup 9-1" f.smcp
EndChar

StartChar: G
Encoding: 71 71 48
GlifName: G_
Width: 645
Flags: HMW
LayerCount: 3
Back
SplineSet
528 52 m 1
 528 244 l 1
 435 244 l 1
 435 275 l 1
 664 275 l 1
 664 244 l 1
 605 244 l 1
 604 25 l 1
 530 0 452 -14 385 -14 c 0
 178 -14 35 125 35 320 c 0
 35 510 190 654 388 654 c 0
 462 654 537 635 592 605 c 1
 600 465 l 1
 570 465 l 1
 565 500 l 2
 561 526 551 551 534 568 c 0
 504 598 452 618 385 618 c 0
 230 618 126 500 126 330 c 0
 126 160 231 24 393 24 c 0
 437 24 489 31 528 52 c 1
EndSplineSet
Fore
SplineSet
430 616 m 0
 265 616 125 475 125 278 c 0
 125 127 210 24 340 24 c 0
 410 24 460 50 470 100 c 2
 498 244 l 1
 400 244 l 1
 400 276 l 1
 635 276 l 1
 635 244 l 1
 575 244 l 1
 537 45 l 1
 475 5 400 -14 325 -14 c 0
 163 -14 35 100 35 270 c 0
 35 495 235 654 445 654 c 0
 515 654 588 634 635 602 c 1
 612 472 l 1
 582 472 l 1
 583 495 l 2
 585 530 577 559 557 579 c 0
 535 601 485 616 430 616 c 0
EndSplineSet
Substitution2: "'c2sc' Capitals to Small Capitals in Latin lookup 9-1" g.smcp
EndChar

StartChar: H
Encoding: 72 72 49
GlifName: H_
Width: 732
Flags: HMW
LayerCount: 3
Back
SplineSet
40 609 m 1
 40 640 l 1
 270 640 l 1
 270 609 l 1
 195 609 l 1
 195 352 l 1
 575 352 l 1
 575 609 l 1
 500 609 l 1
 500 640 l 1
 730 640 l 1
 730 609 l 1
 655 609 l 1
 655 31 l 1
 730 31 l 1
 730 0 l 1
 500 0 l 1
 500 31 l 1
 575 31 l 1
 575 312 l 1
 195 312 l 1
 195 31 l 1
 270 31 l 1
 270 0 l 1
 40 0 l 1
 40 31 l 1
 115 31 l 1
 115 609 l 1
 40 609 l 1
EndSplineSet
Fore
SplineSet
97 608 m 1
 97 640 l 1
 335 640 l 1
 335 608 l 1
 260 608 l 1
 202 353 l 1
 572 353 l 1
 630 608 l 1
 547 608 l 1
 547 640 l 1
 781 640 l 1
 781 608 l 1
 710 608 l 1
 580 32 l 1
 663 32 l 1
 663 0 l 1
 424 0 l 1
 424 32 l 1
 500 32 l 1
 563 313 l 1
 193 313 l 1
 130 32 l 1
 213 32 l 1
 213 0 l 1
 -23 0 l 1
 -23 32 l 1
 50 32 l 1
 180 608 l 1
 97 608 l 1
EndSplineSet
Substitution2: "'c2sc' Capitals to Small Capitals in Latin lookup 9-1" h.smcp
EndChar

StartChar: I
Encoding: 73 73 50
GlifName: I_
Width: 278
Flags: HMW
LayerCount: 3
Back
SplineSet
38 609 m 1
 38 640 l 1
 272 640 l 1
 272 609 l 1
 195 609 l 1
 195 31 l 1
 272 31 l 1
 272 0 l 1
 38 0 l 1
 38 31 l 1
 115 31 l 1
 115 609 l 1
 38 609 l 1
EndSplineSet
Fore
SplineSet
93 608 m 5
 93 640 l 5
 330 640 l 5
 330 608 l 5
 255 608 l 5
 130 32 l 1
 212 32 l 1
 212 0 l 1
 -24 0 l 1
 -24 32 l 1
 50 32 l 1
 175 608 l 5
 93 608 l 5
EndSplineSet
Substitution2: "'c2sc' Capitals to Small Capitals in Latin lookup 9-1" i.smcp
EndChar

StartChar: J
Encoding: 74 74 51
GlifName: J_
Width: 275
Flags: HMW
LayerCount: 3
Back
SplineSet
190 15 m 2
 190 -130 95 -240 -29 -240 c 0
 -60 -240 -90 -232 -110 -219 c 1
 -72 -154 l 1
 -70 -154 l 1
 -47 -173 -13 -185 17 -185 c 0
 85 -185 110 -140 110 -30 c 2
 110 609 l 1
 20 609 l 1
 20 640 l 1
 265 640 l 1
 265 609 l 1
 190 609 l 1
 190 15 l 2
EndSplineSet
Fore
SplineSet
49 -30 m 2
 170 608 l 1
 79 608 l 1
 79 640 l 1
 321 640 l 1
 321 608 l 1
 250 608 l 1
 135 5 l 2
 107 -140 -5 -240 -123 -240 c 0
 -152 -240 -185 -231 -206 -218 c 1
 -161 -153 l 1
 -159 -153 l 1
 -139 -171 -104 -185 -74 -185 c 0
 -10 -185 28 -140 49 -30 c 2
EndSplineSet
Substitution2: "'c2sc' Capitals to Small Capitals in Latin lookup 9-1" j.smcp
EndChar

StartChar: K
Encoding: 75 75 52
GlifName: K_
Width: 630
Flags: HMW
LayerCount: 3
Back
SplineSet
40 609 m 1
 40 640 l 1
 270 640 l 1
 270 609 l 1
 195 609 l 1
 195 31 l 1
 265 31 l 1
 265 0 l 1
 40 0 l 1
 40 31 l 1
 115 31 l 1
 115 609 l 1
 40 609 l 1
590 640 m 1
 590 610 l 1
 540 610 l 1
 289 366 l 1
 592 31 l 1
 640 31 l 1
 640 0 l 1
 425 0 l 1
 425 31 l 1
 487 31 l 1
 210 340 l 1
 457 584 l 1
 473 610 l 1
 415 610 l 1
 415 640 l 1
 590 640 l 1
EndSplineSet
Fore
SplineSet
650 640 m 1
 650 609 l 1
 594 609 l 1
 292 372 l 1
 490 105 l 2
 530 52 560 30 595 30 c 2
 607 30 l 1
 607 -2 l 1
 552 -2 l 2
 497 -2 454 22 415 75 c 2
 210 355 l 1
 487 574 l 1
 518 609 l 1
 463 609 l 1
 463 640 l 1
 650 640 l 1
79 608 m 1
 79 640 l 1
 319 640 l 1
 319 608 l 1
 245 608 l 1
 140 32 l 1
 226 32 l 1
 226 0 l 1
 -13 0 l 1
 -13 32 l 1
 60 32 l 1
 165 608 l 1
 79 608 l 1
EndSplineSet
Substitution2: "'c2sc' Capitals to Small Capitals in Latin lookup 9-1" k.smcp
EndChar

StartChar: L
Encoding: 76 76 53
GlifName: L_
Width: 532
Flags: HMW
LayerCount: 3
Back
SplineSet
115 31 m 1
 115 609 l 1
 40 609 l 1
 40 640 l 1
 280 640 l 1
 280 609 l 1
 195 609 l 1
 195 74 l 2
 195 51 208 39 230 39 c 2
 380 39 l 2
 440 39 473 68 510 155 c 2
 525 190 l 1
 555 190 l 1
 495 0 l 1
 38 0 l 1
 38 31 l 1
 115 31 l 1
EndSplineSet
Fore
SplineSet
82 608 m 1
 82 640 l 1
 336 640 l 1
 336 608 l 1
 240 608 l 1
 140 69 l 2
 136 50 147 39 165 39 c 2
 300 39 l 2
 395 39 437 73 488 140 c 2
 512 172 l 1
 545 172 l 1
 435 0 l 1
 -18 0 l 1
 -18 32 l 1
 55 32 l 1
 161 608 l 1
 82 608 l 1
EndSplineSet
Layer: 2
SplineSet
82 608 m 1
 82 640 l 1
 336 640 l 1
 336 608 l 1
 240 608 l 1
 140 69 l 2
 136 50 147 39 165 39 c 2
 305 39 l 2
 380 39 429 60 478 125 c 2
 502 157 l 1
 535 157 l 1
 435 0 l 1
 -18 0 l 1
 -18 32 l 1
 55 32 l 1
 161 608 l 1
 82 608 l 1
EndSplineSet
Substitution2: "'c2sc' Capitals to Small Capitals in Latin lookup 9-1" l.smcp
EndChar

StartChar: M
Encoding: 77 77 54
GlifName: M_
Width: 885
Flags: HMW
LayerCount: 3
Back
SplineSet
670 640 m 1
 820 640 l 1
 820 610 l 1
 795 610 l 2
 762 610 751 597 751 575 c 2
 751 573 l 1
 765 31 l 1
 840 31 l 1
 840 0 l 1
 610 0 l 1
 610 31 l 1
 685 31 l 1
 672 533 l 1
 669 533 l 1
 421 -10 l 1
 399 -10 l 1
 175 527 l 1
 171 527 l 1
 145 31 l 1
 223 31 l 1
 223 0 l 1
 25 0 l 1
 25 31 l 1
 100 31 l 1
 130 590 l 1
 120 605 105 610 75 610 c 2
 55 610 l 1
 55 640 l 1
 216 640 l 1
 430 115 l 1
 435 115 l 1
 670 640 l 1
EndSplineSet
Fore
SplineSet
745 640 m 1
 897 640 l 1
 897 608 l 1
 855 608 l 2
 830 608 818 599 815 575 c 2
 749 32 l 1
 826 32 l 1
 826 0 l 1
 594 0 l 1
 594 32 l 1
 670 32 l 1
 732 533 l 1
 729 533 l 1
 366 -10 l 1
 344 -10 l 1
 251 518 l 1
 248 518 l 1
 70 32 l 1
 149 32 l 1
 149 0 l 1
 -51 0 l 1
 -51 32 l 1
 25 32 l 1
 220 565 l 2
 231 595 220 608 195 608 c 2
 143 608 l 1
 143 640 l 1
 312 640 l 1
 400 118 l 1
 403 118 l 1
 745 640 l 1
EndSplineSet
Substitution2: "'c2sc' Capitals to Small Capitals in Latin lookup 9-1" m.smcp
EndChar

StartChar: N
Encoding: 78 78 55
GlifName: N_
Width: 720
Flags: HMW
LayerCount: 3
Back
SplineSet
22 611 m 1
 22 640 l 1
 184 640 l 1
 604 141 l 1
 607 142 l 1
 607 609 l 1
 525 609 l 1
 525 640 l 1
 729 640 l 1
 729 609 l 1
 652 609 l 1
 652 -15 l 1
 622 -15 l 1
 165 528 l 1
 162 527 l 1
 162 31 l 1
 242 31 l 1
 242 0 l 1
 39 0 l 1
 39 31 l 1
 117 31 l 1
 117 573 l 1
 92 600 72 611 37 611 c 2
 22 611 l 1
EndSplineSet
Fore
SplineSet
157 560 m 2
 127 600 107 610 65 610 c 2
 54 610 l 1
 54 640 l 1
 213 640 l 1
 552 147 l 1
 555 147 l 1
 650 608 l 1
 564 608 l 1
 564 640 l 1
 773 640 l 1
 773 608 l 1
 695 608 l 1
 587 96 l 1
 646 7 l 1
 646 0 l 1
 550 0 l 1
 215 486 l 1
 213 486 l 1
 105 32 l 1
 186 32 l 1
 186 0 l 1
 -21 0 l 1
 -21 32 l 1
 60 32 l 1
 180 529 l 1
 157 560 l 2
EndSplineSet
Substitution2: "'c2sc' Capitals to Small Capitals in Latin lookup 9-1" n.smcp
EndChar

StartChar: O
Encoding: 79 79 56
GlifName: O_
Width: 680
Flags: HMW
LayerCount: 3
Back
SplineSet
35 320 m 0
 35 507 183 654 370 654 c 0
 557 654 705 507 705 320 c 0
 705 133 557 -14 370 -14 c 0
 183 -14 35 133 35 320 c 0
129 335 m 0
 129 153 236 23 380 23 c 0
 515 23 611 143 611 305 c 0
 611 487 504 618 360 618 c 0
 225 618 129 497 129 335 c 0
EndSplineSet
Fore
SplineSet
30 245 m 0
 30 445 205 654 410 654 c 0
 565 654 660 545 660 395 c 0
 660 195 485 -14 280 -14 c 0
 125 -14 30 95 30 245 c 0
123 265 m 0
 123 115 195 24 298 24 c 0
 448 24 567 195 567 375 c 0
 567 525 495 617 392 617 c 0
 242 617 123 445 123 265 c 0
EndSplineSet
Substitution2: "'c2sc' Capitals to Small Capitals in Latin lookup 9-1" o.smcp
EndChar

StartChar: P
Encoding: 80 80 57
GlifName: P_
Width: 495
Flags: HMW
LayerCount: 3
Back
SplineSet
220 605 m 2
 200 605 190 595 190 575 c 2
 190 31 l 1
 280 31 l 1
 280 0 l 1
 35 0 l 1
 35 31 l 1
 110 31 l 1
 110 609 l 1
 33 609 l 1
 33 640 l 1
 255 640 l 2
 402 640 500 572 500 455 c 0
 500 320 380 248 245 248 c 0
 240 248 231 249 225 250 c 1
 225 282 l 1
 250 282 l 2
 345 282 410 340 410 440 c 0
 410 547 350 605 245 605 c 2
 220 605 l 2
EndSplineSet
Fore
SplineSet
298 606 m 0
 260 606 245 597 240 570 c 2
 132 32 l 1
 211 32 l 1
 211 0 l 1
 -21 0 l 1
 -21 32 l 1
 52 32 l 1
 168 608 l 1
 84 608 l 1
 84 640 l 1
 310 640 l 2
 445 640 530 575 530 475 c 0
 530 355 410 263 259 263 c 0
 252 263 241 264 235 265 c 1
 235 295 l 1
 250 295 l 2
 365 295 440 375 440 465 c 0
 440 550 385 606 298 606 c 0
EndSplineSet
Substitution2: "'c2sc' Capitals to Small Capitals in Latin lookup 9-1" p.smcp
EndChar

StartChar: Q
Encoding: 81 81 58
GlifName: Q_
Width: 680
Flags: HMW
LayerCount: 3
Back
SplineSet
129 335 m 0
 129 153 236 23 380 23 c 0
 515 23 611 143 611 305 c 0
 611 487 504 618 360 618 c 0
 225 618 129 497 129 335 c 0
35 320 m 0
 35 507 183 654 370 654 c 0
 557 654 705 507 705 320 c 0
 705 176 615 46 475 4 c 1
 475 0 l 1
 580 -35 645 -130 785 -130 c 0
 817 -130 860 -125 890 -110 c 1
 895 -130 l 1
 860 -160 795 -182 745 -182 c 0
 560 -182 456 -21 335 -12 c 0
 193 -1 35 120 35 320 c 0
EndSplineSet
Fore
SplineSet
30 235 m 0
 30 445 210 654 415 654 c 0
 570 654 660 550 660 405 c 0
 660 244 555 82 410 20 c 1
 410 17 l 1
 610 -28 825 -175 1045 -175 c 0
 1125 -175 1210 -160 1272 -125 c 1
 1285 -144 l 1
 1210 -205 1105 -240 1000 -240 c 0
 725 -240 455 -12 265 -12 c 0
 120 -12 30 90 30 235 c 0
123 255 m 0
 123 107 190 24 291 24 c 0
 443 24 567 200 567 385 c 0
 567 533 500 617 399 617 c 0
 247 617 123 440 123 255 c 0
EndSplineSet
Substitution2: "'ss03' Style Set 3 lookup 20-1" Q.alt
Substitution2: "'ss10' Style Set 10 lookup 18-1" Q.alt2
Substitution2: "'c2sc' Capitals to Small Capitals in Latin lookup 9-1" q.smcp
Substitution2: "'salt' Stylistic Alternatives in Latin lookup 2-1" Q.alt
EndChar

StartChar: R
Encoding: 82 82 59
GlifName: R_
Width: 600
Flags: HMW
LayerCount: 3
Back
SplineSet
195 284 m 1
 195 31 l 1
 270 31 l 1
 270 0 l 1
 43 0 l 1
 43 31 l 1
 115 31 l 1
 115 609 l 1
 40 609 l 1
 40 640 l 1
 252 640 l 2
 400 640 487 575 487 470 c 0
 487 390 435 334 361 303 c 1
 361 300 l 1
 440 182 l 2
 531 46 580 30 640 30 c 2
 650 30 l 1
 650 10 l 1
 633 -2 605 -10 580 -10 c 0
 510 -10 445 21 351 177 c 2
 287 283 l 1
 195 284 l 1
220 605 m 2
 205 605 195 594 195 578 c 2
 195 322 l 1
 207 320 230 318 242 318 c 0
 348 318 404 375 404 464 c 0
 404 551 348 605 245 605 c 2
 220 605 l 2
EndSplineSet
Fore
SplineSet
305 606 m 0
 267 606 254 600 248 573 c 2
 195 327 l 1
 212 324 231 323 245 323 c 0
 362 323 434 385 434 480 c 0
 434 553 387 606 305 606 c 0
349 301 m 1
 349 300 l 1
 400 187 l 2
 471 30 540 -20 619 -30 c 1
 612 -60 l 1
 490 -70 405 -25 317 180 c 2
 271 287 l 1
 186 287 l 1
 131 32 l 1
 214 32 l 1
 214 0 l 1
 -21 0 l 1
 -21 32 l 1
 50 32 l 1
 175 608 l 1
 89 608 l 1
 89 640 l 1
 310 640 l 2
 445 640 520 575 520 487 c 0
 520 395 445 327 349 301 c 1
EndSplineSet
Substitution2: "'c2sc' Capitals to Small Capitals in Latin lookup 9-1" r.smcp
EndChar

StartChar: S
Encoding: 83 83 60
GlifName: S_
Width: 440
Flags: HMW
LayerCount: 3
Back
SplineSet
240 21 m 0
 320 21 359 70 359 125 c 0
 359 193 317 233 215 305 c 0
 109 380 69 427 69 500 c 0
 69 580 148 656 259 656 c 0
 317 656 368 640 405 615 c 1
 415 475 l 1
 385 475 l 1
 380 514 l 2
 372 574 325 621 250 621 c 0
 188 621 143 582 143 535 c 0
 143 475 180 440 275 373 c 0
 398 286 443 240 443 160 c 0
 443 65 354 -16 230 -16 c 0
 175 -16 114 -3 72 25 c 1
 50 185 l 1
 80 185 l 1
 90 140 l 2
 108 60 160 21 240 21 c 0
EndSplineSet
Fore
SplineSet
180 21 m 0
 255 21 296 75 296 130 c 0
 296 194 261 237 196 310 c 0
 131 383 103 430 103 500 c 0
 103 585 183 656 294 656 c 0
 355 656 405 637 444 604 c 1
 423 490 l 1
 394 490 l 1
 395 502 l 2
 401 577 355 620 280 620 c 0
 218 620 179 577 179 525 c 0
 179 467 211 427 268 364 c 0
 341 284 375 230 375 157 c 0
 375 62 289 -16 165 -16 c 0
 100 -16 39 5 0 39 c 1
 25 175 l 1
 55 175 l 1
 53 150 l 2
 47 69 95 21 180 21 c 0
EndSplineSet
Substitution2: "'c2sc' Capitals to Small Capitals in Latin lookup 9-1" s.smcp
EndChar

StartChar: T
Encoding: 84 84 61
GlifName: T_
Width: 570
Flags: HMW
LayerCount: 3
Back
SplineSet
25 675 m 1
 55 675 l 1
 60 640 l 1
 560 640 l 1
 570 675 l 1
 600 675 l 1
 590 475 l 1
 560 475 l 1
 560 518 l 2
 560 585 540 602 510 602 c 2
 340 602 l 1
 340 31 l 1
 420 31 l 1
 420 0 l 1
 180 0 l 1
 180 31 l 1
 260 31 l 1
 260 602 l 1
 108 602 l 2
 70 602 47 580 32 512 c 2
 25 480 l 1
 -5 480 l 1
 25 675 l 1
EndSplineSet
Fore
SplineSet
42 540 m 2
 26 492 l 1
 -5 492 l 1
 45 690 l 1
 75 690 l 1
 75 640 l 1
 605 640 l 1
 621 690 l 1
 652 690 l 1
 616 480 l 1
 585 480 l 1
 590 520 l 2
 597 585 590 602 555 602 c 2
 375 602 l 25
 240 32 l 1
 331 32 l 1
 331 0 l 1
 75 0 l 1
 75 32 l 1
 160 32 l 1
 295 602 l 25
 100 602 l 2
 70 602 59 590 42 540 c 2
EndSplineSet
Substitution2: "'c2sc' Capitals to Small Capitals in Latin lookup 9-1" t.smcp
EndChar

StartChar: U
Encoding: 85 85 62
GlifName: U_
Width: 650
Flags: HMW
LayerCount: 3
Back
SplineSet
35 609 m 1
 35 640 l 1
 260 640 l 1
 260 609 l 1
 185 609 l 1
 185 240 l 2
 185 102 255 32 385 32 c 0
 515 32 590 110 590 245 c 2
 590 609 l 1
 514 609 l 1
 514 640 l 1
 705 640 l 1
 705 609 l 1
 635 609 l 1
 635 255 l 2
 635 85 540 -15 365 -15 c 0
 205 -15 105 80 105 235 c 2
 105 609 l 1
 35 609 l 1
EndSplineSet
Fore
SplineSet
116 241 m 2
 89 105 150 32 270 32 c 0
 400 32 491 115 520 245 c 2
 600 608 l 1
 514 608 l 1
 514 640 l 1
 723 640 l 1
 723 608 l 1
 645 608 l 1
 566 250 l 2
 526 68 400 -15 240 -15 c 0
 90 -15 5 85 35 236 c 2
 110 608 l 1
 29 608 l 1
 29 640 l 1
 264 640 l 1
 264 608 l 1
 190 608 l 1
 116 241 l 2
EndSplineSet
Substitution2: "'c2sc' Capitals to Small Capitals in Latin lookup 9-1" u.smcp
EndChar

StartChar: V
Encoding: 86 86 63
GlifName: V_
Width: 525
Flags: HMW
LayerCount: 3
Back
SplineSet
57.5712890625 609 m 1
 253.571289062 112 l 1
 258.571289062 112 l 1
 444.571289062 550 l 1
 458.571289062 609 l 1
 388.571289062 609 l 1
 388.571289062 640 l 1
 563.571289062 640 l 1
 563.571289062 609 l 1
 516.571289062 609 l 1
 244.571289062 -20 l 1
 222.571289062 -20 l 1
 -31.4287109375 609 l 1
 -76.4287109375 609 l 1
 -76.4287109375 640 l 1
 123.571289062 640 l 1
 123.571289062 609 l 1
 57.5712890625 609 l 1
EndSplineSet
Fore
SplineSet
180 608 m 1
 167 119 l 1
 170 119 l 1
 506 551 l 1
 539 608 l 1
 472 608 l 1
 472 640 l 1
 655 640 l 1
 655 608 l 1
 603 608 l 1
 109 -20 l 1
 87 -20 l 1
 102 608 l 1
 39 608 l 1
 39 640 l 1
 248 640 l 1
 248 608 l 1
 180 608 l 1
EndSplineSet
Substitution2: "'c2sc' Capitals to Small Capitals in Latin lookup 9-1" v.smcp
EndChar

StartChar: W
Encoding: 87 87 64
GlifName: W_
Width: 875
Flags: HMW
LayerCount: 3
Back
SplineSet
420 609 m 1
 488 448 l 1
 491 448 l 1
 540 561 l 1
 553 609 l 1
 420 609 l 1
660 640 m 1
 660 609 l 1
 608 609 l 1
 510 397 l 1
 633 106 l 1
 637 106 l 1
 829 550 l 1
 845 609 l 1
 780 609 l 1
 780 640 l 1
 945 640 l 1
 945 609 l 1
 903 609 l 1
 626 -20 l 1
 604 -20 l 1
 467 302 l 1
 463 302 l 1
 316 -20 l 1
 294 -20 l 1
 35 609 l 1
 -5 609 l 1
 -5 640 l 1
 185 640 l 1
 185 609 l 1
 122 609 l 1
 325 108 l 1
 330 108 l 1
 443 357 l 1
 335 609 l 1
 285 609 l 1
 285 640 l 1
 660 640 l 1
EndSplineSet
Fore
SplineSet
550 608 m 1
 544 131 l 1
 547 131 l 1
 841 542 l 1
 877 608 l 1
 810 608 l 1
 810 640 l 1
 992 640 l 1
 992 608 l 1
 939 608 l 1
 487 -20 l 1
 465 -20 l 1
 471 473 l 1
 468 473 l 1
 113 -20 l 1
 91 -20 l 1
 97 608 l 1
 34 608 l 1
 34 640 l 1
 248 640 l 1
 248 608 l 1
 175 608 l 1
 170 130 l 1
 173 130 l 1
 472 545 l 1
 472 608 l 1
 401 608 l 1
 401 640 l 1
 619 640 l 1
 619 608 l 1
 550 608 l 1
EndSplineSet
Layer: 2
SplineSet
420 608 m 1
 489 446 l 1
 492 446 l 1
 541 561 l 1
 554 608 l 1
 420 608 l 1
660 640 m 1
 660 608 l 1
 609 608 l 1
 511 395 l 1
 634 104 l 1
 829 550 l 1
 845 608 l 1
 780 608 l 1
 780 640 l 1
 945 640 l 1
 945 608 l 1
 900 608 l 1
 626 -20 l 1
 604 -20 l 1
 467 302 l 1
 464 302 l 1
 316 -20 l 1
 294 -20 l 1
 35 608 l 1
 -5 608 l 1
 -5 640 l 1
 185 640 l 1
 185 608 l 1
 122 608 l 1
 326 104 l 1
 329 104 l 1
 443 357 l 1
 335 608 l 1
 285 608 l 1
 285 640 l 1
 660 640 l 1
EndSplineSet
Substitution2: "'ss02' Style Set 2 lookup 20-1" v.alt
Substitution2: "'salt' Stylistic Alternatives in Latin lookup 2-1" v.alt
Substitution2: "'c2sc' Capitals to Small Capitals in Latin lookup 9-1" w.smcp
EndChar

StartChar: X
Encoding: 88 88 65
GlifName: X_
Width: 670
Flags: HMW
LayerCount: 3
Back
SplineSet
365 349 m 1
 614 31 l 1
 665 31 l 1
 665 0 l 1
 443 0 l 1
 443 31 l 1
 508 31 l 1
 312 285 l 1
 309 285 l 1
 133 73 l 1
 111 31 l 1
 183 31 l 1
 183 0 l 1
 -12 0 l 1
 -12 31 l 1
 41 31 l 1
 283 320 l 1
 56 609 l 1
 5 609 l 1
 5 640 l 1
 227 640 l 1
 227 609 l 1
 160 609 l 1
 338 384 l 1
 341 384 l 1
 494 568 l 1
 515 609 l 1
 443 609 l 1
 443 640 l 1
 636 640 l 1
 636 609 l 1
 585 609 l 1
 365 349 l 1
EndSplineSet
Fore
SplineSet
89 608 m 1
 89 640 l 1
 314 640 l 1
 314 608 l 1
 245 608 l 1
 381 376 l 1
 382 376 l 1
 577 561 l 1
 614 608 l 1
 549 608 l 1
 549 640 l 1
 740 640 l 1
 740 608 l 1
 684 608 l 1
 402 341 l 1
 584 32 l 1
 649 32 l 1
 649 0 l 1
 417 0 l 1
 417 32 l 1
 489 32 l 1
 338 290 l 1
 337 290 l 1
 113 79 l 1
 74 32 l 1
 141 32 l 1
 141 0 l 1
 -50 0 l 1
 -50 32 l 1
 6 32 l 1
 317 326 l 1
 151 608 l 1
 89 608 l 1
EndSplineSet
Substitution2: "'c2sc' Capitals to Small Capitals in Latin lookup 9-1" x.smcp
EndChar

StartChar: Y
Encoding: 89 89 66
GlifName: Y_
Width: 495
Flags: HMW
LayerCount: 3
Back
SplineSet
136 609 m 1
 305 332 l 1
 309 332 l 1
 458 560 l 1
 478 609 l 1
 410 609 l 1
 410 640 l 1
 585 640 l 1
 585 609 l 1
 540 609 l 1
 325 285 l 1
 325 31 l 1
 400 31 l 1
 400 0 l 1
 170 0 l 1
 170 31 l 1
 245 31 l 1
 245 275 l 1
 40 609 l 1
 -5 609 l 1
 -5 640 l 1
 195 640 l 1
 195 609 l 1
 136 609 l 1
EndSplineSet
Fore
SplineSet
147 608 m 1
 262 325 l 1
 265 325 l 1
 465 555 l 1
 500 608 l 1
 434 608 l 1
 434 640 l 1
 611 640 l 1
 611 608 l 1
 565 608 l 1
 275 275 l 1
 225 32 l 1
 301 32 l 1
 301 0 l 1
 69 0 l 1
 69 32 l 1
 145 32 l 1
 195 275 l 1
 60 608 l 1
 7 608 l 1
 7 640 l 1
 211 640 l 1
 211 608 l 1
 147 608 l 1
EndSplineSet
Layer: 2
SplineSet
312 329 m 0
 312 341 321 350 333 350 c 0
 345 350 354 341 354 329 c 0
 354 317 345 308 333 308 c 0
 321 308 312 317 312 329 c 0
312 330 m 0
 312 341 321 350 332 350 c 0
 343 350 352 341 352 330 c 0
 352 319 343 310 332 310 c 0
 321 310 312 319 312 330 c 0
EndSplineSet
Substitution2: "'c2sc' Capitals to Small Capitals in Latin lookup 9-1" y.smcp
EndChar

StartChar: Z
Encoding: 90 90 67
GlifName: Z_
Width: 600
Flags: HMW
LayerCount: 3
Back
SplineSet
78 670 m 1
 108 670 l 1
 113 640 l 1
 575 640 l 1
 575 610 l 1
 145 40 l 1
 145 38 l 1
 468 38 l 2
 518 38 546 55 570 140 c 2
 580 175 l 1
 610 175 l 1
 575 0 l 1
 35 0 l 1
 35 30 l 1
 465 602 l 1
 465 604 l 1
 175 604 l 2
 130 604 107 585 89 515 c 2
 79 475 l 1
 50 475 l 1
 78 670 l 1
EndSplineSet
Fore
SplineSet
123 640 m 1
 615 640 l 1
 615 610 l 1
 100 41 l 1
 100 39 l 1
 390 39 l 2
 465 39 488 58 515 140 c 2
 520 155 l 1
 550 155 l 1
 515 0 l 1
 -15 0 l 1
 -15 30 l 1
 498 601 l 1
 498 603 l 1
 230 603 l 2
 170 603 149 586 129 517 c 2
 124 500 l 1
 95 500 l 1
 123 640 l 1
EndSplineSet
Substitution2: "'c2sc' Capitals to Small Capitals in Latin lookup 9-1" z.smcp
EndChar

StartChar: bracketleft
Encoding: 91 91 68
GlifName: bracketleft
Width: 290
Flags: HMW
LayerCount: 3
Back
SplineSet
125 640 m 1
 125 -160 l 1
 265 -160 l 1
 265 -195 l 1
 65 -195 l 1
 65 675 l 1
 265 675 l 1
 265 640 l 1
 125 640 l 1
EndSplineSet
Fore
SplineSet
40 -160 m 1
 182 -160 l 1
 175 -195 l 1
 -30 -195 l 1
 155 675 l 1
 357 675 l 1
 350 640 l 1
 210 640 l 1
 40 -160 l 1
EndSplineSet
Layer: 2
SplineSet
210 640 m 1
 40 -160 l 1
 180 -160 l 1
 173 -195 l 1
 -27 -195 l 1
 157 675 l 1
 357 675 l 1
 350 640 l 1
 210 640 l 1
EndSplineSet
EndChar

StartChar: backslash
Encoding: 92 92 69
GlifName: backslash
Width: 310
Flags: HMW
LayerCount: 3
Back
SplineSet
-10 660 m 1
 36 660 l 1
 320 -100 l 1
 274 -100 l 1
 -10 660 l 1
EndSplineSet
Fore
SplineSet
66 660 m 1
 112 660 l 1
 262 -100 l 1
 216 -100 l 1
 66 660 l 1
EndSplineSet
EndChar

StartChar: bracketright
Encoding: 93 93 70
GlifName: bracketright
Width: 290
Flags: HMW
LayerCount: 3
Back
SplineSet
165 640 m 1
 25 640 l 1
 25 675 l 1
 225 675 l 1
 225 -195 l 1
 25 -195 l 1
 25 -160 l 1
 165 -160 l 1
 165 640 l 1
EndSplineSet
Fore
SplineSet
247 640 m 1
 105 640 l 1
 112 675 l 1
 317 675 l 1
 132 -195 l 1
 -70 -195 l 1
 -63 -160 l 1
 77 -160 l 1
 247 640 l 1
EndSplineSet
Layer: 2
SplineSet
109 629 m 1
 117 675 l 1
 537 675 l 1
 529 629 l 1
 109 629 l 1
250 640 m 1
 110 640 l 1
 117 675 l 1
 317 675 l 1
 133 -195 l 1
 -67 -195 l 1
 -60 -160 l 1
 80 -160 l 1
 250 640 l 1
EndSplineSet
EndChar

StartChar: asciicircum
Encoding: 94 94 71
GlifName: asciicircum
Width: 350
Flags: HMW
LayerCount: 3
Back
SplineSet
300 345 m 1
 177 590 l 1
 173 590 l 1
 50 345 l 1
 0 345 l 1
 160 665 l 1
 190 665 l 1
 350 345 l 1
 300 345 l 1
EndSplineSet
Fore
SplineSet
321 345 m 1
 241 590 l 1
 237 590 l 1
 71 345 l 1
 21 345 l 1
 237 665 l 1
 267 665 l 1
 371 345 l 1
 321 345 l 1
EndSplineSet
EndChar

StartChar: underscore
Encoding: 95 95 72
GlifName: underscore
Width: 480
Flags: HMW
LayerCount: 3
Back
SplineSet
20 -40 m 1
 460 -40 l 1
 460 -75 l 1
 20 -75 l 1
 20 -40 l 1
EndSplineSet
Fore
SplineSet
-25 -40 m 1
 415 -40 l 1
 410 -75 l 1
 -30 -75 l 1
 -25 -40 l 1
EndSplineSet
EndChar

StartChar: grave
Encoding: 96 96 73
GlifName: grave
Width: 255
Flags: HMW
AnchorPoint: "Top" 195 500 mark 0
LayerCount: 3
Back
SplineSet
110 670 m 1
 200 490 l 1
 178 477 l 1
 45 642 l 1
 45 647 l 1
 110 670 l 1
EndSplineSet
Fore
SplineSet
163 670 m 1
 225 488 l 1
 202 477 l 1
 100 645 l 1
 100 650 l 1
 163 670 l 1
EndSplineSet
Layer: 2
SplineSet
152 670 m 1
 204 490 l 1
 179 477 l 1
 81 642 l 1
 83 647 l 1
 152 670 l 1
EndSplineSet
EndChar

StartChar: b
Encoding: 98 98 74
GlifName: b
Width: 410
Flags: HMW
LayerCount: 3
Back
SplineSet
150 73 m 1
 172 45 210 28 250 28 c 0
 325 28 384 82 384 185 c 0
 384 295 316 356 247 356 c 0
 210 356 173 343 150 326 c 1
 150 73 l 1
80 25 m 1
 80 625 l 1
 28 665 l 1
 28 673 l 1
 140 710 l 1
 150 710 l 1
 150 390 l 1
 148 353 l 1
 150 352 l 1
 180 382 227 412 280 412 c 0
 365 412 455 339 455 220 c 0
 455 85 350 -12 230 -12 c 0
 188 -12 125 0 80 25 c 1
EndSplineSet
Fore
SplineSet
105 80 m 0
 105 48 123 30 147 30 c 0
 185 30 221 64 258 117 c 0
 296 172 325 244 325 297 c 0
 325 332 315 355 295 355 c 0
 225 355 105 170 105 80 c 0
138 246 m 1
 198 350 273 415 330 415 c 0
 365 415 397 380 397 320 c 0
 397 165 240 -14 115 -14 c 0
 70 -14 37 15 37 57 c 0
 37 64 38 73 40 80 c 2
 167 629 l 1
 117 669 l 1
 117 677 l 1
 247 710 l 1
 252 705 l 1
 160 330 l 1
 135 247 l 1
 138 246 l 1
EndSplineSet
Substitution2: "'smcp' Lowercase to Small Capitals in Latin lookup 8-1" b.smcp
EndChar

StartChar: c
Encoding: 99 99 75
GlifName: c
Width: 275
Flags: HMW
LayerCount: 3
Back
SplineSet
322 318 m 1
 297 345 262 368 222 368 c 0
 157 368 106 317 106 215 c 0
 106 108 169 50 247 50 c 0
 292 50 331 67 358 103 c 1
 374 89 l 1
 342 28 285 -12 212 -12 c 0
 112 -12 32 67 32 185 c 0
 32 310 137 412 247 412 c 0
 290 412 339 398 369 375 c 1
 324 318 l 1
 322 318 l 1
EndSplineSet
Fore
SplineSet
275 347 m 1
 262 360 244 370 225 370 c 0
 157 370 82 242 82 125 c 0
 82 75 102 50 131 50 c 0
 160 50 195 75 225 130 c 1
 242 115 l 1
 200 25 146 -13 94 -13 c 0
 50 -13 15 26 15 90 c 0
 15 245 132 413 245 413 c 0
 265 413 287 407 302 397 c 1
 277 347 l 1
 275 347 l 1
EndSplineSet
Layer: 2
SplineSet
325 315 m 1
 297 344 260 367 220 367 c 0
 157 367 106 317 106 215 c 0
 106 108 169 50 247 50 c 0
 292 50 331 67 358 103 c 1
 374 89 l 1
 342 28 285 -12 212 -12 c 0
 112 -12 32 67 32 185 c 0
 32 310 137 412 247 412 c 0
 290 412 339 398 371 373 c 1
 327 315 l 1
 325 315 l 1
-125 314 m 1
 -152 343 -189 367 -229 368 c 0
 -292 369 -344 320 -346 218 c 0
 -348 111 -286 51 -208 50 c 0
 -163 49 -124 65 -96 101 c 1
 -80 87 l 1
 -113 27 -171 -12 -244 -11 c 0
 -344 -9 -422 71 -420 189 c 0
 -418 314 -311 414 -201 412 c 0
 -158 411 -110 397 -78 371 c 1
 -123 314 l 1
 -125 314 l 1
EndSplineSet
Substitution2: "'smcp' Lowercase to Small Capitals in Latin lookup 8-1" c.smcp
EndChar

StartChar: d
Encoding: 100 100 76
GlifName: d
Width: 440
Flags: HMW
LayerCount: 3
Back
SplineSet
337 325 m 1
 315 352 277 370 234 370 c 0
 162 370 103 315 103 215 c 0
 103 105 166 46 239 46 c 0
 277 46 312 58 337 80 c 1
 337 325 l 1
277 664 m 1
 277 672 l 1
 397 710 l 1
 407 710 l 1
 407 50 l 1
 477 60 l 1
 477 30 l 1
 352 -10 l 1
 337 -10 l 1
 342 55 l 1
 337 55 l 1
 305 17 256 -12 204 -12 c 0
 112 -12 32 68 32 180 c 0
 32 312 140 409 250 409 c 0
 282 409 312 402 337 393 c 1
 339 395 l 1
 337 435 l 1
 337 627 l 1
 277 664 l 1
EndSplineSet
Fore
SplineSet
340 251 m 2
 318 170 305 105 305 79 c 0
 305 69 310 63 318 63 c 0
 332 63 375 80 418 125 c 1
 432 105 l 1
 367 30 300 -13 261 -13 c 0
 243 -13 231 0 231 27 c 0
 231 52 240 101 256 146 c 1
 253 147 l 1
 187 42 116 -13 66 -13 c 0
 32 -13 7 14 7 60 c 0
 7 220 153 406 278 406 c 0
 289 406 307 402 317 396 c 1
 318 397 l 1
 330 445 l 1
 378 626 l 1
 320 664 l 1
 320 672 l 1
 460 710 l 1
 465 705 l 1
 340 251 l 2
290 317 m 0
 290 345 272 360 247 360 c 0
 167 360 73 197 73 97 c 0
 73 68 87 54 105 54 c 0
 180 54 290 235 290 317 c 0
EndSplineSet
Substitution2: "'smcp' Lowercase to Small Capitals in Latin lookup 8-1" d.smcp
EndChar

StartChar: e
Encoding: 101 101 77
GlifName: e
Width: 310
Flags: HMW
AnchorPoint: "Top" 250 500 basechar 0
LayerCount: 3
Back
SplineSet
219 11 m 1
 220 10 l 1
 219 9 l 1
 218 10 l 1
 219 11 l 1
214 501 m 1
 215 500 l 1
 214 499 l 1
 213 500 l 1
 214 501 l 1
109 280 m 1
 297 280 l 1
 297 340 265 376 217 376 c 0
 167 376 126 343 109 280 c 1
103 250 m 1
 102 240 101 227 101 215 c 0
 101 115 166 52 247 52 c 0
 294 52 332 70 356 96 c 1
 371 83 l 1
 342 33 287 -12 217 -12 c 0
 117 -12 32 67 32 195 c 0
 32 310 118 412 229 412 c 0
 312 412 372 353 372 265 c 2
 372 250 l 1
 103 250 l 1
EndSplineSet
Fore
SplineSet
220 373 m 0
 173 373 122 301 96 221 c 1
 97 220 l 1
 205 242 245 305 245 345 c 0
 245 363 235 373 220 373 c 0
89 194 m 1
 84 171 81 147 81 125 c 0
 81 75 102 51 132 51 c 0
 164 51 203 74 237 122 c 1
 253 105 l 1
 202 22 140 -13 95 -13 c 0
 47 -13 15 25 15 90 c 0
 15 230 134 413 240 413 c 0
 280 413 305 385 305 350 c 0
 305 286 246 217 89 194 c 1
EndSplineSet
Substitution2: "'smcp' Lowercase to Small Capitals in Latin lookup 8-1" e.smcp
EndChar

StartChar: f
Encoding: 102 102 78
GlifName: f
Width: 237
Flags: HMW
LayerCount: 3
Back
SplineSet
660 618 m 1
 638 632 609 640 585 640 c 0
 527 640 482 600 482 475 c 2
 482 400 l 1
 597 400 l 1
 592 357 l 1
 482 357 l 1
 482 32 l 1
 567 32 l 1
 567 0 l 1
 352 0 l 1
 352 32 l 1
 412 32 l 1
 412 357 l 1
 355 357 l 1
 355 378 l 1
 412 404 l 1
 412 435 l 2
 412 595 537 698 622 698 c 0
 647 698 673 690 692 677 c 1
 662 618 l 1
 660 618 l 1
340 617 m 1
 317 632 286 640 264 640 c 0
 207 640 162 600 162 475 c 2
 162 400 l 1
 277 400 l 1
 272 357 l 1
 162 357 l 1
 162 31 l 1
 247 31 l 1
 247 0 l 1
 32 0 l 1
 32 31 l 1
 92 31 l 1
 92 357 l 1
 35 357 l 1
 35 378 l 1
 92 404 l 1
 92 435 l 2
 92 595 217 698 302 698 c 0
 327 698 354 690 372 676 c 1
 342 617 l 1
 340 617 l 1
EndSplineSet
Fore
SplineSet
115 415 m 2
 135 505 171 581 224 634 c 0
 264 674 310 698 355 698 c 0
 382 698 416 689 440 669 c 1
 402 615 l 1
 400 615 l 1
 380 629 354 642 325 642 c 0
 255 642 221 595 182 426 c 2
 176 400 l 1
 275 400 l 1
 275 360 l 1
 167 360 l 1
 85 5 l 2
 41 -185 -50 -261 -150 -261 c 0
 -167 -261 -193 -257 -210 -250 c 1
 -185 -190 l 1
 -183 -190 l 1
 -163 -201 -132 -208 -110 -208 c 0
 -55 -208 -18 -175 15 -28 c 2
 103 360 l 1
 40 360 l 1
 40 395 l 1
 95 400 l 1
 112 400 l 1
 115 415 l 2
EndSplineSet
Layer: 2
SplineSet
959 618 m 1
 937 633 909 642 884 642 c 0
 819 642 782 597 782 475 c 2
 782 400 l 1
 897 400 l 1
 892 357 l 1
 782 357 l 1
 782 32 l 1
 867 32 l 1
 867 0 l 1
 652 0 l 1
 652 32 l 1
 712 32 l 1
 712 357 l 1
 655 357 l 1
 655 378 l 1
 712 404 l 1
 712 440 l 2
 712 595 829 698 919 698 c 0
 945 698 973 690 992 677 c 1
 962 618 l 1
 959 618 l 1
1264 618 m 1
 1244 633 1214 642 1187 642 c 0
 1122 642 1082 597 1082 475 c 2
 1082 400 l 1
 1197 400 l 1
 1192 357 l 1
 1082 357 l 1
 1082 32 l 1
 1167 32 l 1
 1167 0 l 1
 952 0 l 1
 952 32 l 1
 1012 32 l 1
 1012 357 l 1
 955 357 l 1
 955 378 l 1
 1012 404 l 1
 1012 440 l 2
 1012 597 1132 698 1227 698 c 0
 1252 698 1279 690 1297 677 c 1
 1267 618 l 1
 1264 618 l 1
660 617 m 1
 637 632 606 640 584 640 c 0
 527 640 482 600 482 475 c 2
 482 400 l 1
 597 400 l 1
 592 357 l 1
 482 357 l 1
 482 32 l 1
 567 32 l 1
 567 0 l 1
 352 0 l 1
 352 32 l 1
 412 32 l 1
 412 357 l 1
 355 357 l 1
 355 378 l 1
 412 404 l 1
 412 435 l 2
 412 592 534 698 622 698 c 0
 647 698 674 690 692 677 c 1
 662 617 l 1
 660 617 l 1
EndSplineSet
Substitution2: "'ss11' Style Set 11 lookup 19-1" f.alt
Substitution2: "'ss10' Style Set 10 lookup 18-1" f.alt
Substitution2: "'ss06' Style Set 6 lookup 17-1" f.alt
Substitution2: "'smcp' Lowercase to Small Capitals in Latin lookup 8-1" f.smcp
Substitution2: "'salt' Stylistic Alternatives in Latin lookup 2-1" f.alt
EndChar

StartChar: l
Encoding: 108 108 79
GlifName: l
Width: 250
Flags: HMW
LayerCount: 3
Back
SplineSet
39 665 m 1
 39 673 l 1
 150 710 l 1
 160 710 l 1
 160 31 l 1
 232 31 l 1
 232 0 l 1
 23 0 l 1
 23 31 l 1
 90 31 l 1
 90 625 l 1
 39 665 l 1
EndSplineSet
Fore
SplineSet
270 705 m 1
 108 95 l 2
 105 84 104 79 104 76 c 0
 104 69 107 65 113 65 c 0
 126 65 170 95 218 158 c 1
 235 140 l 1
 165 45 103 -13 69 -13 c 0
 45 -13 34 7 34 35 c 0
 34 46 37 61 40 73 c 2
 183 628 l 1
 132 667 l 1
 132 675 l 1
 265 710 l 1
 270 705 l 1
EndSplineSet
Substitution2: "'smcp' Lowercase to Small Capitals in Latin lookup 8-1" l.smcp
EndChar

StartChar: m
Encoding: 109 109 80
GlifName: m
Width: 715
Flags: HMW
LayerCount: 3
Back
SplineSet
42 357 m 1
 42 365 l 1
 142 415 l 1
 152 415 l 1
 161 339 l 1
 162 338 l 1
 197 380 252 412 305 412 c 0
 357 412 402 385 414 330 c 1
 417 330 l 1
 452 375 507 412 564 412 c 0
 629 412 682 370 682 290 c 2
 682 31 l 1
 747 31 l 1
 747 0 l 1
 562 0 l 1
 562 31 l 1
 612 31 l 1
 612 270 l 2
 612 325 579 360 527 360 c 0
 487 360 449 335 420 300 c 0
 421 297 422 288 422 282 c 2
 422 31 l 1
 487 31 l 1
 487 0 l 1
 302 0 l 1
 302 31 l 1
 352 31 l 1
 352 270 l 2
 352 325 321 360 269 360 c 0
 233 360 192 340 162 305 c 1
 162 31 l 1
 217 31 l 1
 217 0 l 1
 32 0 l 1
 32 31 l 1
 92 31 l 1
 92 320 l 1
 42 357 l 1
EndSplineSet
Fore
SplineSet
387 234 m 1
 390 233 l 1
 457 340 527 413 597 413 c 0
 631 413 650 391 650 353 c 0
 650 335 646 314 637 290 c 2
 567 94 l 2
 564 85 562 78 562 73 c 0
 562 68 564 64 569 64 c 0
 581 64 615 80 662 136 c 1
 679 118 l 1
 615 30 550 -14 512 -14 c 0
 493 -14 484 -1 484 19 c 0
 484 32 487 49 494 67 c 2
 567 275 l 2
 575 297 578 315 578 328 c 0
 578 346 571 355 557 355 c 0
 512 355 394 222 347 92 c 2
 319 14 l 1
 284 -3 l 1
 252 -3 l 1
 345 275 l 2
 352 296 356 314 356 327 c 0
 356 345 349 355 335 355 c 0
 290 355 169 215 130 100 c 2
 101 15 l 1
 67 -3 l 1
 35 -3 l 1
 115 251 l 2
 124 280 130 311 130 329 c 0
 130 343 126 349 118 349 c 0
 105 349 73 332 40 302 c 1
 27 322 l 1
 84 382 135 414 171 414 c 0
 192 414 201 399 201 372 c 0
 201 340 188 290 165 231 c 1
 168 230 l 1
 237 340 306 413 375 413 c 0
 403 413 422 397 422 360 c 0
 422 332 412 293 387 234 c 1
EndSplineSet
Substitution2: "'smcp' Lowercase to Small Capitals in Latin lookup 8-1" m.smcp
EndChar

StartChar: p
Encoding: 112 112 81
GlifName: p
Width: 395
Flags: HMW
LayerCount: 3
Back
SplineSet
154 350 m 1
 155 348 l 1
 186 382 232 412 283 412 c 0
 380 412 461 334 461 212 c 0
 461 83 352 -10 245 -10 c 0
 212 -10 177 -3 156 5 c 1
 154 3 l 1
 155 -40 l 1
 155 -239 l 1
 235 -239 l 1
 235 -270 l 1
 20 -270 l 1
 20 -239 l 1
 85 -239 l 1
 85 324 l 1
 35 373 l 1
 35 381 l 1
 140 416 l 1
 150 416 l 1
 154 350 l 1
155 71 m 1
 179 46 213 30 260 30 c 0
 332 30 390 83 390 183 c 0
 390 290 325 357 250 357 c 0
 216 357 181 344 155 322 c 1
 155 71 l 1
EndSplineSet
Fore
SplineSet
210 500 m 1
 224 500 l 1
 201 404 l 1
 222 410 253 414 275 414 c 0
 335 414 377 370 377 305 c 0
 377 150 250 -7 125 -7 c 0
 119 -7 108 -6 102 -5 c 1
 46 -240 l 1
 130 -240 l 1
 130 -272 l 1
 -90 -272 l 1
 -90 -240 l 1
 -15 -240 l 1
 127 347 l 1
 126 347 l 1
 93 338 58 325 25 310 c 1
 19 336 l 1
 60 356 100 373 136 386 c 1
 162 490 l 1
 210 500 l 1
190 360 m 1
 118 64 l 2
 117 60 116 56 116 53 c 0
 116 42 128 35 150 35 c 0
 235 35 306 155 306 265 c 0
 306 329 275 363 225 363 c 0
 215 363 200 362 190 360 c 1
EndSplineSet
Substitution2: "'smcp' Lowercase to Small Capitals in Latin lookup 8-1" p.smcp
EndChar

StartChar: q
Encoding: 113 113 82
GlifName: q
Width: 390
Flags: HMW
LayerCount: 3
Back
SplineSet
341 313 m 1
 321 346 281 370 238 370 c 0
 169 370 106 315 106 215 c 0
 106 100 179 43 251 43 c 0
 284 43 316 54 341 75 c 1
 341 313 l 1
361 390 m 1
 363 390 l 1
 391 419 l 1
 411 419 l 1
 411 -239 l 1
 481 -239 l 1
 481 -270 l 1
 256 -270 l 1
 256 -239 l 1
 341 -239 l 1
 341 10 l 1
 343 49 l 1
 341 50 l 1
 306 12 261 -12 213 -12 c 0
 121 -12 35 66 35 180 c 0
 35 307 143 412 260 412 c 0
 293 412 330 403 361 390 c 1
EndSplineSet
Fore
SplineSet
295 315 m 0
 295 342 278 359 252 359 c 0
 175 359 77 185 77 85 c 0
 77 60 90 45 105 45 c 0
 175 45 295 225 295 315 c 0
254 133 m 1
 251 134 l 1
 175 25 118 -12 65 -12 c 0
 33 -12 9 15 9 55 c 0
 9 215 173 411 285 411 c 0
 305 411 324 404 337 393 c 1
 338 393 l 1
 362 427 l 1
 387 427 l 1
 215 -240 l 1
 300 -240 l 1
 300 -272 l 1
 70 -272 l 1
 70 -240 l 1
 155 -240 l 1
 242 95 l 1
 254 133 l 1
EndSplineSet
Substitution2: "'smcp' Lowercase to Small Capitals in Latin lookup 8-1" q.smcp
EndChar

StartChar: r
Encoding: 114 114 83
GlifName: r
Width: 375
Flags: HMW
LayerCount: 3
Back
SplineSet
296 330 m 2
 287 333 274 335 262 335 c 0
 227 335 192 320 162 280 c 1
 162 31 l 1
 249 31 l 1
 249 0 l 1
 27 0 l 1
 27 31 l 1
 92 31 l 1
 92 323 l 1
 39 362 l 1
 39 370 l 1
 147 415 l 1
 157 415 l 1
 157 318 l 1
 162 315 l 1
 202 370 242 413 287 413 c 0
 302 413 317 410 327 404 c 1
 297 330 l 1
 296 330 l 2
EndSplineSet
Fore
SplineSet
357 318 m 1
 351 321 340 323 332 323 c 0
 272 323 212 250 165 110 c 2
 133 15 l 1
 97 -3 l 1
 65 -3 l 1
 115 160 l 2
 131 212 137 253 137 285 c 0
 137 325 126 345 110 345 c 0
 90 345 63 330 35 300 c 1
 20 319 l 1
 60 375 115 414 155 414 c 0
 183 414 201 392 201 345 c 0
 201 316 192 265 170 211 c 1
 173 209 l 1
 230 325 300 414 370 414 c 0
 380 414 395 410 400 405 c 1
 357 318 l 1
EndSplineSet
Substitution2: "'smcp' Lowercase to Small Capitals in Latin lookup 8-1" r.smcp
EndChar

StartChar: s
Encoding: 115 115 84
GlifName: s
Width: 265
Flags: HMW
LayerCount: 3
Back
SplineSet
170 501 m 1
 171 500 l 1
 170 499 l 1
 169 500 l 1
 170 501 l 1
161 20 m 0
 203 20 228 45 228 80 c 0
 228 110 203 138 136 182 c 0
 71 225 51 262 51 307 c 0
 51 367 106 413 176 413 c 0
 214 413 251 400 271 385 c 1
 280 290 l 1
 251 290 l 1
 247 314 l 2
 240 355 211 381 168 381 c 0
 136 381 111 362 111 332 c 0
 111 300 132 277 192 237 c 0
 263 189 293 157 293 108 c 0
 293 36 231 -13 151 -13 c 0
 116 -13 78 -3 53 14 c 1
 39 125 l 1
 68 125 l 1
 74 95 l 2
 83 48 113 20 161 20 c 0
EndSplineSet
Fore
SplineSet
262 393 m 1
 232 335 l 1
 230 335 l 1
 210 350 181 367 155 367 c 0
 130 367 110 347 110 322 c 0
 110 264 211 198 211 120 c 0
 211 45 146 -13 68 -13 c 0
 35 -13 3 -3 -15 14 c 1
 15 73 l 1
 17 73 l 1
 42 52 74 35 106 35 c 0
 132 35 154 56 154 82 c 0
 154 146 56 207 56 290 c 0
 56 350 115 413 190 413 c 0
 222 413 248 404 262 393 c 1
EndSplineSet
Substitution2: "'ss04' Style Set 4 lookup 14-1" longs
Substitution2: "'smcp' Lowercase to Small Capitals in Latin lookup 8-1" s.smcp
Substitution2: "'hist' Historical Forms in Latin lookup 7-1" longs
EndChar

StartChar: u
Encoding: 117 117 85
GlifName: u
Width: 478
Flags: HMW
AnchorPoint: "Top" 310 500 basechar 0
LayerCount: 3
Back
SplineSet
243 501 m 1
 244 500 l 1
 243 499 l 1
 242 500 l 1
 243 501 l 1
411 415 m 1
 411 48 l 1
 479 57 l 1
 479 27 l 1
 356 -10 l 1
 341 -10 l 1
 346 64 l 1
 341 65 l 1
 304 20 246 -12 191 -12 c 0
 126 -12 81 25 81 110 c 2
 81 331 l 1
 31 371 l 1
 31 379 l 1
 141 414 l 1
 151 414 l 1
 151 130 l 2
 151 70 181 40 231 40 c 0
 268 40 311 62 341 100 c 1
 341 331 l 1
 271 367 l 1
 271 375 l 1
 401 415 l 1
 411 415 l 1
EndSplineSet
Fore
SplineSet
195 330 m 2
 126 108 l 2
 121 92 118 79 118 71 c 0
 118 61 122 55 130 55 c 0
 190 55 319 221 365 357 c 2
 377 393 l 1
 425 404 l 1
 443 404 l 1
 369 160 l 2
 357 121 352 97 352 83 c 0
 352 69 357 64 365 64 c 0
 388 64 428 100 463 140 c 1
 479 121 l 1
 415 40 348 -14 308 -14 c 0
 291 -14 280 -6 280 23 c 0
 280 53 292 110 321 197 c 1
 318 198 l 1
 212 39 140 -13 90 -13 c 0
 65 -13 49 4 49 36 c 0
 49 54 54 78 63 105 c 2
 129 318 l 2
 132 327 133 334 133 339 c 0
 133 346 130 349 124 349 c 0
 107 349 76 330 45 301 c 1
 30 319 l 1
 85 380 143 413 175 413 c 0
 196 413 205 402 205 381 c 0
 205 368 201 351 195 330 c 2
EndSplineSet
Substitution2: "'smcp' Lowercase to Small Capitals in Latin lookup 8-1" u.smcp
EndChar

StartChar: v
Encoding: 118 118 86
GlifName: v
Width: 425
Flags: HMW
LayerCount: 3
Back
SplineSet
117 369 m 1
 224 95 l 1
 226 95 l 1
 325 328 l 1
 334 369 l 1
 277 369 l 1
 277 400 l 1
 424 400 l 1
 424 369 l 1
 385 369 l 1
 215 -16 l 1
 195 -16 l 1
 40 369 l 1
 0 369 l 1
 0 400 l 1
 170 400 l 1
 170 369 l 1
 117 369 l 1
EndSplineSet
Fore
SplineSet
245 385 m 1
 180 305 137 210 137 130 c 0
 137 80 162 50 200 50 c 0
 275 50 360 165 360 265 c 0
 360 300 354 345 335 380 c 1
 335 382 l 1
 405 415 l 1
 415 390 420 350 420 327 c 0
 420 175 290 -13 160 -13 c 0
 105 -13 70 30 70 90 c 0
 70 170 120 265 175 340 c 1
 173 342 l 1
 76 342 l 2
 61 342 51 335 41 312 c 2
 38 305 l 1
 10 305 l 1
 35 400 l 1
 245 400 l 1
 245 385 l 1
EndSplineSet
Substitution2: "'smcp' Lowercase to Small Capitals in Latin lookup 8-1" v.smcp
EndChar

StartChar: w
Encoding: 119 119 87
GlifName: w
Width: 645
Flags: HMW
LayerCount: 3
Back
SplineSet
265 369 m 1
 117 369 l 1
 222 91 l 1
 224 91 l 1
 305 270 l 1
 265 369 l 1
0 400 m 1
 390 400 l 1
 390 369 l 1
 342 369 l 1
 443 99 l 1
 445 99 l 1
 536 329 l 1
 545 369 l 1
 492 369 l 1
 492 400 l 1
 632 400 l 1
 632 369 l 1
 595 369 l 1
 435 -16 l 1
 415 -16 l 1
 324 223 l 1
 321 223 l 1
 210 -16 l 1
 190 -16 l 1
 40 369 l 1
 0 369 l 1
 0 400 l 1
EndSplineSet
Fore
SplineSet
315 180 m 2
 372 385 l 1
 430 402 l 1
 443 402 l 1
 383 195 l 2
 375 166 371 141 371 121 c 0
 371 74 392 50 430 50 c 0
 510 50 580 160 580 275 c 0
 580 310 570 345 550 380 c 1
 550 382 l 1
 620 415 l 1
 632 390 640 352 640 327 c 0
 640 163 517 -13 395 -13 c 0
 340 -13 310 30 307 85 c 1
 303 85 l 1
 267 30 210 -13 154 -13 c 0
 100 -13 60 30 60 95 c 0
 60 180 117 270 177 341 c 1
 176 344 l 1
 89 344 l 2
 71 344 63 335 51 311 c 2
 48 305 l 1
 20 305 l 1
 47 400 l 1
 247 400 l 1
 247 385 l 1
 182 305 127 215 127 130 c 0
 127 77 155 48 190 48 c 0
 245 48 293 100 315 180 c 2
EndSplineSet
Substitution2: "'ss02' Style Set 2 lookup 20-1" w.alt
Substitution2: "'smcp' Lowercase to Small Capitals in Latin lookup 8-1" w.smcp
Substitution2: "'salt' Stylistic Alternatives in Latin lookup 2-1" w.alt
EndChar

StartChar: x
Encoding: 120 120 88
GlifName: x
Width: 470
Flags: HMW
LayerCount: 3
Back
SplineSet
176 196 m 1
 47 369 l 1
 7 369 l 1
 7 400 l 1
 175 400 l 1
 175 369 l 1
 134 369 l 1
 224 247 l 1
 227 247 l 1
 308 344 l 1
 318 369 l 1
 273 369 l 1
 273 400 l 1
 420 400 l 1
 420 369 l 1
 377 369 l 1
 248 217 l 1
 388 31 l 1
 432 31 l 1
 432 0 l 1
 257 0 l 1
 257 31 l 1
 300 31 l 1
 201 164 l 1
 197 164 l 1
 108 58 l 1
 98 31 l 1
 148 31 l 1
 148 0 l 1
 -3 0 l 1
 -3 31 l 1
 38 31 l 1
 176 196 l 1
EndSplineSet
Fore
SplineSet
255 242 m 1
 256 242 l 1
 374 388 415 413 447 413 c 0
 467 413 487 405 503 392 c 1
 462 327 l 1
 460 327 l 1
 448 336 437 340 425 340 c 0
 399 340 365 323 269 205 c 1
 313 78 337 56 360 56 c 0
 382 56 405 78 426 124 c 1
 447 111 l 1
 417 30 375 -13 335 -13 c 0
 293 -13 264 22 220 152 c 1
 219 152 l 1
 107 16 61 -13 13 -13 c 0
 -17 -13 -35 7 -35 30 c 0
 -35 53 -16 72 7 72 c 0
 34 72 40 50 57 50 c 0
 74 50 105 69 206 192 c 1
 163 316 134 345 115 345 c 0
 95 345 74 330 45 285 c 1
 25 300 l 1
 72 389 110 413 140 413 c 0
 175 413 219 356 255 242 c 1
EndSplineSet
Layer: 2
SplineSet
250 242 m 1
 251 242 l 1
 370 388 410 413 442 413 c 0
 462 413 482 405 498 392 c 1
 457 327 l 1
 455 327 l 1
 443 336 432 340 420 340 c 0
 394 340 362 322 264 204 c 1
 308 77 332 56 355 56 c 0
 377 56 400 78 421 124 c 1
 442 111 l 1
 412 30 370 -13 330 -13 c 0
 288 -13 259 22 215 152 c 1
 214 152 l 1
 102 16 56 -13 8 -13 c 0
 -22 -13 -40 7 -40 30 c 0
 -40 53 -21 72 2 72 c 0
 29 72 35 50 52 50 c 0
 69 50 100 69 201 192 c 1
 158 316 129 345 110 345 c 0
 90 345 69 330 40 285 c 1
 20 300 l 1
 67 389 105 413 135 413 c 0
 170 413 214 356 250 242 c 1
EndSplineSet
Substitution2: "'smcp' Lowercase to Small Capitals in Latin lookup 8-1" x.smcp
EndChar

StartChar: y
Encoding: 121 121 89
GlifName: y
Width: 410
Flags: HMW
AnchorPoint: "Top" 270 500 basechar 0
LayerCount: 3
Back
SplineSet
218 501 m 1
 219 500 l 1
 218 499 l 1
 217 500 l 1
 218 501 l 1
145 -175 m 2
 115 -243 80 -275 45 -275 c 1
 22 -210 l 1
 22 -208 l 1
 79 -202 108 -180 129 -132 c 2
 190 10 l 1
 45 369 l 1
 3 369 l 1
 3 400 l 1
 175 400 l 1
 175 369 l 1
 120 369 l 1
 227 100 l 1
 229 100 l 1
 325 328 l 1
 334 369 l 1
 277 369 l 1
 277 400 l 1
 427 400 l 1
 427 369 l 1
 385 369 l 1
 145 -175 l 2
EndSplineSet
Fore
SplineSet
-50 -217 m 0
 50 -217 175 -75 175 30 c 0
 175 185 125 340 90 340 c 0
 75 340 45 315 15 270 c 1
 -5 288 l 1
 47 375 90 414 125 414 c 0
 170 414 240 240 240 70 c 2
 240 53 l 1
 242 52 l 1
 298 128 318 245 318 330 c 0
 318 350 316 378 312 395 c 1
 312 397 l 1
 382 414 l 1
 388 395 390 365 390 350 c 0
 390 225 305 80 255 5 c 0
 195 -85 50 -275 -80 -275 c 0
 -94 -275 -118 -272 -135 -267 c 1
 -112 -203 l 1
 -110 -203 l 1
 -91 -212 -67 -217 -50 -217 c 0
EndSplineSet
Substitution2: "'smcp' Lowercase to Small Capitals in Latin lookup 8-1" y.smcp
EndChar

StartChar: z
Encoding: 122 122 90
GlifName: z
Width: 480
Flags: HMW
LayerCount: 3
Back
SplineSet
58 426 m 1
 85 426 l 1
 85 400 l 1
 364 400 l 1
 364 370 l 1
 120 34 l 1
 275 34 l 2
 315 34 334 50 350 119 c 2
 355 140 l 1
 382 140 l 1
 355 0 l 1
 30 0 l 1
 30 30 l 1
 275 367 l 1
 130 367 l 2
 92 367 80 360 69 305 c 2
 65 285 l 1
 38 285 l 1
 58 426 l 1
EndSplineSet
Fore
SplineSet
395 420 m 1
 420 395 l 1
 121 96 l 1
 122 94 l 1
 130 95 l 1
 185 95 295 40 360 40 c 0
 393 40 412 57 412 80 c 0
 412 98 402 115 385 130 c 1
 385 132 l 1
 435 180 l 1
 453 165 465 142 465 120 c 0
 465 45 395 -15 310 -15 c 0
 235 -15 146 36 91 36 c 0
 71 36 52 27 20 -5 c 2
 15 -10 l 1
 -10 15 l 1
 300 325 l 1
 235 340 170 353 130 353 c 0
 105 353 92 337 92 320 c 0
 92 305 100 292 115 280 c 1
 115 278 l 1
 65 240 l 1
 55 252 50 270 50 289 c 0
 50 356 107 410 170 410 c 0
 230 410 300 387 335 387 c 0
 356 387 367 392 392 417 c 2
 395 420 l 1
EndSplineSet
Substitution2: "'smcp' Lowercase to Small Capitals in Latin lookup 8-1" z.smcp
EndChar

StartChar: braceleft
Encoding: 123 123 91
GlifName: braceleft
Width: 290
Flags: HMW
LayerCount: 3
Back
SplineSet
95 242 m 1
 95 238 l 1
 150 225 170 185 170 130 c 2
 170 -67 l 2
 170 -127 195 -162 260 -162 c 2
 275 -162 l 1
 275 -195 l 1
 250 -195 l 2
 155 -195 107 -135 107 -50 c 2
 107 140 l 2
 107 195 88 225 20 225 c 1
 20 255 l 1
 88 255 107 285 107 340 c 2
 107 530 l 2
 107 615 155 675 250 675 c 2
 275 675 l 1
 275 642 l 1
 260 642 l 2
 195 642 170 607 170 547 c 2
 170 350 l 2
 170 295 150 255 95 242 c 1
EndSplineSet
Fore
SplineSet
95 242 m 1
 95 238 l 1
 147 225 159 185 147 130 c 2
 105 -67 l 2
 92 -127 110 -162 175 -162 c 2
 190 -162 l 1
 183 -195 l 1
 158 -195 l 2
 63 -195 27 -135 45 -50 c 2
 86 140 l 2
 98 195 85 225 17 225 c 1
 23 255 l 1
 91 255 116 285 128 340 c 2
 169 530 l 2
 187 615 247 675 342 675 c 2
 367 675 l 1
 360 642 l 1
 345 642 l 2
 280 642 248 607 235 547 c 2
 193 350 l 2
 181 295 153 255 95 242 c 1
EndSplineSet
Layer: 2
SplineSet
95 242 m 1
 95 238 l 1
 147 225 159 185 147 130 c 2
 105 -67 l 2
 92 -127 110 -162 175 -162 c 2
 190 -162 l 1
 183 -195 l 1
 158 -195 l 2
 63 -195 27 -135 45 -50 c 2
 86 140 l 2
 98 195 85 225 17 225 c 1
 23 255 l 1
 91 255 116 285 128 340 c 2
 169 530 l 2
 187 615 247 675 342 675 c 2
 367 675 l 1
 360 642 l 1
 345 642 l 2
 280 642 248 607 235 547 c 2
 193 350 l 2
 181 295 153 255 95 242 c 1
EndSplineSet
EndChar

StartChar: bar
Encoding: 124 124 92
GlifName: bar
Width: 170
Flags: HMW
LayerCount: 3
Back
SplineSet
64 640 m 1
 106 640 l 1
 106 -200 l 1
 64 -200 l 1
 64 640 l 1
EndSplineSet
Fore
SplineSet
84 640 m 1
 126 640 l 1
 126 -200 l 1
 84 -200 l 1
 84 640 l 1
EndSplineSet
EndChar

StartChar: braceright
Encoding: 125 125 93
GlifName: braceright
Width: 290
Flags: HMW
LayerCount: 3
Back
SplineSet
195 238 m 1
 195 242 l 1
 140 255 120 295 120 350 c 2
 120 547 l 2
 120 607 95 642 30 642 c 2
 15 642 l 1
 15 675 l 1
 40 675 l 2
 135 675 183 615 183 530 c 2
 183 340 l 2
 183 285 202 255 270 255 c 1
 270 225 l 1
 202 225 183 195 183 140 c 2
 183 -50 l 2
 183 -135 135 -195 40 -195 c 2
 15 -195 l 1
 15 -162 l 1
 30 -162 l 2
 95 -162 120 -127 120 -67 c 2
 120 130 l 2
 120 185 140 225 195 238 c 1
EndSplineSet
Fore
SplineSet
195 238 m 1
 195 242 l 1
 143 255 131 295 143 350 c 2
 185 547 l 2
 198 607 180 642 115 642 c 2
 100 642 l 1
 107 675 l 1
 132 675 l 2
 227 675 263 615 245 530 c 2
 204 340 l 2
 192 285 205 255 273 255 c 1
 267 225 l 1
 199 225 174 195 162 140 c 2
 121 -50 l 2
 103 -135 43 -195 -52 -195 c 2
 -77 -195 l 1
 -70 -162 l 1
 -55 -162 l 2
 10 -162 42 -127 55 -67 c 2
 97 130 l 2
 109 185 137 225 195 238 c 1
EndSplineSet
EndChar

StartChar: asciitilde
Encoding: 126 126 94
GlifName: asciitilde
Width: 470
Flags: HMW
LayerCount: 3
Back
SplineSet
30 170 m 1
 45 242 95 277 145 277 c 0
 175 277 209 266 262 245 c 0
 304 228 332 220 355 220 c 0
 390 220 413 245 425 280 c 1
 450 270 l 1
 435 198 385 163 335 163 c 0
 305 163 271 174 218 195 c 0
 176 212 148 220 125 220 c 0
 90 220 67 195 55 160 c 1
 30 170 l 1
EndSplineSet
Fore
SplineSet
45 640 m 1
 445 640 l 1
 445 0 l 1
 45 0 l 1
 45 640 l 1
95 590 m 1
 95 50 l 1
 395 50 l 1
 395 590 l 1
 95 590 l 1
EndSplineSet
EndChar

StartChar: exclamdown
Encoding: 161 161 95
GlifName: exclamdown
Width: 470
Flags: HMW
LayerCount: 3
Back
SplineSet
156 -245 m 1
 74 -245 l 1
 100 225 l 1
 130 225 l 1
 156 -245 l 1
161 363 m 0
 161 338 140 317 115 317 c 0
 90 317 69 338 69 363 c 0
 69 388 90 409 115 409 c 0
 140 409 161 388 161 363 c 0
EndSplineSet
Fore
SplineSet
45 640 m 1
 445 640 l 1
 445 0 l 1
 45 0 l 1
 45 640 l 1
95 590 m 1
 95 50 l 1
 395 50 l 1
 395 590 l 1
 95 590 l 1
EndSplineSet
EndChar

StartChar: cent
Encoding: 162 162 96
GlifName: cent
Width: 470
Flags: HMW
LayerCount: 3
Back
SplineSet
221 368 m 1
 160 364 113 312 113 215 c 0
 113 122 157 68 214 52 c 1
 221 368 l 1
261 363 m 1
 254 47 l 1
 301 48 338 69 366 107 c 1
 382 93 l 1
 355 41 309 2 253 -9 c 1
 250 -115 l 1
 210 -115 l 1
 212 -12 l 1
 116 -8 40 68 40 185 c 0
 40 298 125 391 222 409 c 1
 225 520 l 1
 265 520 l 1
 262 412 l 1
 303 411 349 397 377 375 c 1
 332 318 l 1
 330 318 l 1
 312 338 288 355 261 363 c 1
EndSplineSet
Fore
SplineSet
45 640 m 1
 445 640 l 1
 445 0 l 1
 45 0 l 1
 45 640 l 1
95 590 m 1
 95 50 l 1
 395 50 l 1
 395 590 l 1
 95 590 l 1
EndSplineSet
Substitution2: "'tnum' Tabular Numbers in Latin lookup 3-1" cent.tnum
EndChar

StartChar: sterling
Encoding: 163 163 97
GlifName: sterling
Width: 470
Flags: HMW
LayerCount: 3
Back
SplineSet
105 58 m 1
 106 56 l 1
 140 57 l 1
 355 57 l 2
 390 57 407 65 427 119 c 2
 431 130 l 1
 460 130 l 1
 425 0 l 1
 35 0 l 1
 35 35 l 1
 80 50 96 80 106 160 c 2
 125 310 l 1
 45 310 l 1
 45 349 l 1
 130 349 l 1
 135 390 l 2
 155 555 270 654 375 654 c 0
 398 654 427 647 445 635 c 1
 408 574 l 1
 406 574 l 1
 388 586 358 597 330 597 c 0
 272 597 231 564 212 425 c 2
 202 349 l 1
 375 349 l 1
 375 310 l 1
 197 310 l 1
 181 195 l 2
 173 135 150 85 105 58 c 1
EndSplineSet
Fore
SplineSet
45 640 m 1
 445 640 l 1
 445 0 l 1
 45 0 l 1
 45 640 l 1
95 590 m 1
 95 50 l 1
 395 50 l 1
 395 590 l 1
 95 590 l 1
EndSplineSet
EndChar

StartChar: currency
Encoding: 164 164 98
GlifName: currency
Width: 470
Flags: HMW
LayerCount: 3
Back
SplineSet
137 420 m 1
 166 442 200 454 240 454 c 0
 280 454 315 442 344 420 c 1
 393 470 l 1
 425 438 l 1
 375 390 l 1
 397 361 409 325 409 285 c 0
 409 245 397 209 375 180 c 1
 425 132 l 1
 393 100 l 1
 344 150 l 1
 315 128 280 116 240 116 c 0
 200 116 165 128 136 150 c 1
 87 100 l 1
 55 132 l 1
 105 180 l 1
 84 209 71 244 71 285 c 0
 71 325 83 359 105 388 c 1
 55 438 l 1
 87 470 l 1
 137 420 l 1
120 285 m 0
 120 213 171 156 240 156 c 0
 313 156 360 212 360 285 c 0
 360 354 309 414 240 414 c 0
 167 414 120 358 120 285 c 0
EndSplineSet
Fore
SplineSet
45 640 m 1
 445 640 l 1
 445 0 l 1
 45 0 l 1
 45 640 l 1
95 590 m 1
 95 50 l 1
 395 50 l 1
 395 590 l 1
 95 590 l 1
EndSplineSet
EndChar

StartChar: yen
Encoding: 165 165 99
GlifName: yen
Width: 470
Flags: HMW
LayerCount: 3
Back
SplineSet
141 608 m 1
 288 368 l 1
 292 368 l 1
 416 559 l 1
 437 608 l 1
 375 608 l 1
 375 640 l 1
 542 640 l 1
 542 608 l 1
 497 608 l 1
 323 343 l 1
 311 326 l 1
 311 325 l 1
 471 325 l 1
 471 290 l 1
 308 290 l 1
 308 205 l 1
 471 205 l 1
 471 170 l 1
 308 170 l 1
 308 32 l 1
 385 32 l 1
 385 0 l 1
 155 0 l 1
 155 32 l 1
 232 32 l 1
 232 170 l 1
 72 170 l 1
 72 205 l 1
 232 205 l 1
 232 290 l 1
 72 290 l 1
 72 325 l 1
 226 325 l 1
 226 326 l 1
 214 344 l 1
 50 608 l 1
 5 608 l 1
 5 640 l 1
 200 640 l 1
 200 608 l 1
 141 608 l 1
EndSplineSet
Fore
SplineSet
45 640 m 1
 445 640 l 1
 445 0 l 1
 45 0 l 1
 45 640 l 1
95 590 m 1
 95 50 l 1
 395 50 l 1
 395 590 l 1
 95 590 l 1
EndSplineSet
Substitution2: "'tnum' Tabular Numbers in Latin lookup 3-1" yen.tnum
EndChar

StartChar: brokenbar
Encoding: 166 166 100
GlifName: brokenbar
Width: 470
Flags: HMW
LayerCount: 3
Back
SplineSet
64 170 m 1
 106 170 l 1
 106 -200 l 1
 64 -200 l 1
 64 170 l 1
64 640 m 1
 106 640 l 1
 106 270 l 1
 64 270 l 1
 64 640 l 1
EndSplineSet
Fore
SplineSet
45 640 m 1
 445 640 l 1
 445 0 l 1
 45 0 l 1
 45 640 l 1
95 590 m 1
 95 50 l 1
 395 50 l 1
 395 590 l 1
 95 590 l 1
EndSplineSet
Layer: 2
SplineSet
64 640 m 1
 106 640 l 1
 106 -200 l 1
 64 -200 l 1
 64 640 l 1
EndSplineSet
EndChar

StartChar: section
Encoding: 167 167 101
GlifName: section
Width: 470
Flags: HMW
LayerCount: 3
Back
SplineSet
290 305 m 0
 395 200 449 120 449 -3 c 0
 449 -128 340 -240 220 -240 c 0
 163 -240 105 -220 60 -185 c 1
 108 -129 l 1
 110 -129 l 1
 140 -160 185 -192 240 -192 c 0
 300 -192 340 -147 340 -97 c 0
 340 -21 285 25 205 105 c 0
 100 210 46 290 46 413 c 0
 46 538 155 650 275 650 c 0
 332 650 390 630 435 595 c 1
 387 539 l 1
 385 539 l 1
 355 570 310 602 255 602 c 0
 195 602 155 557 155 507 c 0
 155 431 210 385 290 305 c 0
255 275 m 0
 171 355 113 415 113 505 c 1
 110 505 l 1
 97 475 89 445 89 415 c 0
 89 308 145 225 240 135 c 0
 324 55 382 -5 382 -95 c 1
 385 -95 l 1
 398 -65 406 -35 406 -5 c 0
 406 102 350 185 255 275 c 0
EndSplineSet
Fore
SplineSet
45 640 m 1
 445 640 l 1
 445 0 l 1
 45 0 l 1
 45 640 l 1
95 590 m 1
 95 50 l 1
 395 50 l 1
 395 590 l 1
 95 590 l 1
EndSplineSet
EndChar

StartChar: dieresis
Encoding: 168 168 102
GlifName: dieresis
Width: 255
Flags: HMW
AnchorPoint: "Top" 175 500 mark 0
LayerCount: 3
Back
SplineSet
5 560 m 0
 5 583 24 602 47 602 c 0
 70 602 89 583 89 560 c 0
 89 537 70 518 47 518 c 0
 24 518 5 537 5 560 c 0
166 560 m 0
 166 583 185 602 208 602 c 0
 231 602 250 583 250 560 c 0
 250 537 231 518 208 518 c 0
 185 518 166 537 166 560 c 0
EndSplineSet
Fore
SplineSet
216 553 m 0
 216 580 239 602 265 602 c 0
 285 602 300 587 300 567 c 0
 300 540 277 518 251 518 c 0
 231 518 216 533 216 553 c 0
55 553 m 0
 55 580 78 602 104 602 c 0
 124 602 139 587 139 567 c 0
 139 540 116 518 90 518 c 0
 70 518 55 533 55 553 c 0
EndSplineSet
Layer: 2
SplineSet
6 560 m 0
 10 583 32 602 55 602 c 0
 78 602 94 583 90 560 c 0
 86 537 64 518 41 518 c 0
 18 518 2 537 6 560 c 0
166 553 m 0
 166 580 191 603 215 603 c 0
 236 603 250 588 250 567 c 0
 250 540 225 517 201 517 c 0
 180 517 166 532 166 553 c 0
EndSplineSet
EndChar

StartChar: copyright
Encoding: 169 169 103
GlifName: copyright
Width: 710
Flags: HMW
LayerCount: 3
Back
SplineSet
25 320 m 0
 25 502 173 650 355 650 c 0
 537 650 685 502 685 320 c 0
 685 138 537 -10 355 -10 c 0
 173 -10 25 138 25 320 c 0
61 320 m 0
 61 158 193 26 355 26 c 0
 517 26 649 158 649 320 c 0
 649 482 517 614 355 614 c 0
 193 614 61 482 61 320 c 0
500 225 m 2
 510 252 l 1
 536 252 l 1
 500 132 l 1
 465 110 420 101 370 101 c 0
 245 101 135 183 135 317 c 0
 135 452 250 539 370 539 c 0
 420 539 468 528 505 507 c 1
 519 395 l 1
 493 395 l 1
 488 419 l 2
 483 442 473 461 460 474 c 0
 441 493 408 509 367 509 c 0
 270 509 200 438 200 330 c 0
 200 212 280 134 378 134 c 0
 450 134 479 169 500 225 c 2
EndSplineSet
Fore
SplineSet
25 320 m 0
 25 502 173 650 355 650 c 0
 537 650 685 502 685 320 c 0
 685 138 537 -10 355 -10 c 0
 173 -10 25 138 25 320 c 0
61 320 m 0
 61 158 193 26 355 26 c 0
 517 26 649 158 649 320 c 0
 649 482 517 614 355 614 c 0
 193 614 61 482 61 320 c 0
507 227 m 2
 519 252 l 1
 546 252 l 1
 500 132 l 1
 465 110 420 101 370 101 c 0
 245 101 135 183 135 317 c 0
 135 452 250 539 370 539 c 0
 420 539 468 528 505 507 c 1
 519 395 l 1
 493 395 l 1
 488 419 l 2
 483 442 473 461 460 474 c 0
 441 493 408 509 367 509 c 0
 270 509 200 438 200 330 c 0
 200 212 280 134 378 134 c 0
 450 134 480 170 507 227 c 2
EndSplineSet
EndChar

StartChar: ordfeminine
Encoding: 170 170 104
GlifName: ordfeminine
Width: 470
Flags: HMW
LayerCount: 3
Back
SplineSet
161 447 m 1
 161 500 l 1
 129 490 l 2
 92 478 81 462 81 442 c 0
 81 424 95 413 112 413 c 0
 127 413 145 422 161 447 c 1
130 650 m 0
 180 650 215 620 215 575 c 2
 215 430 l 2
 215 417 222 410 232 410 c 0
 245 410 254 417 260 430 c 1
 273 420 l 1
 261 392 240 371 213 371 c 0
 185 371 162 388 162 417 c 1
 163 421 l 1
 161 422 l 1
 140 390 112 371 82 371 c 0
 52 371 25 393 25 428 c 0
 25 460 40 487 123 513 c 2
 161 525 l 1
 161 568 l 2
 161 604 137 619 110 619 c 0
 104 619 95 617 90 614 c 1
 88 585 l 1
 35 572 l 1
 35 573 l 2
 35 605 77 650 130 650 c 0
EndSplineSet
Fore
SplineSet
45 640 m 1
 445 640 l 1
 445 0 l 1
 45 0 l 1
 45 640 l 1
95 590 m 1
 95 50 l 1
 395 50 l 1
 395 590 l 1
 95 590 l 1
EndSplineSet
EndChar

StartChar: guillemotleft
Encoding: 171 171 105
GlifName: guillemotleft
Width: 415
Flags: HMW
LayerCount: 3
Back
SplineSet
25 207 m 1
 25 213 l 1
 195 385 l 1
 220 375 l 1
 110 212 l 1
 110 210 l 1
 220 45 l 1
 195 35 l 1
 25 207 l 1
205 207 m 1
 205 213 l 1
 375 385 l 1
 400 375 l 1
 290 212 l 1
 290 210 l 1
 400 45 l 1
 375 35 l 1
 205 207 l 1
EndSplineSet
Fore
SplineSet
20 207 m 1
 20 213 l 1
 207 385 l 1
 228 370 l 1
 100 205 l 1
 100 203 l 1
 182 48 l 1
 159 35 l 1
 20 207 l 1
200 207 m 1
 200 213 l 1
 387 385 l 1
 408 370 l 1
 280 205 l 1
 280 203 l 1
 362 48 l 1
 339 35 l 1
 200 207 l 1
EndSplineSet
Layer: 2
SplineSet
390 213 m 1
 390 207 l 1
 203 35 l 1
 182 50 l 1
 310 215 l 1
 310 217 l 1
 228 372 l 1
 251 385 l 1
 390 213 l 1
210 213 m 1
 210 207 l 1
 23 35 l 1
 2 50 l 1
 130 215 l 1
 130 217 l 1
 48 372 l 1
 71 385 l 1
 210 213 l 1
EndSplineSet
EndChar

StartChar: logicalnot
Encoding: 172 172 106
GlifName: logicalnot
Width: 480
Flags: HMW
LayerCount: 3
Back
SplineSet
440 305 m 1
 440 90 l 1
 394 90 l 1
 394 259 l 1
 30 259 l 1
 30 305 l 1
 440 305 l 1
EndSplineSet
Fore
SplineSet
444 305 m 1
 406 90 l 1
 360 90 l 1
 390 259 l 1
 27 259 l 1
 35 305 l 1
 444 305 l 1
EndSplineSet
Layer: 2
SplineSet
458.955078125 305 m 1
 421.044921875 90 l 1
 375.044921875 90 l 1
 404.84375 259 l 1
 40.84375 259 l 1
 48.955078125 305 l 1
 458.955078125 305 l 1
EndSplineSet
EndChar

StartChar: uni00AD
Encoding: 173 173 107
GlifName: uni00A_D_
Width: 470
Flags: HMW
LayerCount: 3
Back
SplineSet
20 234 m 1
 215 234 l 1
 215 176 l 1
 20 176 l 1
 20 234 l 1
EndSplineSet
Fore
SplineSet
45 640 m 1
 445 640 l 1
 445 0 l 1
 45 0 l 1
 45 640 l 1
95 590 m 1
 95 50 l 1
 395 50 l 1
 395 590 l 1
 95 590 l 1
EndSplineSet
EndChar

StartChar: registered
Encoding: 174 174 108
GlifName: registered
Width: 470
Flags: HMW
LayerCount: 3
Back
SplineSet
25 320 m 0
 25 502 173 650 355 650 c 0
 537 650 685 502 685 320 c 0
 685 138 537 -10 355 -10 c 0
 173 -10 25 138 25 320 c 0
61 320 m 0
 61 158 193 26 355 26 c 0
 517 26 649 158 649 320 c 0
 649 482 517 614 355 614 c 0
 193 614 61 482 61 320 c 0
291 298 m 1
 291 147 l 1
 342 147 l 1
 342 120 l 1
 185 120 l 1
 185 147 l 1
 235 147 l 1
 235 503 l 1
 183 503 l 1
 183 530 l 1
 325 530 l 2
 420 530 479 487 479 419 c 0
 479 368 445 330 400 312 c 1
 400 310 l 1
 448 235 l 2
 499 155 525 145 560 145 c 2
 565 145 l 1
 565 129 l 1
 554 121 535 116 520 116 c 0
 475 116 438 142 385 233 c 2
 347 298 l 1
 291 298 l 1
307 504 m 2
 297 504 291 496 291 486 c 2
 291 326 l 1
 298 325 312 324 320 324 c 0
 385 324 421 359 421 414 c 0
 421 469 384 504 320 504 c 2
 307 504 l 2
EndSplineSet
Fore
SplineSet
45 640 m 1
 445 640 l 1
 445 0 l 1
 45 0 l 1
 45 640 l 1
95 590 m 1
 95 50 l 1
 395 50 l 1
 395 590 l 1
 95 590 l 1
EndSplineSet
EndChar

StartChar: macron
Encoding: 175 175 109
GlifName: macron
Width: 255
Flags: HMW
AnchorPoint: "Top" 180 500 mark 0
LayerCount: 3
Back
SplineSet
20 577 m 1
 235 577 l 1
 235 535 l 1
 20 535 l 1
 20 577 l 1
EndSplineSet
Fore
SplineSet
80 577 m 1
 291 577 l 1
 281 535 l 1
 70 535 l 1
 80 577 l 1
EndSplineSet
EndChar

StartChar: degree
Encoding: 176 176 110
GlifName: degree
Width: 470
Flags: HMW
LayerCount: 3
Back
SplineSet
20 550 m 0
 20 605 65 650 120 650 c 0
 175 650 220 605 220 550 c 0
 220 495 175 450 120 450 c 0
 65 450 20 495 20 550 c 0
50 550 m 0
 50 511 81 480 120 480 c 0
 159 480 190 511 190 550 c 0
 190 589 159 620 120 620 c 0
 81 620 50 589 50 550 c 0
EndSplineSet
Fore
SplineSet
45 640 m 1
 445 640 l 1
 445 0 l 1
 45 0 l 1
 45 640 l 1
95 590 m 1
 95 50 l 1
 395 50 l 1
 395 590 l 1
 95 590 l 1
EndSplineSet
EndChar

StartChar: plusminus
Encoding: 177 177 111
GlifName: plusminus
Width: 480
Flags: HMW
LayerCount: 3
Back
SplineSet
217 293 m 1
 217 405 l 1
 263 405 l 1
 263 293 l 1
 445 293 l 1
 445 247 l 1
 263 247 l 1
 263 130 l 1
 217 130 l 1
 217 247 l 1
 35 247 l 1
 35 293 l 1
 217 293 l 1
30 39 m 1
 30 85 l 1
 450 85 l 1
 450 39 l 1
 30 39 l 1
EndSplineSet
Fore
SplineSet
224 293 m 1
 243 405 l 1
 289 405 l 1
 270 293 l 1
 452 293 l 1
 444 247 l 1
 262 247 l 1
 241 130 l 1
 195 130 l 1
 216 247 l 1
 34 247 l 1
 42 293 l 1
 224 293 l 1
-8 39 m 1
 0 85 l 1
 420 85 l 1
 412 39 l 1
 -8 39 l 1
EndSplineSet
EndChar

StartChar: uni00B2
Encoding: 178 178 112
GlifName: uni00B_2
Width: 470
Flags: HMW
LayerCount: 3
Back
SplineSet
285 360 m 1
 20 360 l 1
 20 390 l 1
 150 495 182 535 182 597 c 0
 182 635 157 660 124 660 c 0
 95 660 72 643 57 623 c 1
 40 640 l 1
 63 680 102 712 150 712 c 0
 207 712 250 670 250 612 c 0
 250 557 220 515 127 440 c 2
 86 407 l 1
 87 404 l 1
 115 405 l 1
 240 405 l 2
 258 405 266 413 271 438 c 2
 274 453 l 1
 302 453 l 1
 285 360 l 1
EndSplineSet
Fore
SplineSet
45 640 m 1
 445 640 l 1
 445 0 l 1
 45 0 l 1
 45 640 l 1
95 590 m 1
 95 50 l 1
 395 50 l 1
 395 590 l 1
 95 590 l 1
EndSplineSet
EndChar

StartChar: uni00B3
Encoding: 179 179 113
GlifName: uni00B_3
Width: 470
Flags: HMW
LayerCount: 3
Back
SplineSet
95 520 m 1
 87 543 l 1
 150 568 180 593 180 628 c 0
 180 648 165 668 135 668 c 0
 112 668 93 658 74 639 c 1
 60 658 l 1
 88 693 125 713 165 713 c 0
 210 713 242 683 242 650 c 0
 242 615 219 588 185 569 c 1
 185 566 l 1
 242 560 273 523 273 478 c 0
 273 418 210 348 100 348 c 0
 75 348 45 353 25 363 c 1
 25 364 l 1
 60 408 l 1
 77 392 100 383 125 383 c 0
 180 383 210 418 210 463 c 0
 210 505 178 530 140 530 c 0
 125 530 107 525 95 520 c 1
EndSplineSet
Fore
SplineSet
45 640 m 1
 445 640 l 1
 445 0 l 1
 45 0 l 1
 45 640 l 1
95 590 m 1
 95 50 l 1
 395 50 l 1
 395 590 l 1
 95 590 l 1
EndSplineSet
EndChar

StartChar: acute
Encoding: 180 180 114
GlifName: acute
Width: 255
Flags: HMW
AnchorPoint: "Top" 160 500 mark 0
LayerCount: 3
Back
SplineSet
145 670 m 1
 210 647 l 1
 210 642 l 1
 77 477 l 1
 55 490 l 1
 145 670 l 1
EndSplineSet
Fore
SplineSet
220 670 m 1
 285 645 l 1
 285 640 l 1
 125 477 l 1
 105 492 l 1
 220 670 l 1
EndSplineSet
Layer: 2
SplineSet
193 670 m 1
 254 647 l 1
 253 642 l 1
 91 477 l 1
 71 490 l 1
 193 670 l 1
EndSplineSet
EndChar

StartChar: mu
Encoding: 181 181 115
GlifName: mu
Width: 470
Flags: HMW
LayerCount: 3
Back
SplineSet
415 415 m 1
 415 50 l 1
 483 58 l 1
 483 27 l 1
 360 -10 l 1
 345 -10 l 1
 350 64 l 1
 345 65 l 1
 308 20 250 -12 195 -12 c 0
 164 -12 140 0 124 21 c 1
 120 21 l 1
 128 -215 l 1
 52 -215 l 1
 65 -93 85 95 85 125 c 2
 85 328 l 1
 32 370 l 1
 32 378 l 1
 145 414 l 1
 155 414 l 1
 155 130 l 2
 155 70 185 40 235 40 c 0
 272 40 315 62 345 100 c 1
 345 328 l 1
 273 366 l 1
 273 374 l 1
 405 415 l 1
 415 415 l 1
EndSplineSet
Fore
SplineSet
45 640 m 1
 445 640 l 1
 445 0 l 1
 45 0 l 1
 45 640 l 1
95 590 m 1
 95 50 l 1
 395 50 l 1
 395 590 l 1
 95 590 l 1
EndSplineSet
EndChar

StartChar: paragraph
Encoding: 182 182 116
GlifName: paragraph
Width: 470
Flags: HMW
LayerCount: 3
Back
SplineSet
285 220 m 2
 135 220 35 305 35 430 c 0
 35 555 135 640 285 640 c 2
 450 640 l 1
 450 605 l 1
 375 605 l 1
 375 -55 l 2
 375 -165 316 -220 240 -220 c 0
 165 -220 120 -172 120 -125 c 0
 120 -90 145 -65 175 -65 c 0
 205 -65 230 -90 230 -120 c 0
 230 -142 215 -163 195 -170 c 1
 195 -172 l 1
 207 -180 223 -185 240 -185 c 0
 295 -185 330 -147 330 -58 c 2
 330 220 l 1
 285 220 l 2
330 605 m 1
 300 605 l 2
 205 605 150 535 150 430 c 0
 150 325 205 255 300 255 c 2
 330 255 l 1
 330 605 l 1
EndSplineSet
Fore
SplineSet
45 640 m 1
 445 640 l 1
 445 0 l 1
 45 0 l 1
 45 640 l 1
95 590 m 1
 95 50 l 1
 395 50 l 1
 395 590 l 1
 95 590 l 1
EndSplineSet
EndChar

StartChar: cedilla
Encoding: 184 184 117
GlifName: cedilla
Width: 470
Flags: HMW
LayerCount: 3
Back
SplineSet
162 23 m 1
 129 -50 l 1
 130 -52 l 1
 173 -57 205 -85 205 -122 c 0
 205 -185 142 -216 60 -216 c 2
 50 -216 l 1
 51 -191 l 1
 110 -191 151 -172 151 -135 c 0
 151 -109 125 -90 82 -90 c 2
 80 -90 l 1
 80 -84 l 1
 128 23 l 1
 162 23 l 1
EndSplineSet
Fore
SplineSet
45 640 m 1
 445 640 l 1
 445 0 l 1
 45 0 l 1
 45 640 l 1
95 590 m 1
 95 50 l 1
 395 50 l 1
 395 590 l 1
 95 590 l 1
EndSplineSet
EndChar

StartChar: uni00B9
Encoding: 185 185 118
GlifName: uni00B_9
Width: 470
Flags: HMW
LayerCount: 3
Back
SplineSet
65 680 m 1
 185 715 l 1
 195 715 l 1
 195 392 l 1
 265 392 l 1
 265 360 l 1
 63 360 l 1
 63 392 l 1
 135 392 l 1
 135 659 l 1
 65 652 l 1
 65 680 l 1
EndSplineSet
Fore
SplineSet
45 640 m 1
 445 640 l 1
 445 0 l 1
 45 0 l 1
 45 640 l 1
95 590 m 1
 95 50 l 1
 395 50 l 1
 395 590 l 1
 95 590 l 1
EndSplineSet
EndChar

StartChar: ordmasculine
Encoding: 186 186 119
GlifName: ordmasculine
Width: 470
Flags: HMW
LayerCount: 3
Back
SplineSet
20 510 m 0
 20 588 85 650 160 650 c 0
 235 650 300 588 300 510 c 0
 300 432 235 370 160 370 c 0
 85 370 20 432 20 510 c 0
85 516 m 0
 85 450 120 400 166 400 c 0
 209 400 235 448 235 504 c 0
 235 570 200 620 154 620 c 0
 111 620 85 572 85 516 c 0
EndSplineSet
Fore
SplineSet
45 640 m 1
 445 640 l 1
 445 0 l 1
 45 0 l 1
 45 640 l 1
95 590 m 1
 95 50 l 1
 395 50 l 1
 395 590 l 1
 95 590 l 1
EndSplineSet
EndChar

StartChar: guillemotright
Encoding: 187 187 120
GlifName: guillemotright
Width: 415
Flags: HMW
LayerCount: 3
Back
SplineSet
215 213 m 1
 215 207 l 1
 45 35 l 1
 20 45 l 1
 130 208 l 1
 130 210 l 1
 20 375 l 1
 45 385 l 1
 215 213 l 1
395 213 m 1
 395 207 l 1
 225 35 l 1
 200 45 l 1
 310 208 l 1
 310 210 l 1
 200 375 l 1
 225 385 l 1
 395 213 l 1
EndSplineSet
Fore
SplineSet
395 213 m 1
 395 207 l 1
 208 35 l 1
 187 50 l 1
 315 215 l 1
 315 217 l 1
 233 372 l 1
 256 385 l 1
 395 213 l 1
215 213 m 1
 215 207 l 1
 28 35 l 1
 7 50 l 1
 135 215 l 1
 135 217 l 1
 53 372 l 1
 76 385 l 1
 215 213 l 1
EndSplineSet
Layer: 2
SplineSet
235 213 m 1
 235 207 l 1
 45 35 l 1
 20 45 l 1
 155 208 l 1
 155 210 l 1
 70 375 l 1
 95 385 l 1
 235 213 l 1
415 213 m 1
 415 207 l 1
 225 35 l 1
 200 45 l 1
 335 208 l 1
 335 210 l 1
 250 375 l 1
 275 385 l 1
 415 213 l 1
256 213 m 1
 255 207 l 1
 52 35 l 1
 29 45 l 1
 170 208 l 1
 171 210 l 1
 93 375 l 1
 120 385 l 1
 256 213 l 1
436 213 m 1
 435 207 l 1
 232 35 l 1
 209 45 l 1
 350 208 l 1
 351 210 l 1
 273 375 l 1
 300 385 l 1
 436 213 l 1
EndSplineSet
EndChar

StartChar: onequarter
Encoding: 188 188 121
GlifName: onequarter
Width: 470
Flags: HMW
LayerCount: 3
Back
SplineSet
75 620 m 1
 195 655 l 1
 205 655 l 1
 205 332 l 1
 275 332 l 1
 275 300 l 1
 73 300 l 1
 73 332 l 1
 145 332 l 1
 145 599 l 1
 75 592 l 1
 75 620 l 1
617 665 m 1
 665 665 l 1
 183 -25 l 1
 135 -25 l 1
 617 665 l 1
595 0 m 1
 595 95 l 1
 435 95 l 1
 435 125 l 1
 627 360 l 1
 650 360 l 1
 650 140 l 1
 720 140 l 1
 720 95 l 1
 650 95 l 1
 650 0 l 1
 595 0 l 1
595 140 m 1
 595 267 l 1
 593 267 l 1
 490 142 l 1
 490 140 l 1
 595 140 l 1
EndSplineSet
Fore
SplineSet
45 640 m 1
 445 640 l 1
 445 0 l 1
 45 0 l 1
 45 640 l 1
95 590 m 1
 95 50 l 1
 395 50 l 1
 395 590 l 1
 95 590 l 1
EndSplineSet
EndChar

StartChar: onehalf
Encoding: 189 189 122
GlifName: onehalf
Width: 470
Flags: HMW
LayerCount: 3
Back
SplineSet
715 0 m 1
 455 0 l 1
 455 30 l 1
 585 135 617 175 617 237 c 0
 617 275 592 300 559 300 c 0
 530 300 507 283 492 263 c 1
 475 280 l 1
 498 320 537 352 585 352 c 0
 642 352 685 310 685 252 c 0
 685 197 655 155 562 80 c 2
 521 47 l 1
 522 44 l 1
 550 45 l 1
 670 45 l 2
 688 45 696 53 701 78 c 2
 704 93 l 1
 732 93 l 1
 715 0 l 1
75 620 m 1
 195 655 l 1
 205 655 l 1
 205 332 l 1
 275 332 l 1
 275 300 l 1
 73 300 l 1
 73 332 l 1
 145 332 l 1
 145 599 l 1
 75 592 l 1
 75 620 l 1
617 665 m 1
 665 665 l 1
 183 -25 l 1
 135 -25 l 1
 617 665 l 1
EndSplineSet
Fore
SplineSet
45 640 m 1
 445 640 l 1
 445 0 l 1
 45 0 l 1
 45 640 l 1
95 590 m 1
 95 50 l 1
 395 50 l 1
 395 590 l 1
 95 590 l 1
EndSplineSet
EndChar

StartChar: threequarters
Encoding: 190 190 123
GlifName: threequarters
Width: 470
Flags: HMW
LayerCount: 3
Back
SplineSet
115 460 m 1
 107 483 l 1
 170 508 200 533 200 568 c 0
 200 588 185 608 155 608 c 0
 132 608 113 598 94 579 c 1
 80 598 l 1
 108 633 145 653 185 653 c 0
 230 653 262 623 262 590 c 0
 262 555 239 528 205 509 c 1
 205 506 l 1
 262 500 293 463 293 418 c 0
 293 358 230 288 120 288 c 0
 95 288 65 293 45 303 c 1
 45 304 l 1
 80 348 l 1
 97 332 120 323 145 323 c 0
 200 323 230 358 230 403 c 0
 230 445 198 470 160 470 c 0
 145 470 127 465 115 460 c 1
617 665 m 1
 665 665 l 1
 183 -25 l 1
 135 -25 l 1
 617 665 l 1
595 0 m 1
 595 95 l 1
 435 95 l 1
 435 125 l 1
 627 360 l 1
 650 360 l 1
 650 140 l 1
 720 140 l 1
 720 95 l 1
 650 95 l 1
 650 0 l 1
 595 0 l 1
595 140 m 1
 595 267 l 1
 593 267 l 1
 490 142 l 1
 490 140 l 1
 595 140 l 1
EndSplineSet
Fore
SplineSet
45 640 m 1
 445 640 l 1
 445 0 l 1
 45 0 l 1
 45 640 l 1
95 590 m 1
 95 50 l 1
 395 50 l 1
 395 590 l 1
 95 590 l 1
EndSplineSet
EndChar

StartChar: questiondown
Encoding: 191 191 124
GlifName: questiondown
Width: 470
Flags: HMW
LayerCount: 3
Back
SplineSet
256 363 m 0
 256 338 235 317 210 317 c 0
 185 317 164 338 164 363 c 0
 164 388 185 409 210 409 c 0
 235 409 256 388 256 363 c 0
63 -37 m 0
 63 -115 135 -148 230 -150 c 1
 230 -263 l 1
 202 -263 l 1
 202 -259 l 2
 202 -232 189 -232 149 -212 c 0
 73 -175 28 -120 28 -35 c 0
 28 47 71 104 145 140 c 0
 185 160 195 165 195 195 c 2
 195 225 l 1
 225 225 l 1
 225 80 l 1
 135 77 63 45 63 -37 c 0
EndSplineSet
Fore
SplineSet
45 640 m 1
 445 640 l 1
 445 0 l 1
 45 0 l 1
 45 640 l 1
95 590 m 1
 95 50 l 1
 395 50 l 1
 395 590 l 1
 95 590 l 1
EndSplineSet
EndChar

StartChar: Agrave
Encoding: 192 192 125
GlifName: A_grave
Width: 630
Flags: HMW
LayerCount: 3
Back
Refer: 398 -1 N 1 0 0 1 170 0 2
Refer: 42 65 N 1 0 0 1 0 0 3
Fore
SplineSet
45 640 m 1
 445 640 l 1
 445 0 l 1
 45 0 l 1
 45 640 l 1
95 590 m 1
 95 50 l 1
 395 50 l 1
 395 590 l 1
 95 590 l 1
EndSplineSet
Substitution2: "'salt' Stylistic Alternatives in Latin lookup 2-1" Agrave.alt
EndChar

StartChar: Aacute
Encoding: 193 193 126
GlifName: A_acute
Width: 630
Flags: HMW
LayerCount: 3
Back
Refer: 401 -1 N 1 0 0 1 230 0 2
Refer: 42 65 N 1 0 0 1 0 0 3
Fore
SplineSet
45 640 m 1
 445 640 l 1
 445 0 l 1
 45 0 l 1
 45 640 l 1
95 590 m 1
 95 50 l 1
 395 50 l 1
 395 590 l 1
 95 590 l 1
EndSplineSet
Substitution2: "'salt' Stylistic Alternatives in Latin lookup 2-1" Aacute.alt
EndChar

StartChar: Acircumflex
Encoding: 194 194 127
GlifName: A_circumflex
Width: 630
Flags: HMW
LayerCount: 3
Back
Refer: 403 -1 N 1 0 0 1 200 0 2
Refer: 42 65 N 1 0 0 1 0 0 3
Fore
SplineSet
45 640 m 1
 445 640 l 1
 445 0 l 1
 45 0 l 1
 45 640 l 1
95 590 m 1
 95 50 l 1
 395 50 l 1
 395 590 l 1
 95 590 l 1
EndSplineSet
Substitution2: "'salt' Stylistic Alternatives in Latin lookup 2-1" Acircumflex.alt
EndChar

StartChar: Atilde
Encoding: 195 195 128
GlifName: A_tilde
Width: 630
Flags: HMW
LayerCount: 3
Back
Refer: 409 -1 N 1 0 0 1 200 0 2
Refer: 42 65 N 1 0 0 1 0 0 3
Fore
SplineSet
45 640 m 1
 445 640 l 1
 445 0 l 1
 45 0 l 1
 45 640 l 1
95 590 m 1
 95 50 l 1
 395 50 l 1
 395 590 l 1
 95 590 l 1
EndSplineSet
Substitution2: "'salt' Stylistic Alternatives in Latin lookup 2-1" Atilde.alt
EndChar

StartChar: Adieresis
Encoding: 196 196 129
GlifName: A_dieresis
Width: 630
Flags: HMW
LayerCount: 3
Back
Refer: 399 -1 N 1 0 0 1 200 0 2
Refer: 42 65 N 1 0 0 1 0 0 3
Fore
SplineSet
45 640 m 1
 445 640 l 1
 445 0 l 1
 45 0 l 1
 45 640 l 1
95 590 m 1
 95 50 l 1
 395 50 l 1
 395 590 l 1
 95 590 l 1
EndSplineSet
Substitution2: "'salt' Stylistic Alternatives in Latin lookup 2-1" Adieresis.alt
EndChar

StartChar: Aring
Encoding: 197 197 130
GlifName: A_ring
Width: 630
Flags: HMW
LayerCount: 3
Back
Refer: 407 -1 N 1 0 0 1 200 0 2
Refer: 42 65 N 1 0 0 1 0 0 3
Fore
SplineSet
45 640 m 1
 445 640 l 1
 445 0 l 1
 45 0 l 1
 45 640 l 1
95 590 m 1
 95 50 l 1
 395 50 l 1
 395 590 l 1
 95 590 l 1
EndSplineSet
Substitution2: "'salt' Stylistic Alternatives in Latin lookup 2-1" Aring.alt
EndChar

StartChar: AE
Encoding: 198 198 131
GlifName: A_E_
Width: 890
Flags: HMW
LayerCount: 3
Back
SplineSet
379 605 m 1
 222 322 l 1
 380 322 l 1
 380 545 l 1
 382 605 l 1
 379 605 l 1
277 640 m 1
 745 640 l 1
 750 490 l 1
 721 490 l 1
 717 524 l 2
 709 590 687 604 645 604 c 2
 460 604 l 1
 460 322 l 1
 655 322 l 1
 655 390 l 1
 685 390 l 1
 685 305 l 1
 685 210 l 1
 655 210 l 1
 655 285 l 1
 460 285 l 1
 460 68 l 2
 460 48 470 38 490 38 c 2
 645 38 l 2
 705 38 733 62 757 147 c 2
 765 175 l 1
 795 175 l 1
 760 0 l 1
 310 0 l 1
 310 31 l 1
 380 31 l 1
 380 285 l 1
 201 285 l 1
 87 80 l 1
 69 31 l 1
 140 31 l 1
 140 0 l 1
 -25 0 l 1
 -25 31 l 1
 13 31 l 1
 339 609 l 1
 277 609 l 1
 277 640 l 1
EndSplineSet
Fore
SplineSet
542 283 m 1
 501 65 l 2
 498 47 505 38 524 38 c 2
 685 38 l 2
 755 38 786 60 822 120 c 2
 840 150 l 1
 871 150 l 1
 800 0 l 1
 341 0 l 1
 341 32 l 1
 416 32 l 1
 464 283 l 1
 252 283 l 1
 88 90 l 1
 47 32 l 1
 115 32 l 1
 115 0 l 1
 -65 0 l 1
 -65 32 l 1
 -14 32 l 1
 476 607 l 1
 476 608 l 1
 414 608 l 1
 414 640 l 1
 885 640 l 1
 859 485 l 1
 830 485 l 1
 833 542 l 2
 835 588 817 604 777 604 c 2
 603 604 l 1
 549 320 l 1
 745 320 l 1
 757 390 l 1
 788 390 l 1
 760 210 l 1
 729 210 l 1
 740 283 l 1
 542 283 l 1
471 320 m 1
 512 535 l 1
 528 605 l 1
 525 605 l 1
 283 320 l 1
 471 320 l 1
EndSplineSet
Substitution2: "'c2sc' Capitals to Small Capitals in Latin lookup 9-1" ae.smcp
EndChar

StartChar: Ccedilla
Encoding: 199 199 132
GlifName: C_cedilla
Width: 470
Flags: HMW
LayerCount: 3
Back
SplineSet
585 138 m 2
 605 185 l 1
 635 185 l 1
 584 30 l 1
 531 3 459 -12 395 -14 c 1
 379 -50 l 1
 380 -52 l 1
 425 -58 459 -85 459 -126 c 0
 459 -193 390 -224 306 -224 c 2
 296 -224 l 1
 297 -198 l 1
 358 -198 402 -179 402 -138 c 0
 402 -111 374 -92 330 -92 c 2
 328 -92 l 1
 328 -86 l 1
 360 -13 l 1
 167 -2 35 133 35 320 c 0
 35 515 198 654 385 654 c 0
 455 654 532 637 588 607 c 1
 610 460 l 1
 580 460 l 1
 573 490 l 2
 566 520 552 548 535 565 c 0
 505 595 452 618 377 618 c 0
 240 618 129 505 129 335 c 0
 129 152 235 25 390 25 c 0
 505 25 557 72 585 138 c 2
EndSplineSet
Fore
SplineSet
45 640 m 1
 445 640 l 1
 445 0 l 1
 45 0 l 1
 45 640 l 1
95 590 m 1
 95 50 l 1
 395 50 l 1
 395 590 l 1
 95 590 l 1
EndSplineSet
EndChar

StartChar: Egrave
Encoding: 200 200 133
GlifName: E_grave
Width: 540
Flags: HMW
LayerCount: 3
Back
Refer: 398 -1 N 1 0 0 1 128 0 2
Refer: 46 69 N 1 0 0 1 0 0 3
Fore
SplineSet
45 640 m 1
 445 640 l 1
 445 0 l 1
 45 0 l 1
 45 640 l 1
95 590 m 1
 95 50 l 1
 395 50 l 1
 395 590 l 1
 95 590 l 1
EndSplineSet
EndChar

StartChar: Eacute
Encoding: 201 201 134
GlifName: E_acute
Width: 540
Flags: HMW
LayerCount: 3
Back
Refer: 401 -1 N 1 0 0 1 188 0 2
Refer: 46 69 N 1 0 0 1 0 0 3
Fore
SplineSet
45 640 m 1
 445 640 l 1
 445 0 l 1
 45 0 l 1
 45 640 l 1
95 590 m 1
 95 50 l 1
 395 50 l 1
 395 590 l 1
 95 590 l 1
EndSplineSet
EndChar

StartChar: Ecircumflex
Encoding: 202 202 135
GlifName: E_circumflex
Width: 540
Flags: HMW
LayerCount: 3
Back
Refer: 403 -1 N 1 0 0 1 158 0 2
Refer: 46 69 N 1 0 0 1 0 0 3
Fore
SplineSet
45 640 m 1
 445 640 l 1
 445 0 l 1
 45 0 l 1
 45 640 l 1
95 590 m 1
 95 50 l 1
 395 50 l 1
 395 590 l 1
 95 590 l 1
EndSplineSet
EndChar

StartChar: Edieresis
Encoding: 203 203 136
GlifName: E_dieresis
Width: 540
Flags: HMW
LayerCount: 3
Back
Refer: 399 -1 N 1 0 0 1 158 0 2
Refer: 46 69 N 1 0 0 1 0 0 3
Fore
SplineSet
45 640 m 1
 445 640 l 1
 445 0 l 1
 45 0 l 1
 45 640 l 1
95 590 m 1
 95 50 l 1
 395 50 l 1
 395 590 l 1
 95 590 l 1
EndSplineSet
EndChar

StartChar: Igrave
Encoding: 204 204 137
GlifName: I_grave
Width: 278
Flags: HMW
LayerCount: 3
Back
Refer: 398 -1 N 1 0 0 1 3 0 2
Refer: 50 73 N 1 0 0 1 0 0 3
Fore
SplineSet
45 640 m 1
 445 640 l 1
 445 0 l 1
 45 0 l 1
 45 640 l 1
95 590 m 1
 95 50 l 1
 395 50 l 1
 395 590 l 1
 95 590 l 1
EndSplineSet
EndChar

StartChar: Iacute
Encoding: 205 205 138
GlifName: I_acute
Width: 278
Flags: HMW
LayerCount: 3
Back
Refer: 401 -1 N 1 0 0 1 63 0 2
Refer: 50 73 N 1 0 0 1 0 0 3
Fore
SplineSet
45 640 m 1
 445 640 l 1
 445 0 l 1
 45 0 l 1
 45 640 l 1
95 590 m 1
 95 50 l 1
 395 50 l 1
 395 590 l 1
 95 590 l 1
EndSplineSet
EndChar

StartChar: Icircumflex
Encoding: 206 206 139
GlifName: I_circumflex
Width: 278
Flags: HMW
LayerCount: 3
Back
SplineSet
148 867 m 1
 173 867 l 1
 279 719 l 1
 263 702 l 1
 162 794 l 1
 159 794 l 1
 58 702 l 1
 42 719 l 1
 148 867 l 1
EndSplineSet
Refer: 50 73 N 1 0 0 1 0 0 3
Fore
SplineSet
45 640 m 1
 445 640 l 1
 445 0 l 1
 45 0 l 1
 45 640 l 1
95 590 m 1
 95 50 l 1
 395 50 l 1
 395 590 l 1
 95 590 l 1
EndSplineSet
EndChar

StartChar: Idieresis
Encoding: 207 207 140
GlifName: I_dieresis
Width: 278
Flags: HMW
LayerCount: 3
Back
SplineSet
39 775 m 0
 39 799 59 819 83 819 c 0
 107 819 127 799 127 775 c 0
 127 751 107 731 83 731 c 0
 59 731 39 751 39 775 c 0
193 775 m 0
 193 799 213 819 237 819 c 0
 261 819 281 799 281 775 c 0
 281 751 261 731 237 731 c 0
 213 731 193 751 193 775 c 0
EndSplineSet
Refer: 50 73 N 1 0 0 1 0 0 3
Fore
SplineSet
45 640 m 1
 445 640 l 1
 445 0 l 1
 45 0 l 1
 45 640 l 1
95 590 m 1
 95 50 l 1
 395 50 l 1
 395 590 l 1
 95 590 l 1
EndSplineSet
EndChar

StartChar: Eth
Encoding: 208 208 141
GlifName: E_th
Width: 680
Flags: HMW
LayerCount: 3
Back
SplineSet
315 642 m 17
 522 642 689 530 689 332 c 0
 689 140 545 0 325 0 c 2
 40 0 l 1
 40 31 l 1
 115 31 l 1
 115 315 l 1
 47 315 l 1
 47 350 l 1
 115 350 l 1
 115 609 l 1
 40 609 l 1
 40 640 l 1
 315 642 l 17
305 605 m 2
 195 605 l 1
 195 350 l 1
 325 350 l 1
 325 315 l 1
 195 315 l 1
 195 80 l 2
 195 52 210 38 240 38 c 2
 322 38 l 2
 494 38 597 150 597 320 c 0
 597 505 479 605 305 605 c 2
EndSplineSet
Fore
SplineSet
295 603 m 2
 252 603 l 1
 198 350 l 1
 320 350 l 1
 320 315 l 1
 190 315 l 1
 140 79 l 2
 134 52 143 39 175 39 c 2
 250 39 l 2
 447 39 585 169 585 355 c 0
 585 521 467 603 295 603 c 2
310 640 m 2
 525 640 675 542 675 362 c 0
 675 150 475 0 253 0 c 2
 -18 0 l 1
 -18 32 l 1
 50 32 l 1
 111 315 l 1
 45 315 l 1
 45 350 l 1
 118 350 l 1
 174 608 l 1
 94 608 l 1
 94 640 l 1
 310 640 l 2
EndSplineSet
Substitution2: "'c2sc' Capitals to Small Capitals in Latin lookup 9-1" eth.smcp
EndChar

StartChar: Ntilde
Encoding: 209 209 142
GlifName: N_tilde
Width: 720
Flags: HMW
LayerCount: 3
Back
Refer: 409 -1 N 1 0 0 1 250 0 2
Refer: 55 78 N 1 0 0 1 0 0 3
Fore
SplineSet
45 640 m 1
 445 640 l 1
 445 0 l 1
 45 0 l 1
 45 640 l 1
95 590 m 1
 95 50 l 1
 395 50 l 1
 395 590 l 1
 95 590 l 1
EndSplineSet
EndChar

StartChar: Ograve
Encoding: 210 210 143
GlifName: O_grave
Width: 680
Flags: HMW
LayerCount: 3
Back
Refer: 398 -1 N 1 0 0 1 217 0 2
Refer: 56 79 N 1 0 0 1 0 0 3
Fore
SplineSet
45 640 m 1
 445 640 l 1
 445 0 l 1
 45 0 l 1
 45 640 l 1
95 590 m 1
 95 50 l 1
 395 50 l 1
 395 590 l 1
 95 590 l 1
EndSplineSet
EndChar

StartChar: Oacute
Encoding: 211 211 144
GlifName: O_acute
Width: 680
Flags: HMW
LayerCount: 3
Back
Refer: 401 -1 N 1 0 0 1 277 0 2
Refer: 56 79 N 1 0 0 1 0 0 3
Fore
SplineSet
45 640 m 1
 445 640 l 1
 445 0 l 1
 45 0 l 1
 45 640 l 1
95 590 m 1
 95 50 l 1
 395 50 l 1
 395 590 l 1
 95 590 l 1
EndSplineSet
EndChar

StartChar: Ocircumflex
Encoding: 212 212 145
GlifName: O_circumflex
Width: 680
Flags: HMW
LayerCount: 3
Back
Refer: 403 -1 N 1 0 0 1 247 0 2
Refer: 56 79 N 1 0 0 1 0 0 3
Fore
SplineSet
45 640 m 1
 445 640 l 1
 445 0 l 1
 45 0 l 1
 45 640 l 1
95 590 m 1
 95 50 l 1
 395 50 l 1
 395 590 l 1
 95 590 l 1
EndSplineSet
EndChar

StartChar: Otilde
Encoding: 213 213 146
GlifName: O_tilde
Width: 680
Flags: HMW
LayerCount: 3
Back
Refer: 409 -1 N 1 0 0 1 247 0 2
Refer: 56 79 N 1 0 0 1 0 0 3
Fore
SplineSet
45 640 m 1
 445 640 l 1
 445 0 l 1
 45 0 l 1
 45 640 l 1
95 590 m 1
 95 50 l 1
 395 50 l 1
 395 590 l 1
 95 590 l 1
EndSplineSet
EndChar

StartChar: Odieresis
Encoding: 214 214 147
GlifName: O_dieresis
Width: 680
Flags: HMW
LayerCount: 3
Back
Refer: 399 -1 N 1 0 0 1 247 0 2
Refer: 56 79 N 1 0 0 1 0 0 3
Fore
SplineSet
45 640 m 1
 445 640 l 1
 445 0 l 1
 45 0 l 1
 45 640 l 1
95 590 m 1
 95 50 l 1
 395 50 l 1
 395 590 l 1
 95 590 l 1
EndSplineSet
EndChar

StartChar: multiply
Encoding: 215 215 148
GlifName: multiply
Width: 480
Flags: HMW
LayerCount: 3
Back
SplineSet
410 70 m 1
 375 38 l 1
 76 370 l 1
 111 402 l 1
 410 70 l 1
403 402 m 1
 433 369 l 1
 75 38 l 1
 45 71 l 1
 403 402 l 1
240 252 m 1
 390 402 l 1
 422 370 l 1
 272 220 l 1
 422 70 l 1
 390 38 l 1
 240 188 l 1
 90 38 l 1
 58 70 l 1
 208 220 l 1
 58 370 l 1
 90 402 l 1
 240 252 l 1
EndSplineSet
Fore
SplineSet
403 402 m 1
 433 369 l 1
 274 222 l 1
 410 70 l 1
 375 38 l 1
 239 189 l 1
 75 38 l 1
 45 71 l 1
 209 222 l 1
 76 370 l 1
 111 402 l 1
 244 255 l 1
 403 402 l 1
EndSplineSet
Layer: 2
SplineSet
402.737304688 76.0224609375 m 1
 368.47265625 45.3310546875 l 1
 88.24609375 358.176757812 l 1
 122.509765625 388.869140625 l 1
 402.737304688 76.0224609375 l 1
379.338867188 380.657226562 m 1
 410.522460938 346.840820312 l 1
 101.763671875 62.1171875 l 1
 70.5791015625 95.93359375 l 1
 379.338867188 380.657226562 l 1
246 252 m 1
 422 402 l 1
 448 370 l 1
 272 220 l 1
 396 70 l 1
 358 38 l 1
 234 188 l 1
 58 38 l 1
 32 70 l 1
 208 220 l 1
 84 370 l 1
 122 402 l 1
 246 252 l 1
EndSplineSet
EndChar

StartChar: Oslash
Encoding: 216 216 149
GlifName: O_slash
Width: 680
Flags: HMW
LayerCount: 3
Back
SplineSet
538 531 m 1
 493 586 432 618 360 618 c 0
 225 618 129 497 129 335 c 0
 129 257 148 192 179 140 c 1
 181 140 l 1
 538 531 l 1
561 501 m 1
 559 501 l 1
 202 109 l 1
 247 55 308 23 380 23 c 0
 515 23 611 143 611 305 c 0
 611 383 592 449 561 501 c 1
650 654 m 1
 677 630 l 1
 608 555 l 1
 668 495 705 413 705 320 c 0
 705 133 557 -14 370 -14 c 0
 289 -14 216 13 158 60 c 1
 157 60 l 1
 90 -14 l 1
 63 10 l 1
 131 84 l 1
 131 85 l 1
 72 145 35 227 35 320 c 0
 35 507 183 654 370 654 c 0
 451 654 524 627 582 579 c 1
 650 654 l 1
EndSplineSet
Fore
SplineSet
30 245 m 0
 30 445 205 654 410 654 c 0
 481 654 540 631 581 592 c 1
 583 592 l 1
 645 654 l 1
 671 628 l 1
 607 564 l 1
 641 520 660 462 660 395 c 0
 660 195 485 -14 280 -14 c 0
 203 -14 141 13 99 58 c 1
 97 58 l 1
 25 -14 l 1
 -1 12 l 1
 75 87 l 1
 46 130 30 184 30 245 c 0
155 115 m 1
 186 56 236 24 298 24 c 0
 448 24 567 195 567 375 c 0
 567 424 559 467 547 503 c 1
 545 503 l 1
 155 115 l 1
138 152 m 1
 140 152 l 1
 528 538 l 1
 497 589 449 617 392 617 c 0
 242 617 123 445 123 265 c 0
 123 222 129 184 138 152 c 1
EndSplineSet
Substitution2: "'c2sc' Capitals to Small Capitals in Latin lookup 9-1" oslash.smcp
EndChar

StartChar: Ugrave
Encoding: 217 217 150
GlifName: U_grave
Width: 650
Flags: HMW
LayerCount: 3
Back
Refer: 398 -1 N 1 0 0 1 218 0 2
Refer: 62 85 N 1 0 0 1 0 0 3
Fore
SplineSet
45 640 m 1
 445 640 l 1
 445 0 l 1
 45 0 l 1
 45 640 l 1
95 590 m 1
 95 50 l 1
 395 50 l 1
 395 590 l 1
 95 590 l 1
EndSplineSet
EndChar

StartChar: Uacute
Encoding: 218 218 151
GlifName: U_acute
Width: 650
Flags: HMW
LayerCount: 3
Back
Refer: 401 -1 N 1 0 0 1 278 0 2
Refer: 62 85 N 1 0 0 1 0 0 3
Fore
SplineSet
45 640 m 1
 445 640 l 1
 445 0 l 1
 45 0 l 1
 45 640 l 1
95 590 m 1
 95 50 l 1
 395 50 l 1
 395 590 l 1
 95 590 l 1
EndSplineSet
EndChar

StartChar: Ucircumflex
Encoding: 219 219 152
GlifName: U_circumflex
Width: 650
Flags: HMW
LayerCount: 3
Back
Refer: 403 -1 N 1 0 0 1 248 0 2
Refer: 62 85 N 1 0 0 1 0 0 3
Fore
SplineSet
45 640 m 1
 445 640 l 1
 445 0 l 1
 45 0 l 1
 45 640 l 1
95 590 m 1
 95 50 l 1
 395 50 l 1
 395 590 l 1
 95 590 l 1
EndSplineSet
EndChar

StartChar: Udieresis
Encoding: 220 220 153
GlifName: U_dieresis
Width: 650
Flags: HMW
LayerCount: 3
Back
Refer: 399 -1 N 1 0 0 1 248 0 2
Refer: 62 85 N 1 0 0 1 0 0 3
Fore
SplineSet
45 640 m 1
 445 640 l 1
 445 0 l 1
 45 0 l 1
 45 640 l 1
95 590 m 1
 95 50 l 1
 395 50 l 1
 395 590 l 1
 95 590 l 1
EndSplineSet
EndChar

StartChar: Yacute
Encoding: 221 221 154
GlifName: Y_acute
Width: 495
Flags: HMW
LayerCount: 3
Back
Refer: 401 -1 N 1 0 0 1 208 0 2
Refer: 66 89 N 1 0 0 1 0 0 3
Fore
SplineSet
45 640 m 1
 445 640 l 1
 445 0 l 1
 45 0 l 1
 45 640 l 1
95 590 m 1
 95 50 l 1
 395 50 l 1
 395 590 l 1
 95 590 l 1
EndSplineSet
EndChar

StartChar: Thorn
Encoding: 222 222 155
GlifName: T_horn
Width: 495
Flags: HMW
LayerCount: 3
Back
SplineSet
30 609 m 1
 30 640 l 1
 260 640 l 1
 260 609 l 1
 185 609 l 1
 185 520 l 1
 245 520 l 2
 385 520 489 455 489 345 c 0
 489 210 368 143 233 143 c 0
 228 143 220 144 215 145 c 1
 215 177 l 1
 235 177 l 2
 330 177 400 230 400 330 c 0
 400 430 340 485 235 485 c 2
 210 485 l 2
 192 485 185 478 185 460 c 2
 185 31 l 1
 263 31 l 1
 263 0 l 1
 30 0 l 1
 30 31 l 1
 105 31 l 1
 105 609 l 1
 30 609 l 1
EndSplineSet
Fore
SplineSet
79 608 m 1
 79 640 l 1
 314 640 l 1
 314 608 l 1
 240 608 l 1
 223 515 l 1
 275 515 l 2
 410 515 500 453 500 357 c 0
 500 225 381 153 230 153 c 0
 222 153 207 154 200 155 c 1
 200 185 l 1
 220 185 l 2
 335 185 410 250 410 345 c 0
 410 430 355 481 263 481 c 0
 230 481 216 475 212 455 c 2
 135 32 l 1
 216 32 l 1
 216 0 l 1
 -18 0 l 1
 -18 32 l 1
 55 32 l 1
 160 608 l 1
 79 608 l 1
EndSplineSet
Substitution2: "'c2sc' Capitals to Small Capitals in Latin lookup 9-1" thorn.smcp
EndChar

StartChar: germandbls
Encoding: 223 223 156
GlifName: germandbls
Width: 430
Flags: HMW
LayerCount: 3
Back
SplineSet
382 560 m 0
 382 610 345 650 287 650 c 0
 217 650 162 604 162 480 c 2
 162 32 l 1
 207 32 l 1
 207 0 l 1
 32 0 l 1
 32 32 l 1
 92 32 l 1
 92 357 l 1
 35 357 l 1
 35 378 l 1
 92 404 l 1
 92 435 l 2
 92 595 207 695 307 695 c 0
 382 695 447 645 447 575 c 0
 447 515 412 480 362 435 c 0
 327 404 307 385 307 355 c 0
 307 322 336 300 392 255 c 0
 464 198 489 165 489 115 c 0
 489 43 427 -13 347 -13 c 0
 312 -13 274 -3 249 14 c 1
 239 105 l 1
 268 105 l 1
 270 93 l 2
 278 45 309 20 357 20 c 0
 399 20 424 48 424 85 c 0
 424 120 404 145 332 200 c 0
 270 247 242 280 242 325 c 0
 242 370 273 392 332 450 c 0
 367 485 382 518 382 560 c 0
EndSplineSet
Fore
SplineSet
110 415 m 1
 130 505 166 581 219 634 c 0
 259 674 305 698 350 698 c 3
 410 698 465 652 465 595 c 3
 465 545 435 512 380 457 c 0
 340 417 315 387 315 345 c 3
 315 275 411 202 411 120 c 0
 411 45 346 -13 268 -13 c 0
 235 -13 203 -3 185 14 c 1
 215 73 l 1
 217 73 l 1
 242 52 274 35 306 35 c 0
 332 35 354 56 354 82 c 0
 354 150 260 230 260 320 c 3
 260 430 400 470 400 575 c 3
 400 615 370 650 325 650 c 0
 255 650 213 580 177 426 c 2
 80 5 l 2
 36 -185 -55 -261 -155 -261 c 0
 -172 -261 -198 -257 -215 -250 c 1
 -190 -190 l 1
 -188 -190 l 1
 -168 -201 -137 -208 -115 -208 c 0
 -60 -208 -23 -175 10 -28 c 2
 110 415 l 1
EndSplineSet
EndChar

StartChar: acircumflex
Encoding: 226 226 159
GlifName: acircumflex
Width: 430
Flags: HMW
LayerCount: 3
Back
Refer: 376 710 N 1 0 0 1 70 0 2
Refer: 6 97 N 1 0 0 1 0 0 3
Fore
SplineSet
45 640 m 1
 445 640 l 1
 445 0 l 1
 45 0 l 1
 45 640 l 1
95 590 m 1
 95 50 l 1
 395 50 l 1
 395 590 l 1
 95 590 l 1
EndSplineSet
EndChar

StartChar: atilde
Encoding: 227 227 160
GlifName: atilde
Width: 430
Flags: HMW
LayerCount: 3
Back
Refer: 369 732 N 1 0 0 1 70 0 2
Refer: 6 97 N 1 0 0 1 0 0 3
Fore
SplineSet
45 640 m 1
 445 640 l 1
 445 0 l 1
 45 0 l 1
 45 640 l 1
95 590 m 1
 95 50 l 1
 395 50 l 1
 395 590 l 1
 95 590 l 1
EndSplineSet
EndChar

StartChar: aring
Encoding: 229 229 162
GlifName: aring
Width: 430
Flags: HMW
LayerCount: 3
Back
Refer: 371 730 N 1 0 0 1 72 0 2
Refer: 6 97 N 1 0 0 1 0 0 3
Fore
SplineSet
45 640 m 1
 445 640 l 1
 445 0 l 1
 45 0 l 1
 45 640 l 1
95 590 m 1
 95 50 l 1
 395 50 l 1
 395 590 l 1
 95 590 l 1
EndSplineSet
EndChar

StartChar: ae
Encoding: 230 230 163
GlifName: ae
Width: 520
Flags: HMW
LayerCount: 3
Back
SplineSet
318 237 m 1
 494 280 l 1
 494 340 462 376 417 376 c 0
 357 376 322 320 318 237 c 1
253 110 m 1
 250 122 247 142 247 160 c 2
 247 190 l 1
 205 179 l 2
 122 157 102 130 102 95 c 0
 102 62 125 43 152 43 c 0
 184 43 222 64 253 110 c 1
266 88 m 1
 219 23 172 -10 117 -10 c 0
 72 -10 32 25 32 77 c 0
 32 127 61 168 186 203 c 2
 247 220 l 1
 247 290 l 2
 247 345 212 370 167 370 c 0
 157 370 137 367 127 362 c 1
 122 315 l 1
 47 293 l 1
 47 295 l 2
 47 345 117 412 197 412 c 0
 244 412 285 390 304 350 c 1
 307 350 l 1
 329 385 382 412 429 412 c 0
 514 412 570 357 570 275 c 2
 570 269 l 1
 317 207 l 1
 320 108 369 52 447 52 c 0
 497 52 532 71 555 100 c 1
 570 87 l 1
 540 30 487 -12 412 -12 c 0
 350 -12 297 27 269 88 c 1
 266 88 l 1
EndSplineSet
Fore
SplineSet
305 212 m 257
 410 252 455 298 455 345 c 256
 455 363 445 373 430 373 c 256
 382 373 329 294 305 212 c 257
231 139 m 257
 228 140 l 257
 146 22 90 -13 50 -13 c 256
 25 -13 4 5 4 46 c 256
 4 190 180 398 284 398 c 256
 298 398 312 392 321 384 c 257
 322 384 l 257
 348 420 l 257
 373 420 l 257
 373 415 l 257
 360 374 l 257
 362 373 l 257
 390 400 423 413 450 413 c 256
 490 413 515 385 515 350 c 256
 515 287 444 226 298 183 c 257
 294 164 292 145 292 127 c 256
 292 77 315 55 347 55 c 256
 378 55 413 74 448 123 c 257
 463 105 l 257
 412 22 350 -13 305 -13 c 256
 259 -13 226 27 226 90 c 256
 226 105 227 122 231 139 c 257
278 312 m 256
 278 330 267 342 253 342 c 256
 178 342 73 195 73 93 c 256
 73 74 82 65 95 65 c 256
 160 65 278 235 278 312 c 256
EndSplineSet
Substitution2: "'smcp' Lowercase to Small Capitals in Latin lookup 8-1" ae.smcp
EndChar

StartChar: ccedilla
Encoding: 231 231 164
GlifName: ccedilla
Width: 470
Flags: HMW
LayerCount: 3
Back
SplineSet
322 318 m 1
 297 345 262 368 222 368 c 0
 157 368 106 317 106 215 c 0
 106 108 169 50 247 50 c 0
 292 50 332 68 359 103 c 1
 374 90 l 1
 344 31 291 -8 223 -12 c 1
 206 -50 l 1
 207 -52 l 1
 250 -57 282 -85 282 -122 c 0
 282 -185 219 -216 137 -216 c 2
 127 -216 l 1
 128 -191 l 1
 187 -191 228 -172 228 -135 c 0
 228 -109 202 -90 159 -90 c 2
 157 -90 l 1
 157 -84 l 1
 190 -11 l 1
 101 0 32 76 32 185 c 0
 32 310 137 412 247 412 c 0
 290 412 339 398 369 375 c 1
 324 318 l 1
 322 318 l 1
EndSplineSet
Fore
SplineSet
45 640 m 1
 445 640 l 1
 445 0 l 1
 45 0 l 1
 45 640 l 1
95 590 m 1
 95 50 l 1
 395 50 l 1
 395 590 l 1
 95 590 l 1
EndSplineSet
Layer: 2
SplineSet
327 314 m 1
 299 344 261 368 221 368 c 0
 159 368 106 317 106 214 c 0
 106 108 169 50 246 50 c 0
 291 50 329 66 357 102 c 1
 373 88 l 1
 340 27 284 -12 211 -12 c 0
 112 -12 32 67 32 185 c 0
 32 310 137 412 247 412 c 0
 292 412 339 398 374 372 c 1
 329 314 l 1
 327 314 l 1
EndSplineSet
EndChar

StartChar: ecircumflex
Encoding: 234 234 167
GlifName: ecircumflex
Width: 310
Flags: HMW
LayerCount: 3
Back
Refer: 376 710 N 1 0 0 1 95 0 2
Refer: 77 101 N 1 0 0 1 0 0 3
Fore
SplineSet
45 640 m 1
 445 640 l 1
 445 0 l 1
 45 0 l 1
 45 640 l 1
95 590 m 1
 95 50 l 1
 395 50 l 1
 395 590 l 1
 95 590 l 1
EndSplineSet
EndChar

StartChar: icircumflex
Encoding: 238 238 170
GlifName: icircumflex
Width: 240
Flags: HMW
LayerCount: 3
Back
Refer: 376 710 N 1 0 0 1 2 0 2
Refer: 259 305 N 1 0 0 1 -3 0 3
Fore
SplineSet
45 640 m 1
 445 640 l 1
 445 0 l 1
 45 0 l 1
 45 640 l 1
95 590 m 1
 95 50 l 1
 395 50 l 1
 395 590 l 1
 95 590 l 1
EndSplineSet
EndChar

StartChar: idieresis
Encoding: 239 239 171
GlifName: idieresis
Width: 240
Flags: HMW
LayerCount: 3
Back
SplineSet
12 560 m 0
 12 583 31 602 54 602 c 0
 77 602 96 583 96 560 c 0
 96 537 77 518 54 518 c 0
 31 518 12 537 12 560 c 0
162 560 m 0
 162 583 181 602 204 602 c 0
 227 602 246 583 246 560 c 0
 246 537 227 518 204 518 c 0
 181 518 162 537 162 560 c 0
EndSplineSet
Refer: 259 305 N 1 0 0 1 -3 0 3
Fore
Refer: 102 168 N 1 0 0 1 5 0 2
Refer: 259 305 N 1 0 0 1 0 0 3
Layer: 2
SplineSet
4 560 m 0
 4 583 23 602 46 602 c 0
 69 602 88 583 88 560 c 0
 88 537 69 518 46 518 c 0
 23 518 4 537 4 560 c 0
154 560 m 0
 154 583 173 602 196 602 c 0
 219 602 238 583 238 560 c 0
 238 537 219 518 196 518 c 0
 173 518 154 537 154 560 c 0
EndSplineSet
EndChar

StartChar: eth
Encoding: 240 240 172
GlifName: eth
Width: 370
Flags: HMW
LayerCount: 3
Back
SplineSet
35 195 m 0
 35 315 122 410 242 410 c 0
 272 410 312 400 334 387 c 1
 337 390 l 1
 319 452 289 508 251 556 c 1
 142 502 l 1
 127 534 l 1
 228 583 l 1
 228 584 l 1
 187 628 140 663 87 690 c 1
 102 710 l 1
 167 686 226 650 276 606 c 1
 382 658 l 1
 397 627 l 1
 303 581 l 1
 303 580 l 1
 389 492 442 373 442 235 c 0
 442 82 350 -12 232 -12 c 0
 112 -12 35 75 35 195 c 0
365 210 m 0
 365 245 361 295 352 325 c 1
 327 352 282 370 239 370 c 0
 167 370 112 301 112 208 c 0
 112 95 165 25 244 25 c 0
 317 25 365 100 365 210 c 0
EndSplineSet
Fore
SplineSet
271 265 m 0
 271 330 249 372 214 372 c 0
 154 372 101 270 101 150 c 0
 101 70 124 25 159 25 c 0
 214 25 271 130 271 265 c 0
108 494 m 1
 90 524 l 1
 187 585 l 1
 187 586 l 1
 161 624 127 659 84 690 c 1
 99 710 l 1
 150 684 193 650 227 610 c 1
 314 665 l 1
 333 635 l 1
 249 583 l 1
 249 582 l 1
 314 494 343 387 343 295 c 0
 343 125 249 -13 134 -13 c 0
 74 -13 27 50 27 130 c 0
 27 275 119 410 224 410 c 0
 236 410 249 407 259 402 c 1
 260 403 l 1
 251 458 232 511 206 556 c 1
 108 494 l 1
EndSplineSet
Layer: 2
SplineSet
35 195 m 0
 35 315 122 410 242 410 c 0
 272 410 312 400 334 387 c 1
 337 390 l 1
 319 452 289 508 251 556 c 1
 142 502 l 1
 127 534 l 1
 228 583 l 1
 228 584 l 1
 187 628 140 663 87 690 c 1
 102 710 l 1
 167 686 226 650 276 606 c 1
 382 658 l 1
 397 627 l 1
 303 581 l 1
 303 580 l 1
 389 492 442 373 442 235 c 0
 442 82 350 -12 232 -12 c 0
 112 -12 35 75 35 195 c 0
365 210 m 0
 365 245 361 295 352 325 c 1
 327 352 282 370 239 370 c 0
 167 370 112 301 112 208 c 0
 112 95 165 25 244 25 c 0
 317 25 365 100 365 210 c 0
EndSplineSet
Substitution2: "'smcp' Lowercase to Small Capitals in Latin lookup 8-1" eth.smcp
EndChar

StartChar: ntilde
Encoding: 241 241 173
GlifName: ntilde
Width: 485
Flags: HMW
LayerCount: 3
Back
Refer: 369 732 N 1 0 0 1 130 0 2
Refer: 1 110 N 1 0 0 1 0 0 3
Fore
SplineSet
45 640 m 1
 445 640 l 1
 445 0 l 1
 45 0 l 1
 45 640 l 1
95 590 m 1
 95 50 l 1
 395 50 l 1
 395 590 l 1
 95 590 l 1
EndSplineSet
EndChar

StartChar: ocircumflex
Encoding: 244 244 176
GlifName: ocircumflex
Width: 364
Flags: HMW
LayerCount: 3
Back
Refer: 376 710 N 1 0 0 1 120 0 2
Refer: 2 111 N 1 0 0 1 0 0 3
Fore
SplineSet
45 640 m 1
 445 640 l 1
 445 0 l 1
 45 0 l 1
 45 640 l 1
95 590 m 1
 95 50 l 1
 395 50 l 1
 395 590 l 1
 95 590 l 1
EndSplineSet
EndChar

StartChar: otilde
Encoding: 245 245 177
GlifName: otilde
Width: 364
Flags: HMW
LayerCount: 3
Back
Refer: 369 732 N 1 0 0 1 120 0 2
Refer: 2 111 N 1 0 0 1 0 0 3
Fore
SplineSet
45 640 m 1
 445 640 l 1
 445 0 l 1
 45 0 l 1
 45 640 l 1
95 590 m 1
 95 50 l 1
 395 50 l 1
 395 590 l 1
 95 590 l 1
EndSplineSet
EndChar

StartChar: divide
Encoding: 247 247 179
GlifName: divide
Width: 470
Flags: HMW
LayerCount: 3
Back
SplineSet
195 373 m 0
 195 398 215 418 240 418 c 0
 265 418 285 398 285 373 c 0
 285 348 265 328 240 328 c 0
 215 328 195 348 195 373 c 0
195 67 m 0
 195 92 215 112 240 112 c 0
 265 112 285 92 285 67 c 0
 285 42 265 22 240 22 c 0
 215 22 195 42 195 67 c 0
30 197 m 1
 30 243 l 1
 450 243 l 1
 450 197 l 1
 30 197 l 1
EndSplineSet
Fore
SplineSet
45 640 m 1
 445 640 l 1
 445 0 l 1
 45 0 l 1
 45 640 l 1
95 590 m 1
 95 50 l 1
 395 50 l 1
 395 590 l 1
 95 590 l 1
EndSplineSet
EndChar

StartChar: oslash
Encoding: 248 248 180
GlifName: oslash
Width: 364
Flags: HMW
LayerCount: 3
Back
SplineSet
152 76 m 1
 177 43 211 23 249 23 c 0
 323 23 371 92 371 190 c 0
 371 230 362 265 347 296 c 1
 346 296 l 1
 152 76 l 1
135 105 m 1
 136 105 l 1
 330 324 l 1
 330 325 l 1
 305 358 272 378 234 378 c 0
 159 378 111 308 111 210 c 0
 111 170 120 135 135 105 c 1
29 200 m 0
 29 318 123 412 241 412 c 0
 289 412 336 396 369 368 c 1
 427 434 l 1
 451 413 l 1
 392 347 l 1
 431 309 453 258 453 200 c 0
 453 82 359 -12 241 -12 c 0
 193 -12 148 4 112 31 c 1
 55 -34 l 1
 31 -13 l 1
 89 52 l 1
 51 90 29 142 29 200 c 0
EndSplineSet
Fore
SplineSet
116 56 m 1
 126 36 140 25 157 25 c 0
 212 25 265 135 265 250 c 0
 265 271 263 294 261 307 c 1
 260 307 l 1
 116 56 l 1
103 93 m 1
 104 93 l 1
 248 344 l 1
 238 364 224 375 207 375 c 0
 152 375 99 265 99 150 c 0
 99 129 101 106 103 93 c 1
25 130 m 0
 25 275 117 413 232 413 c 0
 249 413 265 407 279 398 c 1
 280 398 l 1
 305 442 l 1
 330 427 l 1
 302 379 l 1
 325 353 339 314 339 270 c 0
 339 125 247 -13 132 -13 c 0
 115 -13 99 -7 85 2 c 1
 84 2 l 1
 59 -42 l 1
 34 -27 l 1
 62 21 l 1
 39 47 25 86 25 130 c 0
EndSplineSet
Substitution2: "'smcp' Lowercase to Small Capitals in Latin lookup 8-1" oslash.smcp
EndChar

StartChar: ucircumflex
Encoding: 251 251 183
GlifName: ucircumflex
Width: 478
Flags: HMW
LayerCount: 3
Back
Refer: 376 710 N 1 0 0 1 122 0 2
Refer: 85 117 N 1 0 0 1 0 0 3
Fore
SplineSet
45 640 m 1
 445 640 l 1
 445 0 l 1
 45 0 l 1
 45 640 l 1
95 590 m 1
 95 50 l 1
 395 50 l 1
 395 590 l 1
 95 590 l 1
EndSplineSet
EndChar

StartChar: thorn
Encoding: 254 254 186
GlifName: thorn
Width: 425
Flags: HMW
LayerCount: 3
Back
SplineSet
149 351 m 1
 150 349 l 1
 182 385 230 412 280 412 c 0
 380 412 458 328 458 212 c 0
 458 80 350 -10 240 -10 c 0
 212 -10 176 -5 151 6 c 1
 149 4 l 1
 150 -35 l 1
 150 -239 l 1
 225 -239 l 1
 225 -270 l 1
 15 -270 l 1
 15 -239 l 1
 80 -239 l 1
 80 625 l 1
 27 668 l 1
 27 676 l 1
 140 710 l 1
 150 710 l 1
 150 388 l 1
 149 351 l 1
150 73 m 1
 175 45 210 30 255 30 c 0
 327 30 384 85 384 185 c 0
 384 292 325 358 250 358 c 0
 211 358 174 344 150 323 c 1
 150 73 l 1
EndSplineSet
Fore
SplineSet
42 -239 m 1
 130 -239 l 1
 130 -270 l 1
 -97 -270 l 1
 -97 -239 l 1
 -20 -239 l 1
 169 629 l 1
 118 667 l 1
 118 675 l 1
 247 710 l 1
 252 705 l 1
 176 364 l 1
 154 279 l 1
 156 277 l 1
 210 360 280 414 337 414 c 0
 379 414 409 375 409 315 c 0
 409 160 265 -15 134 -15 c 0
 122 -15 106 -12 94 -6 c 1
 42 -239 l 1
300 358 m 0
 238 358 117 212 117 90 c 0
 117 45 138 26 164 26 c 0
 239 26 337 180 337 295 c 0
 337 335 323 358 300 358 c 0
EndSplineSet
Substitution2: "'smcp' Lowercase to Small Capitals in Latin lookup 8-1" thorn.smcp
EndChar

StartChar: Amacron
Encoding: 256 256 188
GlifName: A_macron
Width: 630
Flags: HMW
LayerCount: 3
Back
Refer: 400 -1 N 1 0 0 1 200 0 2
Refer: 42 65 N 1 0 0 1 0 0 3
Fore
SplineSet
45 640 m 1
 445 640 l 1
 445 0 l 1
 45 0 l 1
 45 640 l 1
95 590 m 1
 95 50 l 1
 395 50 l 1
 395 590 l 1
 95 590 l 1
EndSplineSet
Substitution2: "'salt' Stylistic Alternatives in Latin lookup 2-1" Amacron.alt
EndChar

StartChar: Emacron
Encoding: 274 274 190
GlifName: E_macron
Width: 540
Flags: HMW
LayerCount: 3
Back
Refer: 400 -1 N 1 0 0 1 158 0 2
Refer: 46 69 N 1 0 0 1 0 0 3
Fore
SplineSet
45 640 m 1
 445 640 l 1
 445 0 l 1
 45 0 l 1
 45 640 l 1
95 590 m 1
 95 50 l 1
 395 50 l 1
 395 590 l 1
 95 590 l 1
EndSplineSet
EndChar

StartChar: Imacron
Encoding: 298 298 192
GlifName: I_macron
Width: 278
Flags: HMW
LayerCount: 3
Back
SplineSet
40 787 m 1
 280 787 l 1
 280 743 l 1
 40 743 l 1
 40 787 l 1
EndSplineSet
Refer: 50 73 N 1 0 0 1 0 0 3
Fore
SplineSet
45 640 m 1
 445 640 l 1
 445 0 l 1
 45 0 l 1
 45 640 l 1
95 590 m 1
 95 50 l 1
 395 50 l 1
 395 590 l 1
 95 590 l 1
EndSplineSet
EndChar

StartChar: imacron
Encoding: 299 299 193
GlifName: imacron
Width: 240
Flags: HMW
LayerCount: 3
Back
SplineSet
21 577 m 1
 221 577 l 1
 221 535 l 1
 21 535 l 1
 21 577 l 1
EndSplineSet
Fore
Refer: 109 175 N 1 0 0 1 0 0 2
Refer: 259 305 N 1 0 0 1 0 0 3
Layer: 2
SplineSet
29 577 m 1
 229 577 l 1
 229 535 l 1
 29 535 l 1
 29 577 l 1
EndSplineSet
EndChar

StartChar: Omacron
Encoding: 332 332 194
GlifName: O_macron
Width: 680
Flags: HMW
LayerCount: 3
Back
Refer: 400 -1 N 1 0 0 1 247 0 2
Refer: 56 79 N 1 0 0 1 0 0 3
Fore
SplineSet
45 640 m 1
 445 640 l 1
 445 0 l 1
 45 0 l 1
 45 640 l 1
95 590 m 1
 95 50 l 1
 395 50 l 1
 395 590 l 1
 95 590 l 1
EndSplineSet
EndChar

StartChar: omacron
Encoding: 333 333 195
GlifName: omacron
Width: 364
Flags: HMW
LayerCount: 3
Back
SplineSet
137 577 m 1
 357 577 l 1
 357 535 l 1
 137 535 l 1
 137 577 l 1
EndSplineSet
Refer: 2 111 N 1 0 0 1 0 0 3
Fore
Refer: 109 175 N 1 0 0 1 57 0 2
Refer: 2 111 N 1 0 0 1 0 0 3
EndChar

StartChar: Umacron
Encoding: 362 362 196
GlifName: U_macron
Width: 650
Flags: HMW
LayerCount: 3
Back
Refer: 400 -1 N 1 0 0 1 248 0 2
Refer: 62 85 N 1 0 0 1 0 0 3
Fore
SplineSet
45 640 m 1
 445 640 l 1
 445 0 l 1
 45 0 l 1
 45 640 l 1
95 590 m 1
 95 50 l 1
 395 50 l 1
 395 590 l 1
 95 590 l 1
EndSplineSet
EndChar

StartChar: endash
Encoding: 8211 8211 198
GlifName: endash
Width: 500
Flags: HMW
LayerCount: 3
Back
SplineSet
30 240 m 1
 470 240 l 1
 470 200 l 1
 30 200 l 1
 30 240 l 1
EndSplineSet
Fore
SplineSet
30 240 m 1
 470 240 l 1
 470 200 l 1
 30 200 l 1
 30 240 l 1
EndSplineSet
EndChar

StartChar: emdash
Encoding: 8212 8212 199
GlifName: emdash
Width: 980
Flags: HMW
LayerCount: 3
Back
SplineSet
30 240 m 1
 950 240 l 1
 950 200 l 1
 30 200 l 1
 30 240 l 1
EndSplineSet
Fore
SplineSet
30 240 m 1
 950 240 l 1
 950 200 l 1
 30 200 l 1
 30 240 l 1
EndSplineSet
EndChar

StartChar: uni2010
Encoding: 8208 8208 200
GlifName: uni2010
Width: 470
Flags: HMW
LayerCount: 3
Back
SplineSet
20 234 m 1
 215 234 l 1
 215 176 l 1
 20 176 l 1
 20 234 l 1
EndSplineSet
Fore
SplineSet
45 640 m 1
 445 640 l 1
 445 0 l 1
 45 0 l 1
 45 640 l 1
95 590 m 1
 95 50 l 1
 395 50 l 1
 395 590 l 1
 95 590 l 1
EndSplineSet
EndChar

StartChar: uni2011
Encoding: 8209 8209 201
GlifName: uni2011
Width: 470
Flags: HMW
LayerCount: 3
Back
SplineSet
20 234 m 1
 215 234 l 1
 215 176 l 1
 20 176 l 1
 20 234 l 1
EndSplineSet
Fore
SplineSet
45 640 m 1
 445 640 l 1
 445 0 l 1
 45 0 l 1
 45 640 l 1
95 590 m 1
 95 50 l 1
 395 50 l 1
 395 590 l 1
 95 590 l 1
EndSplineSet
EndChar

StartChar: afii00208
Encoding: 8213 8213 202
GlifName: afii00208
Width: 1420
Flags: HMW
LayerCount: 3
Back
SplineSet
0 240 m 1
 1420 240 l 1
 1420 200 l 1
 0 200 l 1
 0 240 l 1
EndSplineSet
Fore
SplineSet
0 240 m 1
 1420 240 l 1
 1420 200 l 1
 0 200 l 1
 0 240 l 1
EndSplineSet
EndChar

StartChar: quoteleft
Encoding: 8216 8216 203
GlifName: quoteleft
Width: 190
Flags: HMW
LayerCount: 3
Back
SplineSet
147 499 m 1
 132 426 l 1
 131 426 l 1
 73 430 29 466 29 528 c 0
 29 583 72 641 143 668 c 1
 153 645 l 1
 111 625 87 592 87 559 c 0
 87 525 111 505 147 499 c 1
EndSplineSet
Fore
SplineSet
181 483 m 1
 181 481 l 1
 120 420 l 1
 118 420 l 1
 92 442 73 472 73 508 c 0
 73 579 120 635 215 667 c 1
 225 642 l 1
 168 622 146 582 146 542 c 0
 146 516 162 495 181 483 c 1
EndSplineSet
EndChar

StartChar: quoteright
Encoding: 8217 8217 204
GlifName: quoteright
Width: 190
Flags: HMW
LayerCount: 3
Back
SplineSet
41 581 m 1
 56 654 l 1
 57 654 l 1
 115 650 159 614 159 552 c 0
 159 497 116 439 45 412 c 1
 35 435 l 1
 77 455 101 488 101 521 c 0
 101 555 77 575 41 581 c 1
EndSplineSet
Fore
SplineSet
109 592 m 1
 109 594 l 1
 170 655 l 1
 172 655 l 1
 198 633 217 603 217 567 c 0
 217 496 170 440 75 408 c 1
 65 433 l 1
 122 453 144 493 144 533 c 0
 144 559 128 580 109 592 c 1
EndSplineSet
EndChar

StartChar: quotesinglbase
Encoding: 8218 8218 205
GlifName: quotesinglbase
Width: 470
Flags: HMW
LayerCount: 3
Back
SplineSet
41 31 m 1
 56 104 l 1
 57 104 l 1
 115 100 159 64 159 2 c 0
 159 -53 116 -111 45 -138 c 1
 35 -115 l 1
 77 -95 101 -62 101 -29 c 0
 101 5 77 25 41 31 c 1
EndSplineSet
Fore
SplineSet
45 640 m 1
 445 640 l 1
 445 0 l 1
 45 0 l 1
 45 640 l 1
95 590 m 1
 95 50 l 1
 395 50 l 1
 395 590 l 1
 95 590 l 1
EndSplineSet
EndChar

StartChar: quotereversed
Encoding: 8219 8219 206
GlifName: quotereversed
Width: 470
Flags: HMW
LayerCount: 3
Back
SplineSet
149 581 m 1
 113 575 89 555 89 521 c 0
 89 488 113 455 155 435 c 1
 145 412 l 1
 74 439 31 497 31 552 c 0
 31 614 75 650 133 654 c 1
 134 654 l 1
 149 581 l 1
EndSplineSet
Fore
SplineSet
45 640 m 1
 445 640 l 1
 445 0 l 1
 45 0 l 1
 45 640 l 1
95 590 m 1
 95 50 l 1
 395 50 l 1
 395 590 l 1
 95 590 l 1
EndSplineSet
EndChar

StartChar: quotedblleft
Encoding: 8220 8220 207
GlifName: quotedblleft
Width: 350
Flags: HMW
LayerCount: 3
Back
SplineSet
306 499 m 1
 290 426 l 1
 289 426 l 1
 232 431 190 466 190 528 c 0
 190 583 232 641 303 668 c 1
 313 645 l 1
 271 625 247 592 247 559 c 0
 247 526 270 505 306 499 c 1
146 499 m 1
 130 426 l 1
 129 426 l 1
 72 431 30 466 30 528 c 0
 30 583 72 641 143 668 c 1
 153 645 l 1
 111 625 87 592 87 559 c 0
 87 526 110 505 146 499 c 1
EndSplineSet
Fore
SplineSet
341 483 m 1
 341 481 l 1
 280 420 l 1
 278 420 l 1
 252 442 233 472 233 508 c 0
 233 579 280 635 375 667 c 1
 385 642 l 1
 328 622 306 582 306 542 c 0
 306 516 322 495 341 483 c 1
181 483 m 1
 181 481 l 1
 120 420 l 1
 118 420 l 1
 92 442 73 472 73 508 c 0
 73 579 120 635 215 667 c 1
 225 642 l 1
 168 622 146 582 146 542 c 0
 146 516 162 495 181 483 c 1
EndSplineSet
EndChar

StartChar: quotedblright
Encoding: 8221 8221 208
GlifName: quotedblright
Width: 350
Flags: HMW
LayerCount: 3
Back
SplineSet
42 581 m 1
 58 654 l 1
 59 654 l 1
 116 649 158 614 158 552 c 0
 158 497 116 439 45 412 c 1
 35 435 l 1
 77 455 101 488 101 521 c 0
 101 554 78 575 42 581 c 1
202 581 m 1
 218 654 l 1
 219 654 l 1
 276 649 318 614 318 552 c 0
 318 497 276 439 205 412 c 1
 195 435 l 1
 237 455 261 488 261 521 c 0
 261 554 238 575 202 581 c 1
EndSplineSet
Fore
SplineSet
269 592 m 5
 269 594 l 5
 330 655 l 5
 332 655 l 5
 358 633 377 603 377 567 c 4
 377 496 330 440 235 408 c 5
 225 433 l 5
 282 453 304 493 304 533 c 4
 304 559 288 580 269 592 c 5
109 592 m 5
 109 594 l 5
 170 655 l 5
 172 655 l 5
 198 633 217 603 217 567 c 4
 217 496 170 440 75 408 c 5
 65 433 l 5
 122 453 144 493 144 533 c 4
 144 559 128 580 109 592 c 5
EndSplineSet
EndChar

StartChar: quotedblbase
Encoding: 8222 8222 209
GlifName: quotedblbase
Width: 470
Flags: HMW
LayerCount: 3
Back
SplineSet
42 31 m 1
 58 104 l 1
 59 104 l 1
 116 99 158 64 158 2 c 0
 158 -53 116 -111 45 -138 c 1
 35 -115 l 1
 77 -95 101 -62 101 -29 c 0
 101 4 78 25 42 31 c 1
202 31 m 1
 218 104 l 1
 219 104 l 1
 276 99 318 64 318 2 c 0
 318 -53 276 -111 205 -138 c 1
 195 -115 l 1
 237 -95 261 -62 261 -29 c 0
 261 4 238 25 202 31 c 1
EndSplineSet
Fore
SplineSet
45 640 m 1
 445 640 l 1
 445 0 l 1
 45 0 l 1
 45 640 l 1
95 590 m 1
 95 50 l 1
 395 50 l 1
 395 590 l 1
 95 590 l 1
EndSplineSet
EndChar

StartChar: uni201F
Encoding: 8223 8223 210
GlifName: uni201F_
Width: 470
Flags: HMW
LayerCount: 3
Back
SplineSet
306 581 m 1
 270 575 247 554 247 521 c 0
 247 488 271 455 313 435 c 1
 303 412 l 1
 232 439 190 497 190 552 c 0
 190 614 232 649 289 654 c 1
 290 654 l 1
 306 581 l 1
146 581 m 1
 110 575 87 554 87 521 c 0
 87 488 111 455 153 435 c 1
 143 412 l 1
 72 439 30 497 30 552 c 0
 30 614 72 649 129 654 c 1
 130 654 l 1
 146 581 l 1
EndSplineSet
Fore
SplineSet
45 640 m 1
 445 640 l 1
 445 0 l 1
 45 0 l 1
 45 640 l 1
95 590 m 1
 95 50 l 1
 395 50 l 1
 395 590 l 1
 95 590 l 1
EndSplineSet
EndChar

StartChar: dagger
Encoding: 8224 8224 211
GlifName: dagger
Width: 420
Flags: HMW
LayerCount: 3
Back
SplineSet
230 465 m 1
 305 465 l 1
 335 465 360 475 383 498 c 1
 385 497 l 1
 378 445 340 425 295 425 c 1
 238 425 l 1
 238 305 l 2
 238 95 270 -30 137 -140 c 1
 135 -139 l 1
 180 -30 182 140 182 295 c 9
 182 425 l 1
 115 425 l 1
 85 425 60 415 37 392 c 1
 35 393 l 1
 42 445 80 465 125 465 c 1
 190 465 l 1
 190 635 l 1
 175 640 l 1
 175 643 l 2
 175 660 190 675 210 675 c 0
 230 675 245 660 245 643 c 2
 245 640 l 1
 230 635 l 1
 230 465 l 1
1170 370 m 1
 1200 350 l 1
 1167 260 l 1
 1167 285 1150 297 1127 297 c 1
 1114 297 1099 294 1086 286 c 1
 1085 287 l 1
 1090 305 1105 317 1130 327 c 0
 1150 335 1170 335 1170 370 c 1
1223 260 m 1
 1190 280 l 1
 1220 370 l 1
 1220 342 1240 333 1263 333 c 1
 1276 333 1291 336 1304 344 c 1
 1305 343 l 1
 1300 325 1285 313 1260 303 c 0
 1240 295 1223 293 1223 260 c 1
1170 370 m 1
 1170 435 l 1
 1100 435 l 1
 1070 435 1045 425 1022 402 c 1
 1020 403 l 1
 1027 455 1065 475 1110 475 c 1
 1175 475 l 1
 1175 635 l 1
 1160 640 l 1
 1160 643 l 2
 1160 660 1175 675 1195 675 c 0
 1215 675 1230 660 1230 643 c 2
 1230 640 l 1
 1215 635 l 1
 1215 475 l 1
 1290 475 l 1
 1320 475 1345 485 1368 508 c 1
 1370 507 l 1
 1363 455 1325 435 1280 435 c 1
 1220 435 l 1
 1220 370 l 1025
1223 260 m 17
 1223 80 1255 -30 1122 -140 c 1
 1120 -139 l 1
 1165 -30 1167 115 1167 260 c 1025
177 645 m 2
 177 662 190 675 210 675 c 0
 230 675 243 662 243 645 c 2
 243 640 l 1
 230 635 l 1
 230 465 l 1
 385 465 l 1
 385 425 l 1
 238 425 l 1
 238 335 l 2
 238 155 235 -55 211 -145 c 1
 209 -145 l 1
 185 -55 182 155 182 335 c 2
 182 425 l 1
 35 425 l 1
 35 465 l 1
 190 465 l 1
 190 635 l 1
 177 640 l 1
 177 645 l 2
EndSplineSet
Fore
SplineSet
230 465 m 1
 305 465 l 1
 335 465 360 475 383 498 c 1
 385 497 l 1
 378 445 340 425 295 425 c 1
 238 425 l 1
 238 205 l 2
 238 55 220 -55 142 -140 c 1
 140 -139 l 1
 175 -40 182 110 182 265 c 9
 182 425 l 1
 115 425 l 1
 85 425 60 415 37 392 c 1
 35 393 l 1
 42 445 80 465 125 465 c 1
 190 465 l 1
 190 635 l 1
 175 640 l 1
 175 643 l 2
 175 660 190 675 210 675 c 0
 230 675 245 660 245 643 c 2
 245 640 l 1
 230 635 l 1
 230 465 l 1
EndSplineSet
Layer: 2
SplineSet
175 643 m 2
 175 660 190 675 210 675 c 0
 230 675 245 660 245 643 c 2
 245 640 l 1
 230 635 l 1
 230 465 l 1
 300 465 l 1
 335 465 360 473 378 502 c 1
 380 500 l 1
 379 445 350 425 300 425 c 1
 238 425 l 1
 238 285 l 2
 238 95 280 -35 137 -145 c 1
 135 -144 l 1
 180 -35 182 145 182 295 c 2
 182 425 l 1
 115 425 l 1
 85 425 60 415 37 392 c 1
 35 393 l 1
 42 445 80 465 125 465 c 1
 190 465 l 1
 190 635 l 1
 175 640 l 1
 175 643 l 2
720 465 m 1
 800.6640625 465 l 2
 825.576171875 465 852.859375 475.67578125 868.28125 502.959960938 c 1
 870.653320312 448.392578125 840.997070312 423.481445312 803.037109375 423.481445312 c 2
 741.3515625 423.481445312 l 1025
673 460 m 1
 673 611 l 1
 654 626 l 2
 659 638 677 651 691 651 c 0
 708 651 723 640 731 628 c 2
 712 611 l 1
 715 466 l 1
 783 466 l 2
 804 466 827 475 840 498 c 1
 842 452 817 431 785 431 c 2
 733 431 l 1
 733 263 l 2
 733 212 744 149 744 99 c 0
 744 -1 702 -90 625 -143 c 1
 663 -56 668 55 668 177 c 2
 668 421 l 1
 610 421 l 2
 585 421 555 410 536 392 c 1
 543 433 567 451 600 455 c 2
 673 460 l 1
1176 458 m 1
 1176 603 l 1
 1156 620 l 2
 1161 635 1181 649 1195 649 c 0
 1214 649 1229 638 1237 623 c 1
 1215 606 l 1
 1218 461 l 1
 1280 461 l 2
 1309 461 1326 473 1345 499 c 1
 1344 442 1316 419 1272 419 c 2
 1221 419 l 1
 1221 364 l 2
 1221 333 1275 320 1313 335 c 1
 1304 320 1284 313 1258 309 c 0
 1239 306 1221 296 1221 278 c 2
 1221 263 l 2
 1221 151 1240 56 1240 -3 c 0
 1240 -85 1219 -143 1136 -162 c 1
 1191 -57 1171 55 1171 177 c 2
 1171 253 l 2
 1171 285 1159 300 1135 300 c 0
 1117 300 1104 295 1086 286 c 1
 1100 337 1171 315 1171 360 c 2
 1171 421 l 1
 1113 421 l 2
 1073 421 1055 417 1041 405 c 1
 1049 443 1082 461 1116 461 c 2
 1176 458 l 1
EndSplineSet
EndChar

StartChar: daggerdbl
Encoding: 8225 8225 212
GlifName: daggerdbl
Width: 420
Flags: HMW
LayerCount: 3
Back
SplineSet
177 645 m 2
 177 662 190 675 210 675 c 0
 230 675 243 662 243 645 c 2
 243 640 l 1
 230 635 l 1
 230 465 l 1
 385 465 l 1
 385 425 l 1
 235 425 l 1
 235 295 l 1
 355 295 l 1
 355 255 l 1
 237 255 l 1
 236 125 233 -63 211 -145 c 1
 209 -145 l 1
 187 -63 184 125 183 255 c 1
 65 255 l 1
 65 295 l 1
 185 295 l 1
 185 425 l 1
 35 425 l 1
 35 465 l 1
 190 465 l 1
 190 635 l 1
 177 640 l 1
 177 645 l 2
EndSplineSet
Fore
SplineSet
235 250 m 17
 235 214 236 181 236 150 c 0
 236 32 225 -55 137 -140 c 1
 135 -139 l 1
 180 -30 185 105 185 240 c 9
 185 255 l 17
 185 280 168 292 142 292 c 1
 129 292 114 289 101 281 c 1
 100 282 l 1
 105 300 120 312 145 322 c 0
 165 330 187 330 187 365 c 1
 187 440 l 1
 115 440 l 1
 85 440 60 430 37 407 c 1
 35 408 l 1
 42 460 80 480 125 480 c 1
 190 480 l 1
 190 635 l 1
 175 640 l 1
 175 643 l 2
 175 660 190 675 210 675 c 0
 230 675 245 660 245 643 c 2
 245 640 l 1
 230 635 l 1
 230 480 l 1
 305 480 l 1
 335 480 360 490 383 513 c 1
 385 512 l 1
 378 460 340 440 295 440 c 1
 233 440 l 1
 233 365 l 1
 233 337 252 328 278 328 c 1
 291 328 306 331 319 339 c 1
 320 338 l 1
 315 320 300 308 275 298 c 0
 255 290 235 288 235 255 c 9
 235 250 l 17
EndSplineSet
Layer: 2
SplineSet
238 250 m 17
 238 80 270 -30 137 -140 c 1
 135 -139 l 1
 180 -30 182 115 182 250 c 9
 182 255 l 17
 182 280 165 292 142 292 c 1
 129 292 114 289 101 281 c 1
 100 282 l 1
 105 300 120 312 145 322 c 0
 165 330 185 330 185 365 c 1
 185 440 l 1
 115 440 l 1
 85 440 60 430 37 407 c 1
 35 408 l 1
 42 460 80 480 125 480 c 1
 190 480 l 1
 190 635 l 1
 175 640 l 1
 175 643 l 2
 175 660 190 675 210 675 c 0
 230 675 245 660 245 643 c 2
 245 640 l 1
 230 635 l 1
 230 480 l 1
 305 480 l 1
 335 480 360 490 383 513 c 1
 385 512 l 1
 378 460 340 440 295 440 c 1
 235 440 l 1
 235 365 l 1
 235 337 255 328 278 328 c 1
 291 328 306 331 319 339 c 1
 320 338 l 1
 315 320 300 308 275 298 c 0
 255 290 238 288 238 255 c 9
 238 250 l 17
EndSplineSet
EndChar

StartChar: bullet
Encoding: 8226 8226 213
GlifName: bullet
Width: 470
Flags: HMW
LayerCount: 3
Back
SplineSet
45 325 m 0
 45 380 90 425 145 425 c 0
 200 425 245 380 245 325 c 0
 245 270 200 225 145 225 c 0
 90 225 45 270 45 325 c 0
EndSplineSet
Fore
SplineSet
45 640 m 1
 445 640 l 1
 445 0 l 1
 45 0 l 1
 45 640 l 1
95 590 m 1
 95 50 l 1
 395 50 l 1
 395 590 l 1
 95 590 l 1
EndSplineSet
EndChar

StartChar: ellipsis
Encoding: 8230 8230 214
GlifName: ellipsis
Width: 750
Flags: HMW
LayerCount: 3
Back
SplineSet
323 45 m 0
 323 74 346 97 375 97 c 0
 404 97 427 74 427 45 c 0
 427 16 404 -7 375 -7 c 0
 346 -7 323 16 323 45 c 0
73 45 m 0
 73 74 96 97 125 97 c 0
 154 97 177 74 177 45 c 0
 177 16 154 -7 125 -7 c 0
 96 -7 73 16 73 45 c 0
573 45 m 0
 573 74 596 97 625 97 c 0
 654 97 677 74 677 45 c 0
 677 16 654 -7 625 -7 c 0
 596 -7 573 16 573 45 c 0
EndSplineSet
Fore
SplineSet
563 33 m 0
 563 63 591 89 618 89 c 0
 641 89 657 72 657 49 c 0
 657 19 629 -7 602 -7 c 0
 579 -7 563 10 563 33 c 0
313 33 m 0
 313 63 341 89 368 89 c 0
 391 89 407 72 407 49 c 0
 407 19 379 -7 352 -7 c 0
 329 -7 313 10 313 33 c 0
63 33 m 0
 63 63 91 89 118 89 c 0
 141 89 157 72 157 49 c 0
 157 19 129 -7 102 -7 c 0
 79 -7 63 10 63 33 c 0
EndSplineSet
EndChar

StartChar: twodotenleader
Encoding: 8229 8229 215
GlifName: twodotenleader
Width: 500
Flags: HMW
LayerCount: 3
Back
SplineSet
73 45 m 0
 73 74 96 97 125 97 c 0
 154 97 177 74 177 45 c 0
 177 16 154 -7 125 -7 c 0
 96 -7 73 16 73 45 c 0
323 45 m 0
 323 74 346 97 375 97 c 0
 404 97 427 74 427 45 c 0
 427 16 404 -7 375 -7 c 0
 346 -7 323 16 323 45 c 0
EndSplineSet
Fore
SplineSet
313 33 m 0
 313 63 341 89 368 89 c 0
 391 89 407 72 407 49 c 0
 407 19 379 -7 352 -7 c 0
 329 -7 313 10 313 33 c 0
63 33 m 0
 63 63 91 89 118 89 c 0
 141 89 157 72 157 49 c 0
 157 19 129 -7 102 -7 c 0
 79 -7 63 10 63 33 c 0
EndSplineSet
EndChar

StartChar: uni204B
Encoding: 8267 8267 216
GlifName: uni204B_
Width: 470
Flags: HMW
LayerCount: 3
Back
SplineSet
185 220 m 2
 140 220 l 1
 140 -58 l 2
 140 -147 175 -185 230 -185 c 0
 247 -185 263 -180 275 -172 c 1
 275 -170 l 1
 255 -163 240 -142 240 -120 c 0
 240 -90 265 -65 295 -65 c 0
 325 -65 350 -90 350 -125 c 0
 350 -172 305 -220 230 -220 c 0
 154 -220 95 -165 95 -55 c 2
 95 605 l 1
 20 605 l 1
 20 640 l 1
 185 640 l 2
 335 640 435 555 435 430 c 0
 435 305 335 220 185 220 c 2
140 605 m 1
 140 255 l 1
 170 255 l 2
 265 255 320 325 320 430 c 0
 320 535 265 605 170 605 c 2
 140 605 l 1
EndSplineSet
Fore
SplineSet
45 640 m 1
 445 640 l 1
 445 0 l 1
 45 0 l 1
 45 640 l 1
95 590 m 1
 95 50 l 1
 395 50 l 1
 395 590 l 1
 95 590 l 1
EndSplineSet
EndChar

StartChar: uni203D
Encoding: 8253 8253 217
GlifName: uni203D_
Width: 470
Flags: HMW
LayerCount: 3
Back
SplineSet
257 442 m 0
 257 520 185 559 90 562 c 1
 90 668 l 1
 118 668 l 1
 118 664 l 2
 118 637 131 637 171 617 c 0
 247 580 292 525 292 440 c 0
 292 358 249 301 175 265 c 0
 135 245 125 240 125 210 c 2
 125 180 l 1
 95 180 l 1
 72 515 l 1
 148 515 l 1
 132 328 l 1
 132 323 l 1
 203 334 257 372 257 442 c 0
110 -4 m 0
 85 -4 64 17 64 42 c 0
 64 67 85 88 110 88 c 0
 135 88 156 67 156 42 c 0
 156 17 135 -4 110 -4 c 0
EndSplineSet
Fore
SplineSet
45 640 m 1
 445 640 l 1
 445 0 l 1
 45 0 l 1
 45 640 l 1
95 590 m 1
 95 50 l 1
 395 50 l 1
 395 590 l 1
 95 590 l 1
EndSplineSet
LCarets2: 1 0
Ligature2: "'dlig' Discretionary Ligatures lookup 12-1" exclam question
EndChar

StartChar: guilsinglright
Encoding: 8250 8250 218
GlifName: guilsinglright
Width: 470
Flags: HMW
LayerCount: 3
Back
SplineSet
215 213 m 1
 215 207 l 1
 45 35 l 1
 20 45 l 1
 130 208 l 1
 130 210 l 1
 20 375 l 1
 45 385 l 1
 215 213 l 1
EndSplineSet
Fore
SplineSet
45 640 m 1
 445 640 l 1
 445 0 l 1
 45 0 l 1
 45 640 l 1
95 590 m 1
 95 50 l 1
 395 50 l 1
 395 590 l 1
 95 590 l 1
EndSplineSet
EndChar

StartChar: guilsinglleft
Encoding: 8249 8249 219
GlifName: guilsinglleft
Width: 470
Flags: HMW
LayerCount: 3
Back
SplineSet
25 207 m 1
 25 213 l 1
 195 385 l 1
 220 375 l 1
 110 212 l 1
 110 210 l 1
 220 45 l 1
 195 35 l 1
 25 207 l 1
EndSplineSet
Fore
SplineSet
45 640 m 1
 445 640 l 1
 445 0 l 1
 45 0 l 1
 45 640 l 1
95 590 m 1
 95 50 l 1
 395 50 l 1
 395 590 l 1
 95 590 l 1
EndSplineSet
EndChar

StartChar: perthousand
Encoding: 8240 8240 220
GlifName: perthousand
Width: 470
Flags: HMW
LayerCount: 3
Back
SplineSet
577 660 m 1
 625 660 l 1
 203 -50 l 1
 155 -50 l 1
 577 660 l 1
445 150 m 0
 445 238 512 310 595 310 c 0
 678 310 745 238 745 150 c 0
 745 62 678 -10 595 -10 c 0
 512 -10 445 62 445 150 c 0
504 165 m 0
 504 78 548 24 603 24 c 0
 650 24 686 72 686 135 c 0
 686 222 642 276 587 276 c 0
 540 276 504 228 504 165 c 0
35 460 m 0
 35 548 102 620 185 620 c 0
 268 620 335 548 335 460 c 0
 335 372 268 300 185 300 c 0
 102 300 35 372 35 460 c 0
94 475 m 0
 94 388 138 334 193 334 c 0
 240 334 276 382 276 445 c 0
 276 532 232 586 177 586 c 0
 130 586 94 538 94 475 c 0
790 150 m 0
 790 238 857 310 940 310 c 0
 1023 310 1090 238 1090 150 c 0
 1090 62 1023 -10 940 -10 c 0
 857 -10 790 62 790 150 c 0
849 165 m 0
 849 78 893 24 948 24 c 0
 995 24 1031 72 1031 135 c 0
 1031 222 987 276 932 276 c 0
 885 276 849 228 849 165 c 0
EndSplineSet
Fore
SplineSet
45 640 m 1
 445 640 l 1
 445 0 l 1
 45 0 l 1
 45 640 l 1
95 590 m 1
 95 50 l 1
 395 50 l 1
 395 590 l 1
 95 590 l 1
EndSplineSet
EndChar

StartChar: uni2027
Encoding: 8231 8231 221
GlifName: uni2027
Width: 470
Flags: HMW
LayerCount: 3
Back
SplineSet
43 220 m 0
 43 249 66 272 95 272 c 0
 124 272 147 249 147 220 c 0
 147 191 124 168 95 168 c 0
 66 168 43 191 43 220 c 0
EndSplineSet
Fore
SplineSet
45 640 m 1
 445 640 l 1
 445 0 l 1
 45 0 l 1
 45 640 l 1
95 590 m 1
 95 50 l 1
 395 50 l 1
 395 590 l 1
 95 590 l 1
EndSplineSet
EndChar

StartChar: arrowleft
Encoding: 8592 8592 224
GlifName: arrowleft
Width: 590
Flags: HMW
LayerCount: 3
Back
SplineSet
565 200 m 1
 195 200 l 1
 200 120 l 1
 15 220 l 1
 200 320 l 1
 195 240 l 1
 565 240 l 1
 565 200 l 1
EndSplineSet
Fore
SplineSet
565 200 m 1
 195 200 l 1
 200 120 l 1
 15 220 l 1
 200 320 l 1
 195 240 l 1
 565 240 l 1
 565 200 l 1
EndSplineSet
EndChar

StartChar: arrowup
Encoding: 8593 8593 225
GlifName: arrowup
Width: 330
Flags: HMW
LayerCount: 3
Back
SplineSet
145 -50 m 1
 145 320 l 1
 65 315 l 1
 165 500 l 1
 265 315 l 1
 185 320 l 1
 185 -50 l 1
 145 -50 l 1
EndSplineSet
Fore
SplineSet
145 -50 m 1
 145 320 l 1
 65 315 l 1
 165 500 l 1
 265 315 l 1
 185 320 l 1
 185 -50 l 1
 145 -50 l 1
EndSplineSet
EndChar

StartChar: arrowright
Encoding: 8594 8594 226
GlifName: arrowright
Width: 590
Flags: HMW
LayerCount: 3
Back
SplineSet
25 240 m 1
 395 240 l 1
 390 320 l 1
 575 220 l 1
 390 120 l 1
 395 200 l 1
 25 200 l 1
 25 240 l 1
EndSplineSet
Fore
SplineSet
25 240 m 1
 395 240 l 1
 390 320 l 1
 575 220 l 1
 390 120 l 1
 395 200 l 1
 25 200 l 1
 25 240 l 1
EndSplineSet
EndChar

StartChar: arrowdown
Encoding: 8595 8595 227
GlifName: arrowdown
Width: 330
Flags: HMW
LayerCount: 3
Back
SplineSet
185 490 m 1
 185 120 l 1
 265 125 l 1
 165 -60 l 1
 65 125 l 1
 145 120 l 1
 145 490 l 1
 185 490 l 1
EndSplineSet
Fore
SplineSet
185 490 m 1
 185 120 l 1
 265 125 l 1
 165 -60 l 1
 65 125 l 1
 145 120 l 1
 145 490 l 1
 185 490 l 1
EndSplineSet
EndChar

StartChar: arrowboth
Encoding: 8596 8596 228
GlifName: arrowboth
Width: 590
Flags: HMW
LayerCount: 3
Back
SplineSet
395 240 m 1
 390 320 l 1
 575 220 l 1
 390 120 l 1
 395 200 l 1
 195 200 l 1
 200 120 l 1
 15 220 l 1
 200 320 l 1
 195 240 l 1
 395 240 l 1
EndSplineSet
Fore
SplineSet
395 240 m 1
 390 320 l 1
 575 220 l 1
 390 120 l 1
 395 200 l 1
 195 200 l 1
 200 120 l 1
 15 220 l 1
 200 320 l 1
 195 240 l 1
 395 240 l 1
EndSplineSet
EndChar

StartChar: arrowupdn
Encoding: 8597 8597 229
GlifName: arrowupdn
Width: 330
Flags: HMW
LayerCount: 3
Back
SplineSet
145 320 m 1
 65 315 l 1
 165 500 l 1
 265 315 l 1
 185 320 l 1
 185 120 l 1
 265 125 l 1
 165 -60 l 1
 65 125 l 1
 145 120 l 1
 145 320 l 1
EndSplineSet
Fore
SplineSet
145 320 m 1
 65 315 l 1
 165 500 l 1
 265 315 l 1
 185 320 l 1
 185 120 l 1
 265 125 l 1
 165 -60 l 1
 65 125 l 1
 145 120 l 1
 145 320 l 1
EndSplineSet
EndChar

StartChar: uni2196
Encoding: 8598 8598 230
GlifName: uni2196
Width: 450
Flags: HMW
LayerCount: 3
Back
SplineSet
399 17 m 1
 138 279 l 1
 85 219 l 1
 25 420 l 1
 226 360 l 1
 166 307 l 1
 428 46 l 1
 399 17 l 1
EndSplineSet
Fore
SplineSet
399 17 m 1
 138 279 l 1
 85 219 l 1
 25 420 l 1
 226 360 l 1
 166 307 l 1
 428 46 l 1
 399 17 l 1
EndSplineSet
EndChar

StartChar: uni2197
Encoding: 8599 8599 231
GlifName: uni2197
Width: 450
Flags: HMW
LayerCount: 3
Back
SplineSet
22 46 m 1
 284 307 l 1
 224 360 l 1
 425 420 l 1
 365 219 l 1
 312 279 l 1
 51 17 l 1
 22 46 l 1
EndSplineSet
Fore
SplineSet
22 46 m 1
 284 307 l 1
 224 360 l 1
 425 420 l 1
 365 219 l 1
 312 279 l 1
 51 17 l 1
 22 46 l 1
EndSplineSet
EndChar

StartChar: uni2198
Encoding: 8600 8600 232
GlifName: uni2198
Width: 450
Flags: HMW
LayerCount: 3
Back
SplineSet
51 423 m 1
 312 161 l 1
 365 221 l 1
 425 20 l 1
 224 80 l 1
 284 133 l 1
 22 394 l 1
 51 423 l 1
EndSplineSet
Fore
SplineSet
51 423 m 1
 312 161 l 1
 365 221 l 1
 425 20 l 1
 224 80 l 1
 284 133 l 1
 22 394 l 1
 51 423 l 1
EndSplineSet
EndChar

StartChar: uni2199
Encoding: 8601 8601 233
GlifName: uni2199
Width: 450
Flags: HMW
LayerCount: 3
Back
SplineSet
428 394 m 1
 166 133 l 1
 226 80 l 1
 25 20 l 1
 85 221 l 1
 138 161 l 1
 399 423 l 1
 428 394 l 1
EndSplineSet
Fore
SplineSet
428 394 m 1
 166 133 l 1
 226 80 l 1
 25 20 l 1
 85 221 l 1
 138 161 l 1
 399 423 l 1
 428 394 l 1
EndSplineSet
EndChar

StartChar: fj.liga
Encoding: 65536 -1 235
GlifName: fj.liga
Width: 470
Flags: HMW
LayerCount: 3
Back
SplineSet
273 -273 m 1
 262 -252 l 1
 337 -207 357 -147 357 -62 c 2
 357 330 l 1
 332 359 l 1
 162 359 l 1
 162 32 l 1
 237 32 l 1
 237 0 l 1
 32 0 l 1
 32 32 l 1
 92 32 l 1
 92 357 l 1
 34 357 l 1
 34 378 l 1
 92 404 l 1
 92 425 l 2
 92 585 210 698 329 698 c 0
 365 698 399 686 425 668 c 1
 387 609 l 1
 385 609 l 1
 361 628 326 642 287 642 c 0
 209 642 162 590 162 470 c 2
 162 399 l 1
 370 399 l 1
 417 415 l 1
 427 415 l 1
 427 -48 l 2
 427 -153 372 -222 273 -273 c 1
EndSplineSet
Fore
SplineSet
45 640 m 1
 445 640 l 1
 445 0 l 1
 45 0 l 1
 45 640 l 1
95 590 m 1
 95 50 l 1
 395 50 l 1
 395 590 l 1
 95 590 l 1
EndSplineSet
Layer: 2
SplineSet
387 608 m 257
 361 628 326 642 287 642 c 256
 209 642 162 590 162 470 c 258
 162 399 l 257
 374 399 l 257
 422 415 l 257
 432 415 l 257
 432 32 l 257
 504 32 l 257
 504 0 l 257
 299 0 l 257
 299 32 l 257
 362 32 l 257
 362 330 l 257
 337 359 l 257
 162 359 l 257
 162 32 l 257
 237 32 l 257
 237 0 l 257
 32 0 l 257
 32 32 l 257
 92 32 l 257
 92 357 l 257
 35 357 l 257
 35 378 l 257
 92 404 l 257
 92 425 l 258
 92 585 210 698 329 698 c 256
 365 698 400 686 427 667 c 257
 389 608 l 257
 387 608 l 257
EndSplineSet
Substitution2: "'salt' Stylistic Alternatives in Latin lookup 2-1" fj.liga.alt
Ligature2: "'liga' Standard Ligatures in Latin lookup 2-1" f j
LCarets2: 1 0
EndChar

StartChar: sp.liga
Encoding: 65537 -1 236
GlifName: sp.liga
Width: 470
Flags: HMW
LayerCount: 3
Back
SplineSet
405 455 m 1
 405 545 377 593 315 593 c 0
 259 593 222 553 222 497 c 0
 222 455 239 424 267 400 c 1
 275 290 l 1
 246 290 l 1
 243 314 l 2
 238 355 210 380 165 380 c 0
 133 380 108 361 108 332 c 0
 108 300 129 277 189 237 c 0
 260 189 290 157 290 108 c 0
 290 36 228 -13 148 -13 c 0
 113 -13 75 -3 50 14 c 1
 36 125 l 1
 65 125 l 1
 71 95 l 2
 80 49 110 21 158 21 c 0
 200 21 225 45 225 80 c 0
 225 110 200 138 133 182 c 0
 68 225 48 262 48 307 c 0
 48 366 103 413 173 413 c 0
 186 413 201 411 212 407 c 1
 213 409 l 1
 194 430 183 460 183 495 c 0
 183 568 240 633 330 633 c 0
 428 633 475 560 475 450 c 1
 475 405 l 1
 474 350 l 1
 475 348 l 1
 506 382 552 412 603 412 c 0
 700 412 781 334 781 212 c 0
 781 83 672 -10 565 -10 c 0
 532 -10 497 -3 476 5 c 1
 474 4 l 1
 475 -40 l 1
 475 -240 l 1
 555 -240 l 1
 555 -272 l 1
 340 -272 l 1
 340 -240 l 1
 405 -240 l 1
 405 455 l 1
475 71 m 1
 499 46 533 30 580 30 c 0
 652 30 710 83 710 183 c 0
 710 290 645 358 570 358 c 0
 536 358 501 344 475 322 c 1
 475 71 l 1
EndSplineSet
Fore
SplineSet
45 640 m 1
 445 640 l 1
 445 0 l 1
 45 0 l 1
 45 640 l 1
95 590 m 1
 95 50 l 1
 395 50 l 1
 395 590 l 1
 95 590 l 1
EndSplineSet
Layer: 2
SplineSet
420 450 m 1
 420 545 387 595 322 595 c 0
 264 595 223 555 223 497 c 0
 223 455 240 424 268 400 c 1
 276 290 l 1
 247 290 l 1
 244 314 l 2
 239 355 211 380 166 380 c 0
 134 380 109 361 109 332 c 0
 109 300 130 277 190 237 c 0
 261 189 291 157 291 108 c 0
 291 36 229 -13 149 -13 c 0
 114 -13 76 -3 51 14 c 1
 37 125 l 1
 66 125 l 1
 72 95 l 2
 81 49 111 21 159 21 c 0
 201 21 226 45 226 80 c 0
 226 110 201 138 134 182 c 0
 69 225 49 262 49 307 c 0
 49 366 104 413 174 413 c 0
 187 413 202 411 213 407 c 1
 214 409 l 1
 195 430 184 460 184 495 c 0
 184 570 245 635 336 635 c 0
 435 635 490 560 490 455 c 1
 490 405 l 1
 489 350 l 1
 490 348 l 1
 521 382 567 412 618 412 c 0
 715 412 796 334 796 212 c 0
 796 83 687 -10 580 -10 c 0
 547 -10 512 -3 491 5 c 1
 489 4 l 1
 490 -40 l 1
 490 -240 l 1
 570 -240 l 1
 570 -272 l 1
 355 -272 l 1
 355 -240 l 1
 420 -240 l 1
 420 450 l 1
490 71 m 1
 514 46 548 30 595 30 c 0
 667 30 725 83 725 183 c 0
 725 290 660 357 585 357 c 0
 551 357 516 344 490 322 c 1
 490 71 l 1
EndSplineSet
LCarets2: 1 0
Ligature2: "'dlig' Discretionary Ligatures lookup 12-1" s p
EndChar

StartChar: Th.liga
Encoding: 65538 -1 237
GlifName: T_h.liga
Width: 895
Flags: HMW
LayerCount: 3
Back
SplineSet
25 675 m 1
 55 675 l 1
 60 640 l 1
 575 640 l 1
 575 642 l 1
 574 665 l 1
 574 673 l 1
 635 705 l 1
 645 705 l 1
 645 390 l 1
 642 341 l 1
 645 340 l 1
 680 380 744 412 795 412 c 0
 865 412 915 370 915 290 c 2
 915 31 l 1
 980 31 l 1
 980 0 l 1
 795 0 l 1
 795 31 l 1
 845 31 l 1
 845 270 l 2
 845 325 808 360 755 360 c 0
 718 360 677 342 645 307 c 1
 645 31 l 1
 700 31 l 1
 700 0 l 1
 515 0 l 1
 515 31 l 1
 575 31 l 1
 575 602 l 1
 340 602 l 1
 340 31 l 1
 420 31 l 1
 420 0 l 1
 180 0 l 1
 180 31 l 1
 260 31 l 1
 260 602 l 1
 108 602 l 2
 70 602 47 580 32 512 c 2
 25 480 l 1
 -5 480 l 1
 25 675 l 1
EndSplineSet
Fore
SplineSet
636 678 m 1
 714 710 l 1
 719 705 l 1
 610 280 l 1
 593 222 l 1
 596 221 l 1
 660 337 740 413 805 413 c 0
 845 413 868 375 868 323 c 0
 868 220 820 107 750 37 c 0
 715 2 675 -13 648 -13 c 0
 624 -13 609 2 609 22 c 0
 609 41 624 56 643 56 c 0
 662 56 670 40 685 40 c 0
 740 40 797 180 797 290 c 0
 797 333 785 352 768 352 c 0
 710 352 595 205 563 80 c 2
 546 14 l 1
 510 -3 l 1
 480 -3 l 1
 628 602 l 1
 375 602 l 1
 240 32 l 1
 331 32 l 1
 331 0 l 1
 75 0 l 1
 75 32 l 1
 160 32 l 1
 295 602 l 25
 100 602 l 2
 70 602 59 590 42 540 c 2
 26 492 l 1
 -5 492 l 1
 45 690 l 1
 75 690 l 1
 75 640 l 1
 636 640 l 1
 636 678 l 1
EndSplineSet
Layer: 2
SplineSet
524 665 m 1
 524 673 l 1
 635 710 l 1
 645 710 l 1
 645 390 l 1
 642 341 l 1
 645 340 l 1
 680 380 744 412 795 412 c 0
 865 412 915 370 915 290 c 2
 915 32 l 1
 980 32 l 1
 980 0 l 1
 795 0 l 1
 795 32 l 1
 845 32 l 1
 845 270 l 2
 845 325 808 360 755 360 c 0
 718 360 677 342 645 307 c 1
 645 32 l 1
 700 32 l 1
 700 0 l 1
 515 0 l 1
 515 32 l 1
 575 32 l 1
 575 627 l 1
 524 665 l 1
25 675 m 1
 55 675 l 1
 60 640 l 1
 560 640 l 1
 570 675 l 1
 600 675 l 1
 590 475 l 1
 560 475 l 1
 560 518 l 2
 560 585 540 602 507 602 c 2
 340 602 l 1
 340 32 l 1
 422 32 l 1
 422 0 l 1
 178 0 l 1
 178 32 l 1
 260 32 l 1
 260 602 l 1
 108 602 l 2
 70 602 47 580 32 512 c 2
 25 480 l 1
 -5 480 l 1
 25 675 l 1
EndSplineSet
LCarets2: 1 0
Ligature2: "'dlig' Discretionary Ligatures lookup 12-1" T h
EndChar

StartChar: rr.ital
Encoding: 65539 -1 238
GlifName: rr.ital
Width: 655
Flags: HMW
LayerCount: 3
Back
SplineSet
652 318 m 1
 646 321 635 323 627 323 c 0
 567 323 507 250 460 110 c 2
 428 15 l 1
 395 -3 l 1
 360 -3 l 1
 410 160 l 2
 426 212 432 253 432 285 c 0
 432 325 421 345 405 345 c 0
 385 345 360 330 337 305 c 1
 335 305 l 1
 330 312 319 317 307 317 c 0
 254 317 197 250 150 110 c 2
 118 15 l 1
 85 -3 l 1
 50 -3 l 1
 100 160 l 2
 116 212 122 253 122 285 c 0
 122 325 111 345 95 345 c 0
 75 345 48 330 20 300 c 1
 5 320 l 1
 45 375 100 414 140 414 c 0
 168 414 186 392 186 345 c 0
 186 316 179 277 162 228 c 1
 167 225 l 1
 220 330 285 405 355 405 c 0
 368 405 379 397 385 382 c 1
 405 403 430 414 450 414 c 0
 478 414 496 392 496 345 c 0
 496 316 489 277 472 228 c 1
 477 225 l 1
 530 330 595 414 665 414 c 0
 675 414 690 410 695 405 c 1
 652 318 l 1
EndSplineSet
Fore
SplineSet
274 350 m 0
 274 378 297 401 325 401 c 0
 353 401 376 378 376 350 c 0
 376 322 353 299 325 299 c 0
 297 299 274 322 274 350 c 0
EndSplineSet
EndChar

StartChar: longs
Encoding: 383 383 239
GlifName: longs
Width: 215
Flags: HMW
LayerCount: 3
Back
SplineSet
162 31 m 1
 238 31 l 1
 238 0 l 1
 32 0 l 1
 32 31 l 1
 92 31 l 1
 92 358 l 1
 37 358 l 1
 37 379 l 1
 92 404 l 1
 92 435 l 2
 92 595 217 698 302 698 c 0
 327 698 354 690 372 676 c 1
 342 617 l 1
 340 617 l 1
 317 632 286 640 264 640 c 0
 207 640 162 600 162 475 c 2
 162 31 l 1
EndSplineSet
Fore
SplineSet
115 415 m 2
 135 505 171 581 224 634 c 0
 264 674 310 698 355 698 c 0
 382 698 416 689 440 669 c 1
 402 615 l 1
 400 615 l 1
 380 629 354 642 325 642 c 0
 256 642 220 593 182 426 c 2
 85 5 l 2
 41 -185 -50 -261 -150 -261 c 0
 -167 -261 -193 -257 -210 -250 c 1
 -185 -190 l 1
 -183 -190 l 1
 -163 -201 -132 -208 -110 -208 c 0
 -55 -208 -18 -175 15 -28 c 2
 115 415 l 2
EndSplineSet
Layer: 2
SplineSet
340 617 m 1
 317 632 286 640 264 640 c 0
 207 640 162 600 162 475 c 2
 162 400 l 1
 277 400 l 1
 272 357 l 1
 162 357 l 1
 162 32 l 1
 247 32 l 1
 247 0 l 1
 32 0 l 1
 32 32 l 1
 92 32 l 1
 92 357 l 1
 35 357 l 1
 35 378 l 1
 92 404 l 1
 92 435 l 2
 92 595 217 698 302 698 c 0
 327 698 354 690 372 676 c 1
 342 617 l 1
 340 617 l 1
EndSplineSet
EndChar

StartChar: uni2604
Encoding: 9732 9732 240
GlifName: uni2604
Width: 1000
Flags: HMW
LayerCount: 3
Back
SplineSet
316 196 m 1
 453 326 682 475 842 534 c 1
 849 515 l 1
 856 495 l 1
 703 439 468 300 336 176 c 1
 316 196 l 1
229 247 m 1
 334 403 525 598 668 690 c 1
 679 672 l 1
 691 654 l 1
 555 568 353 381 252 231 c 1
 229 247 l 1
355 102 m 1
 517 199 771 301 941 323 c 1
 943 302 l 1
 945 282 l 1
 785 261 527 169 370 77 c 1
 355 102 l 1
75 30 m 0
 75 85 120 130 175 130 c 0
 230 130 275 85 275 30 c 0
 275 -25 230 -70 175 -70 c 0
 120 -70 75 -25 75 30 c 0
EndSplineSet
Fore
SplineSet
316 196 m 5
 453 327 682 475 842 534 c 1
 849 515 l 1
 856 495 l 1
 703 439 469 300 336 176 c 5
 316 196 l 5
229 247 m 1
 334 403 525 598 668 690 c 1
 679 672 l 1
 691 654 l 1
 555 568 354 381 252 231 c 5
 229 247 l 1
355 102 m 1
 517 199 771 301 941 323 c 1
 943 302 l 1
 945 282 l 1
 785 261 527 169 370 77 c 1
 355 102 l 1
75 30 m 0
 75 85 120 130 175 130 c 0
 230 130 275 85 275 30 c 0
 275 -25 230 -70 175 -70 c 0
 120 -70 75 -25 75 30 c 0
EndSplineSet
EndChar

StartChar: uni2E3A
Encoding: 11834 11834 241
GlifName: uni2E_3A_
Width: 1950
Flags: HMW
LayerCount: 3
Back
SplineSet
25 240 m 1
 1925 240 l 1
 1925 200 l 1
 25 200 l 1
 25 240 l 1
EndSplineSet
Fore
SplineSet
25 240 m 1
 1925 240 l 1
 1925 200 l 1
 25 200 l 1
 25 240 l 1
EndSplineSet
EndChar

StartChar: uni2E3B
Encoding: 11835 11835 242
GlifName: uni2E_3B_
Width: 2930
Flags: HMW
LayerCount: 3
Back
SplineSet
25 240 m 1
 2905 240 l 1
 2905 200 l 1
 25 200 l 1
 25 240 l 1
EndSplineSet
Fore
SplineSet
25 240 m 1
 2905 240 l 1
 2905 200 l 1
 25 200 l 1
 25 240 l 1
EndSplineSet
EndChar

StartChar: uni3003
Encoding: 12291 12291 243
GlifName: uni3003
Width: 470
Flags: HMW
LayerCount: 3
Back
SplineSet
177 530 m 1
 255 500 l 1
 255 495 l 1
 75 150 l 1
 40 165 l 1
 177 530 l 1
412 465 m 1
 490 435 l 1
 490 430 l 1
 310 85 l 1
 275 100 l 1
 412 465 l 1
EndSplineSet
Fore
SplineSet
45 640 m 1
 445 640 l 1
 445 0 l 1
 45 0 l 1
 45 640 l 1
95 590 m 1
 95 50 l 1
 395 50 l 1
 395 590 l 1
 95 590 l 1
EndSplineSet
EndChar

StartChar: kgreenlandic
Encoding: 312 312 244
GlifName: kgreenlandic
Width: 425
Flags: HMW
LayerCount: 3
Back
SplineSet
156 200 m 1
 153 200 l 1
 97 15 l 1
 60 -3 l 1
 30 -3 l 1
 104 237 l 2
 118 283 123 312 123 330 c 0
 123 343 119 350 112 350 c 0
 97 350 65 330 35 300 c 1
 20 318 l 1
 70 375 127 414 162 414 c 0
 180 414 194 402 194 372 c 0
 194 342 177 280 155 221 c 1
 158 220 l 1
 245 340 325 414 397 414 c 0
 409 414 421 410 429 405 c 1
 388 329 l 1
 379 334 368 337 357 337 c 0
 310 337 251 291 203 232 c 1
 261 135 l 2
 300 70 320 46 335 46 c 0
 350 46 371 64 391 105 c 1
 412 92 l 1
 383 24 346 -14 311 -14 c 0
 276 -14 255 15 210 95 c 2
 171 164 l 1
 156 200 l 1
151 200 m 1
 148 200 l 1
 92 15 l 1
 55 -3 l 1
 25 -3 l 1
 99 237 l 2
 113 283 118 312 118 330 c 0
 118 343 114 350 107 350 c 0
 92 350 60 330 30 300 c 1
 15 318 l 1
 65 375 122 414 157 414 c 0
 175 414 189 402 189 372 c 0
 189 342 172 280 150 221 c 1
 153 220 l 1
 240 340 320 414 392 414 c 0
 404 414 416 410 424 405 c 1
 383 329 l 1
 374 334 363 337 352 337 c 0
 305 337 246 291 198 232 c 1
 256 135 l 2
 295 70 315 46 330 46 c 0
 345 46 366 64 386 105 c 1
 407 92 l 1
 378 24 341 -14 306 -14 c 0
 271 -14 250 15 205 95 c 2
 166 164 l 1
 151 200 l 1
-368.731445312 454.525390625 m 1
 -176.689453125 129.724609375 l 2
 -137.275390625 63.970703125 -121.15625 45.072265625 -106.157226562 45.1650390625 c 0
 -91.1572265625 45.259765625 -69.2763671875 64.3974609375 -46.5595703125 109.541015625 c 1
 -26.47265625 95.6669921875 l 1
 -58.0322265625 25.466796875 -95.787109375 -13.76953125 -130.786132812 -13.990234375 c 0
 -163.78515625 -14.197265625 -183.966796875 14.6767578125 -229.467773438 94.392578125 c 2
 -407.461914062 411.28125 l 1
 -368.731445312 454.525390625 l 1
-248 211 m 1
 -245 209 l 1
 -188 325 -118 414 -48 414 c 0
 -38 414 -23 410 -18 405 c 1
 -61 318 l 1
 -67 321 -78 323 -86 323 c 0
 -146 323 -206 250 -253 110 c 1026
-150 363 m 0
 -115 398 -75 413 -48 413 c 0
 -24 413 -9 398 -9 378 c 0
 -9 359 -24 344 -43 344 c 0
 -62 344 -70 360 -85 360 c 1024
-248 272 m 2
 -267 226 l 1
 -240 296 -229 342 -229 371 c 0
 -229 402 -242 414 -260 414 c 0
 -297 414 -356 375 -404 320 c 1
 -390 301 l 1
 -358 332 -325 350 -311 350 c 0
 -304 350 -300 343 -300 330 c 0
 -300 312 -305 283 -320 235 c 2
 -395 -3 l 1
 -365 -3 l 1
 -327 15 l 1
 -248 272 l 2
EndSplineSet
Fore
SplineSet
155 205 m 1
 247 332 328 414 405 414 c 0
 417 414 429 410 437 405 c 1
 396 329 l 1
 387 334 376 337 365 337 c 0
 318 337 273 305 213 232 c 1
 271 135 l 2
 310 70 330 46 345 46 c 0
 360 46 381 64 401 105 c 1
 422 92 l 1
 393 24 356 -14 321 -14 c 0
 286 -14 266 15 220 94 c 2
 155 205 l 1
154 212 m 1
 97 15 l 1
 60 -3 l 1
 30 -3 l 1
 104 237 l 2
 118 283 123 312 123 330 c 0
 123 343 119 350 112 350 c 0
 97 350 65 330 35 300 c 1
 20 318 l 1
 70 375 127 414 162 414 c 0
 180 414 194 402 194 372 c 0
 194 342 179 285 154 212 c 1
EndSplineSet
Layer: 2
SplineSet
155 190 m 1
 151 190 l 1
 98 15 l 1
 60 -3 l 1
 30 -3 l 1
 104 237 l 2
 119 285 123 312 123 330 c 0
 123 343 119 350 112 350 c 0
 98 350 65 332 33 301 c 1
 19 320 l 1
 67 375 126 414 163 414 c 0
 181 414 194 402 194 371 c 0
 194 342 177 280 155 221 c 1
 158 220 l 1
 235 340 325 414 397 414 c 0
 409 414 421 410 429 405 c 1
 388 329 l 1
 379 334 368 337 357 337 c 0
 310 337 245 288 199 230 c 1
 255 135 l 2
 294 68 314 46 329 46 c 0
 344 46 365 64 385 105 c 1
 406 92 l 1
 377 24 340 -14 305 -14 c 0
 270 -14 250 15 205 95 c 2
 167 164 l 1
 155 190 l 1
150 190 m 1
 146 190 l 1
 93 15 l 1
 55 -3 l 1
 25 -3 l 1
 99 237 l 2
 114 285 118 312 118 330 c 0
 118 343 114 350 107 350 c 0
 93 350 60 332 28 301 c 1
 14 320 l 1
 62 375 121 414 158 414 c 0
 176 414 189 402 189 371 c 0
 189 342 172 280 150 221 c 1
 153 220 l 1
 230 340 320 414 392 414 c 0
 404 414 416 410 424 405 c 1
 383 329 l 1
 374 334 363 337 352 337 c 0
 305 337 240 288 194 230 c 5
 250 135 l 6
 289 68 309 46 324 46 c 0
 339 46 360 64 380 105 c 1
 401 92 l 1
 372 24 335 -14 300 -14 c 0
 265 -14 245 15 200 95 c 2
 162 164 l 1
 150 190 l 1
616 177 m 1
 612 177 l 1
 563 15 l 1
 525 -3 l 1
 495 -3 l 1
 570 235 l 2
 585 283 590 312 590 330 c 0
 590 343 586 350 579 350 c 0
 565 350 532 332 500 301 c 1
 486 320 l 1
 534 375 593 414 630 414 c 0
 648 414 661 402 661 371 c 0
 661 342 650 297 629 241 c 1
 632 240 l 1
 706 355 780 414 852 414 c 0
 864 414 876 410 884 405 c 1
 843 329 l 1
 834 334 823 337 812 337 c 0
 765 337 700 288 654 230 c 1
 710 135 l 2
 749 68 769 46 784 46 c 0
 799 46 820 64 840 105 c 1
 861 92 l 1
 832 24 795 -14 760 -14 c 0
 725 -14 705 15 660 95 c 2
 632 145 l 1
 616 177 l 1
1124 247 m 1
 1190 135 l 2
 1229 68 1249 46 1264 46 c 0
 1279 46 1302 64 1323 110 c 1
 1344 97 l 1
 1314 25 1275 -14 1240 -14 c 0
 1205 -14 1185 15 1140 95 c 2
 1084 195 l 1
 1124 247 l 1
1290 337 m 1
 1220 337 1107 221 1080 135 c 2
 1043 15 l 1
 1005 -3 l 1
 975 -3 l 1
 1050 235 l 2
 1065 283 1070 312 1070 330 c 0
 1070 343 1066 350 1059 350 c 0
 1045 350 1012 332 980 301 c 1
 966 320 l 1
 1014 375 1073 414 1110 414 c 0
 1128 414 1141 402 1141 371 c 0
 1141 342 1130 297 1109 241 c 1
 1112 240 l 1
 1186 355 1260 414 1332 414 c 1
 1344 414 1357 409 1365 403 c 1
 1325 328 l 1
 1315 334 1302 337 1290 337 c 1
EndSplineSet
EndChar

StartChar: ampersand.ital
Encoding: 65540 -1 245
GlifName: ampersand.ital
Width: 1000
Flags: HM
LayerCount: 3
Back
SplineSet
80 273 m 1
 145 325 l 2
 197 367 207 397 207 425 c 0
 207 462 180 485 152 485 c 0
 102 485 68 417 68 355 c 0
 68 327 72 299 80 273 c 1
290 440 m 2
 354 491 375 540 380 570 c 1
 459 586 l 1
 460 585 l 1
 450 545 383 470 305 410 c 2
 90 244 l 1
 138 127 257 42 400 42 c 0
 550 42 635 130 635 240 c 0
 635 320 597 390 535 390 c 0
 493 390 460 362 460 315 c 0
 460 305 463 292 467 285 c 1
 467 283 l 1
 403 245 l 1
 398 255 395 268 395 280 c 0
 395 355 490 437 580 437 c 0
 660 437 750 385 810 385 c 0
 850 385 870 408 870 440 c 0
 870 452 866 470 860 480 c 1
 860 482 l 1
 925 522 l 1
 928 513 930 500 930 490 c 0
 930 415 855 332 775 332 c 0
 710 332 674 365 624 373 c 1
 622 369 l 1
 670 337 690 295 690 258 c 0
 690 123 560 -12 370 -12 c 0
 145 -12 17 170 17 325 c 0
 17 450 110 535 185 535 c 0
 232 535 265 498 265 453 c 0
 265 438 252 420 245 412 c 1
 251 409 l 1
 290 440 l 2
EndSplineSet
Fore
Validated: 1
Layer: 2
SplineSet
80 273 m 1
 145 325 l 2
 197 367 207 397 207 425 c 0
 207 462 182 485 152 485 c 0
 102 485 68 417 68 355 c 0
 68 327 72 299 80 273 c 1
290 440 m 2
 354 491 375 540 380 570 c 1
 459 586 l 1
 460 585 l 1
 450 545 383 470 305 410 c 2
 90 244 l 1
 138 127 257 42 400 42 c 0
 550 42 635 130 635 240 c 0
 635 320 597 390 535 390 c 0
 493 390 460 362 460 315 c 0
 460 305 462 293 466 285 c 1
 466 283 l 1
 402 245 l 1
 398 254 395 268 395 280 c 0
 395 355 490 437 580 437 c 0
 660 437 750 385 810 385 c 0
 850 385 870 408 870 440 c 0
 870 452 866 470 860 480 c 1
 860 482 l 1
 925 522 l 1
 928 513 930 500 930 490 c 0
 930 415 855 332 775 332 c 0
 710 332 674 365 624 373 c 1
 623 370 l 1
 670 337 690 295 690 258 c 0
 690 123 560 -12 370 -12 c 0
 145 -12 17 170 17 325 c 0
 17 450 110 535 185 535 c 0
 230 535 264 501 264 460 c 0
 264 440 254 419 246 410 c 1
 249 407 l 1
 290 440 l 2
EndSplineSet
EndChar

StartChar: Q.alt
Encoding: 65541 -1 246
GlifName: Q_.alt
Width: 680
Flags: HMW
LayerCount: 3
Back
SplineSet
129 335 m 0
 129 153 236 23 380 23 c 0
 515 23 611 143 611 305 c 0
 611 487 504 618 360 618 c 0
 225 618 129 497 129 335 c 0
35 320 m 0
 35 507 183 654 370 654 c 0
 557 654 705 507 705 320 c 0
 705 175 617 53 484 6 c 1
 484 4 l 1
 550 -37 l 2
 725 -146 927 -197 1120 -197 c 0
 1195 -197 1290 -180 1350 -150 c 1
 1360 -170 l 1
 1280 -225 1170 -255 1065 -255 c 0
 865 -255 670 -196 465 -73 c 2
 367 -14 l 1
 182 -13 35 134 35 320 c 0
EndSplineSet
Fore
SplineSet
123 255 m 0
 123 107 190 24 291 24 c 0
 443 24 567 200 567 385 c 0
 567 533 500 617 399 617 c 0
 247 617 123 440 123 255 c 0
160 -125 m 1
 160 -128 l 1
 400 -178 560 -210 790 -210 c 3
 940 -210 1045 -180 1124 -133 c 1
 1140 -150 l 1
 1065 -225 935 -285 775 -285 c 3
 520 -285 330 -207 98 -162 c 1
 80 -172 52 -183 30 -183 c 3
 2 -183 -22 -169 -22 -140 c 3
 -22 -114 2 -100 30 -100 c 0
 55 -100 85 -110 107 -115 c 1
 177 -87 250 -53 305 -15 c 1
 305 -12 l 1
 297 -13 285 -14 275 -14 c 0
 120 -14 30 90 30 235 c 0
 30 445 210 654 415 654 c 0
 570 654 660 550 660 405 c 0
 660 175 475 5 160 -125 c 1
EndSplineSet
EndChar

StartChar: OE
Encoding: 338 338 247
GlifName: O_E_
Width: 885
Flags: HMW
LayerCount: 3
Back
SplineSet
490 57 m 1
 490 577 l 1
 455 602 410 614 361 614 c 0
 225 614 129 497 129 333 c 0
 129 150 235 27 379 27 c 0
 425 27 465 37 490 57 c 1
485 640 m 2
 860 640 l 1
 865 490 l 1
 836 490 l 1
 832 524 l 2
 824 590 802 604 760 604 c 2
 570 604 l 1
 570 352 l 1
 765 352 l 1
 765 420 l 1
 795 420 l 1
 795 335 l 1
 795 240 l 1
 765 240 l 1
 765 315 l 1
 570 315 l 1
 570 68 l 2
 570 48 580 38 600 38 c 2
 750 38 l 2
 810 38 838 62 862 147 c 2
 870 175 l 1
 900 175 l 1
 865 0 l 1
 485 0 l 2
 450 0 425 -10 370 -10 c 0
 183 -10 35 133 35 320 c 0
 35 507 183 650 370 650 c 0
 425 650 450 640 485 640 c 2
EndSplineSet
Fore
SplineSet
270 -10 m 3
 120 -10 25 100 25 245 c 0
 25 450 195 650 400 650 c 3
 455 650 485 640 520 640 c 1
 879 640 l 1
 854 490 l 1
 825 490 l 1
 829 545 l 2
 832 587 816 604 776 604 c 2
 593 604 l 1
 547 360 l 1
 736 360 l 1
 747 425 l 1
 778 425 l 1
 750 245 l 1
 719 245 l 1
 731 323 l 1
 540 323 l 1
 491 65 l 2
 488 47 495 38 514 38 c 2
 675 38 l 2
 745 38 777 60 812 120 c 2
 835 160 l 1
 866 160 l 1
 790 0 l 1
 390 0 l 2
 355 0 325 -10 270 -10 c 3
410 57 m 1
 510 582 l 1
 475 605 435 612 385 612 c 0
 235 612 118 440 118 260 c 0
 118 115 185 27 285 27 c 0
 335 27 375 35 410 57 c 1
EndSplineSet
Substitution2: "'c2sc' Capitals to Small Capitals in Latin lookup 9-1" oe.smcp
EndChar

StartChar: oe
Encoding: 339 339 248
GlifName: oe
Width: 548
Flags: HMW
LayerCount: 3
Back
SplineSet
453 280 m 1
 640 280 l 1
 640 340 608 376 560 376 c 0
 512 376 468 343 453 280 c 1
110 210 m 0
 110 110 168 23 248 23 c 0
 322 23 370 92 370 190 c 0
 370 290 312 378 233 378 c 0
 158 378 110 308 110 210 c 0
28 200 m 0
 28 318 122 412 240 412 c 0
 315 412 375 375 410 316 c 1
 413 316 l 1
 445 375 506 412 572 412 c 0
 658 412 715 350 715 265 c 2
 715 250 l 1
 447 250 l 1
 446 242 445 227 445 215 c 0
 445 115 510 52 590 52 c 0
 640 52 675 71 700 100 c 1
 715 87 l 1
 685 30 625 -12 557 -12 c 0
 495 -12 437 22 408 77 c 1
 405 77 l 1
 370 20 308 -12 240 -12 c 0
 122 -12 28 82 28 200 c 0
EndSplineSet
Fore
SplineSet
336 221 m 1
 444 244 483 305 483 345 c 0
 483 363 473 373 458 373 c 0
 412 373 361 300 336 221 c 1
100 150 m 0
 100 70 123 25 158 25 c 0
 213 25 266 135 266 250 c 0
 266 330 243 375 208 375 c 0
 153 375 100 265 100 150 c 0
26 130 m 0
 26 275 118 413 233 413 c 0
 283 413 318 372 330 311 c 1
 332 311 l 1
 376 372 428 413 478 413 c 0
 518 413 543 385 543 350 c 0
 543 285 484 217 329 194 c 1
 324 171 320 148 320 127 c 0
 320 77 343 54 375 54 c 0
 406 54 441 74 476 123 c 1
 491 105 l 1
 440 22 378 -13 335 -13 c 0
 293 -13 269 15 264 57 c 1
 262 57 l 1
 232 15 183 -13 133 -13 c 0
 73 -13 26 50 26 130 c 0
EndSplineSet
Layer: 2
SplineSet
452 280 m 1
 640 280 l 1
 640 340 608 376 560 376 c 0
 510 376 469 343 452 280 c 1
446 250 m 1
 445 240 444 227 444 215 c 0
 444 115 509 52 590 52 c 0
 637 52 675 70 699 96 c 1
 714 82 l 1
 685 33 630 -12 560 -12 c 0
 460 -12 375 67 375 195 c 0
 375 310 461 412 572 412 c 0
 655 412 715 353 715 265 c 2
 715 250 l 1
 446 250 l 1
EndSplineSet
Substitution2: "'smcp' Lowercase to Small Capitals in Latin lookup 8-1" oe.smcp
EndChar

StartChar: uni203B
Encoding: 8251 8251 249
GlifName: uni203B_
Width: 470
Flags: HMW
LayerCount: 3
Back
SplineSet
350 350 m 1
 560 560 l 1
 590 530 l 1
 380 320 l 1
 590 110 l 1
 560 80 l 1
 350 290 l 1
 140 80 l 1
 110 110 l 1
 320 320 l 1
 110 530 l 1
 140 560 l 1
 350 350 l 1
305 570 m 0
 305 595 325 615 350 615 c 0
 375 615 395 595 395 570 c 0
 395 545 375 525 350 525 c 0
 325 525 305 545 305 570 c 0
305 70 m 0
 305 95 325 115 350 115 c 0
 375 115 395 95 395 70 c 0
 395 45 375 25 350 25 c 0
 325 25 305 45 305 70 c 0
55 320 m 0
 55 345 75 365 100 365 c 0
 125 365 145 345 145 320 c 0
 145 295 125 275 100 275 c 0
 75 275 55 295 55 320 c 0
555 320 m 0
 555 345 575 365 600 365 c 0
 625 365 645 345 645 320 c 0
 645 295 625 275 600 275 c 0
 575 275 555 295 555 320 c 0
EndSplineSet
Fore
SplineSet
45 640 m 1
 445 640 l 1
 445 0 l 1
 45 0 l 1
 45 640 l 1
95 590 m 1
 95 50 l 1
 395 50 l 1
 395 590 l 1
 95 590 l 1
EndSplineSet
EndChar

StartChar: figuredash
Encoding: 8210 8210 250
GlifName: figuredash
Width: 480
Flags: HMW
LayerCount: 3
Back
SplineSet
50 243 m 1
 430 243 l 1
 430 197 l 1
 50 197 l 1
 50 243 l 1
EndSplineSet
Fore
SplineSet
53 243 m 1
 433 243 l 1
 425 197 l 1
 45 197 l 1
 53 243 l 1
EndSplineSet
EndChar

StartChar: uni204A
Encoding: 8266 8266 251
GlifName: uni204A_
Width: 470
Flags: HMW
LayerCount: 3
Back
SplineSet
175 -34 m 2
 317 343 l 1
 317 345 l 1
 86 345 l 2
 61 345 45 335 37 295 c 2
 33 275 l 1
 5 275 l 1
 30 426 l 1
 58 426 l 1
 58 400 l 1
 365 400 l 1
 365 360 l 1
 195 -85 l 2
 170 -150 131 -185 96 -185 c 1
 73 -120 l 1
 73 -118 l 1
 130 -112 153 -93 175 -34 c 2
EndSplineSet
Fore
SplineSet
45 640 m 1
 445 640 l 1
 445 0 l 1
 45 0 l 1
 45 640 l 1
95 590 m 1
 95 50 l 1
 395 50 l 1
 395 590 l 1
 95 590 l 1
EndSplineSet
EndChar

StartChar: uniFB00
Encoding: 64256 64256 252
GlifName: uniF_B_00
Width: 465
Flags: HMW
LayerCount: 3
Back
SplineSet
430 626 m 257
 470 671 524 698 567 698 c 256
 592 698 619 690 637 676 c 257
 607 617 l 257
 605 617 l 257
 582 632 551 640 529 640 c 256
 472 640 427 600 427 475 c 258
 427 400 l 257
 540 400 l 257
 535 358 l 257
 427 358 l 257
 427 31 l 257
 512 31 l 257
 512 0 l 257
 297 0 l 257
 297 31 l 257
 357 31 l 257
 357 358 l 257
 162 358 l 257
 162 31 l 257
 240 31 l 257
 240 0 l 257
 32 0 l 257
 32 31 l 257
 92 31 l 257
 92 358 l 257
 37 358 l 257
 37 379 l 257
 92 404 l 257
 92 410 l 257
 96 553 217 663 322 663 c 256
 362 663 402 647 428 626 c 257
 430 626 l 257
162 399 m 257
 342 399 l 257
 357 405 l 257
 357 435 l 258
 357 488 371 537 393 574 c 257
 367 597 331 610 292 610 c 256
 217 610 162 562 162 440 c 258
 162 399 l 257
EndSplineSet
Fore
SplineSet
167 360 m 1
 85 5 l 2
 41 -185 -50 -261 -150 -261 c 0
 -167 -261 -193 -257 -210 -250 c 1
 -185 -190 l 1
 -183 -190 l 1
 -163 -201 -132 -208 -110 -208 c 0
 -55 -208 -18 -175 15 -28 c 2
 103 360 l 1
 40 360 l 1
 40 395 l 1
 95 400 l 1
 112 400 l 1
 114 409 l 2
 144 542 255 672 380 672 c 0
 410 672 438 660 459 644 c 1
 460 644 l 1
 497 678 539 698 580 698 c 0
 607 698 641 689 665 669 c 1
 627 615 l 1
 625 615 l 1
 605 629 579 642 550 642 c 0
 481 642 446 595 407 426 c 2
 401 400 l 1
 500 400 l 1
 500 360 l 1
 392 360 l 1
 310 5 l 2
 266 -185 175 -261 75 -261 c 0
 58 -261 32 -257 15 -250 c 1
 40 -190 l 1
 42 -190 l 1
 62 -201 93 -208 115 -208 c 0
 170 -208 207 -175 240 -28 c 2
 328 360 l 1
 167 360 l 1
337 400 m 1
 340 415 l 2
 356 485 381 547 416 596 c 1
 398 609 373 618 348 618 c 0
 271 618 219 580 182 425 c 2
 176 400 l 1
 337 400 l 1
EndSplineSet
Layer: 2
SplineSet
608 617 m 1
 586 631 556 640 533 640 c 0
 475 640 430 600 430 475 c 2
 430 400 l 1
 545 400 l 1
 540 357 l 1
 430 357 l 1
 430 32 l 1
 515 32 l 1
 515 0 l 1
 300 0 l 1
 300 32 l 1
 360 32 l 1
 360 364 l 1
 304 364 l 1
 304 380 l 1
 360 406 l 1
 360 435 l 2
 360 595 485 698 570 698 c 0
 595 698 621 690 640 676 c 1
 610 617 l 1
 608 617 l 1
397 570 m 1
 372 595 332 611 292 611 c 0
 217 611 162 565 162 445 c 2
 162 399 l 1
 387 399 l 1
 382 359 l 1
 162 359 l 1
 162 32 l 1
 237 32 l 1
 237 0 l 1
 32 0 l 1
 32 32 l 1
 92 32 l 1
 92 357 l 1
 35 357 l 1
 35 378 l 1
 92 404 l 1
 92 410 l 2
 92 550 217 664 322 664 c 0
 364 664 402 646 430 623 c 1
 437 623 l 1
 397 570 l 1
950 590 m 1
 927 605 895 620 865 620 c 0
 792 620 742 580 742 455 c 2
 742 400 l 1
 867 400 l 1
 862 357 l 1
 742 357 l 1
 742 32 l 1
 827 32 l 1
 827 0 l 1
 612 0 l 1
 612 32 l 1
 672 32 l 1
 672 357 l 1
 615 357 l 1
 615 378 l 1
 672 404 l 1
 672 420 l 2
 672 570 797 668 902 668 c 0
 927 668 962 659 982 645 c 1
 952 590 l 1
 950 590 l 1
EndSplineSet
Substitution2: "'ss11' Style Set 11 lookup 19-1" ff.alt
LCarets2: 1 0
Ligature2: "'liga' Standard Ligatures in Latin lookup 2-1" f f
EndChar

StartChar: uniFB01
Encoding: 64257 64257 253
GlifName: uniF_B_01
Width: 455
Flags: HMW
LayerCount: 3
Back
SplineSet
316 361 m 1
 316 369 l 1
 427 415 l 1
 437 415 l 1
 437 32 l 1
 509 32 l 1
 509 0 l 1
 299 0 l 1
 299 32 l 1
 367 32 l 1
 367 319 l 1
 316 361 l 1
362 588 m 0
 362 613 382 633 407 633 c 0
 432 633 452 613 452 588 c 0
 452 563 432 543 407 543 c 0
 382 543 362 563 362 588 c 0
340 617 m 1
 317 632 286 640 264 640 c 0
 207 640 162 600 162 475 c 2
 162 400 l 1
 277 400 l 1
 272 357 l 1
 162 357 l 1
 162 32 l 1
 247 32 l 1
 247 0 l 1
 32 0 l 1
 32 32 l 1
 92 32 l 1
 92 357 l 1
 35 357 l 1
 35 378 l 1
 92 404 l 1
 92 435 l 2
 92 595 217 698 302 698 c 0
 327 698 354 690 372 676 c 1
 342 617 l 1
 340 617 l 1
EndSplineSet
Fore
SplineSet
385 403 m 0
 403 403 410 394 410 378 c 0
 410 368 408 356 403 342 c 2
 320 88 l 2
 318 82 317 77 317 73 c 0
 317 67 319 64 324 64 c 0
 336 64 375 85 420 140 c 1
 435 121 l 1
 370 35 307 -14 272 -14 c 0
 251 -14 241 1 241 24 c 0
 241 37 244 53 250 70 c 2
 334 326 l 2
 337 336 339 344 339 350 c 0
 339 358 336 360 330 360 c 2
 167 360 l 1
 85 5 l 2
 41 -185 -50 -261 -150 -261 c 0
 -167 -261 -193 -257 -210 -250 c 1
 -185 -190 l 1
 -183 -190 l 1
 -163 -201 -132 -208 -110 -208 c 0
 -55 -208 -18 -175 15 -28 c 2
 103 360 l 1
 40 360 l 1
 40 395 l 1
 95 400 l 1
 112 400 l 1
 114 409 l 2
 135 505 180 575 235 630 c 0
 277 672 344 698 390 698 c 0
 420 698 455 689 480 669 c 1
 440 616 l 1
 438 616 l 1
 417 631 390 642 360 642 c 0
 280 642 221 595 182 426 c 2
 176 400 l 1
 255 400 l 2
 340 400 365 403 385 403 c 0
EndSplineSet
Layer: 2
SplineSet
382 605 m 257
 357 625 317 642 282 642 c 256
 212 642 162 595 162 470 c 258
 162 399 l 257
 374 399 l 257
 422 415 l 257
 432 415 l 257
 432 32 l 257
 504 32 l 257
 504 0 l 257
 299 0 l 257
 299 32 l 257
 362 32 l 257
 362 330 l 257
 337 359 l 257
 162 359 l 257
 162 32 l 257
 237 32 l 257
 237 0 l 257
 32 0 l 257
 32 32 l 257
 92 32 l 257
 92 357 l 257
 35 357 l 257
 35 378 l 257
 92 404 l 257
 92 425 l 258
 92 585 207 698 327 698 c 256
 362 698 399 684 422 664 c 257
 384 605 l 257
 382 605 l 257
EndSplineSet
LCarets2: 1 0
Ligature2: "'liga' Standard Ligatures in Latin lookup 2-1" f i
EndChar

StartChar: uniFB02
Encoding: 64258 64258 254
GlifName: uniF_B_02
Width: 480
Flags: HMW
LayerCount: 3
Back
SplineSet
318 665 m 1
 318 673 l 1
 429 710 l 1
 439 710 l 1
 439 32 l 1
 511 32 l 1
 511 0 l 1
 302 0 l 1
 302 32 l 1
 369 32 l 1
 369 625 l 1
 318 665 l 1
EndSplineSet
Fore
SplineSet
115 415 m 2
 135 505 172 581 225 634 c 0
 265 674 311 697 355 697 c 0
 371 697 390 694 408 686 c 1
 409 686 l 1
 495 710 l 1
 500 705 l 1
 338 95 l 2
 335 84 334 79 334 76 c 0
 334 69 337 65 343 65 c 0
 356 65 400 95 448 158 c 1
 465 140 l 1
 395 45 333 -13 299 -13 c 0
 275 -13 264 7 264 35 c 0
 264 46 267 61 270 73 c 2
 410 615 l 1
 392 632 365 642 337 642 c 0
 257 642 222 600 184 435 c 2
 176 400 l 1
 275 400 l 1
 275 360 l 1
 167 360 l 1
 85 5 l 2
 41 -185 -50 -261 -150 -261 c 0
 -167 -261 -193 -257 -210 -250 c 1
 -185 -190 l 1
 -183 -190 l 1
 -163 -201 -132 -208 -110 -208 c 0
 -55 -208 -18 -175 15 -28 c 2
 103 360 l 1
 40 360 l 1
 40 395 l 1
 95 400 l 1
 112 400 l 1
 115 415 l 2
EndSplineSet
Layer: 2
SplineSet
367 614 m 1
 349 630 317 639 287 639 c 0
 212 639 162 590 162 466 c 2
 162 400 l 1
 272 400 l 1
 267 357 l 1
 162 357 l 1
 162 32 l 1
 242 32 l 1
 242 0 l 1
 32 0 l 1
 32 32 l 1
 92 32 l 1
 92 357 l 1
 35 357 l 1
 35 378 l 1
 92 404 l 1
 92 425 l 2
 92 583 217 695 322 695 c 0
 338 695 357 692 370 688 c 1
 427 710 l 1
 437 710 l 1
 437 32 l 1
 509 32 l 1
 509 0 l 1
 300 0 l 1
 300 32 l 1
 367 32 l 1
 367 614 l 1
EndSplineSet
LCarets2: 1 0
Ligature2: "'liga' Standard Ligatures in Latin lookup 2-1" f l
EndChar

StartChar: uniFB03
Encoding: 64259 64259 255
GlifName: uniF_B_03
Width: 680
Flags: HMW
LayerCount: 3
Back
SplineSet
608 617 m 1
 586 631 556 640 533 640 c 0
 475 640 430 600 430 475 c 2
 430 400 l 1
 545 400 l 1
 540 357 l 1
 430 357 l 1
 430 32 l 1
 515 32 l 1
 515 0 l 1
 300 0 l 1
 300 32 l 1
 360 32 l 1
 360 359 l 1
 162 359 l 1
 162 32 l 1
 237 32 l 1
 237 0 l 1
 32 0 l 1
 32 32 l 1
 92 32 l 1
 92 357 l 1
 35 357 l 1
 35 378 l 1
 92 404 l 1
 92 410 l 2
 92 550 216 664 322 664 c 0
 364 664 403 646 430 625 c 1
 432 625 l 1
 473 671 526 698 570 698 c 0
 595 698 621 690 640 676 c 1
 610 617 l 1
 608 617 l 1
396 572 m 1
 370 596 331 611 292 611 c 0
 217 611 162 564 162 445 c 2
 162 399 l 1
 345 399 l 1
 360 406 l 1
 360 435 l 2
 360 487 374 534 396 572 c 1
394 222 m 257
 369 245 334 260 292 260 c 256
 217 260 162 212 162 90 c 258
 162 49 l 257
 342 49 l 257
 357 55 l 257
 357 75 l 258
 357 130 372 181 394 222 c 257
647 255 m 257
 622 275 582 292 547 292 c 256
 477 292 427 245 427 120 c 258
 427 48 l 257
 635 48 l 257
 685 65 l 257
 695 65 l 257
 695 -319 l 257
 767 -319 l 257
 767 -350 l 257
 562 -350 l 257
 562 -319 l 257
 625 -319 l 257
 625 -20 l 257
 600 10 l 257
 427 10 l 257
 427 -319 l 257
 502 -319 l 257
 502 -350 l 257
 297 -350 l 257
 297 -319 l 257
 357 -319 l 257
 357 8 l 257
 162 8 l 257
 162 -319 l 257
 240 -319 l 257
 240 -350 l 257
 32 -350 l 257
 32 -319 l 257
 92 -319 l 257
 92 8 l 257
 37 8 l 257
 37 29 l 257
 92 54 l 257
 97 204 217 313 322 313 c 256
 366 313 406 295 431 274 c 257
 432 274 l 257
 474 323 534 348 592 348 c 256
 627 348 664 334 687 314 c 257
 649 255 l 257
 647 255 l 257
EndSplineSet
Fore
SplineSet
392 360 m 1
 310 5 l 2
 266 -185 175 -261 75 -261 c 0
 58 -261 32 -257 15 -250 c 1
 40 -190 l 1
 42 -190 l 1
 62 -201 93 -208 115 -208 c 0
 170 -208 207 -175 240 -28 c 2
 328 360 l 1
 167 360 l 1
 85 5 l 2
 41 -185 -50 -261 -150 -261 c 0
 -167 -261 -193 -257 -210 -250 c 1
 -185 -190 l 1
 -183 -190 l 1
 -163 -201 -132 -208 -110 -208 c 0
 -55 -208 -18 -175 15 -28 c 2
 103 360 l 1
 40 360 l 1
 40 395 l 1
 95 400 l 1
 112 400 l 1
 114 409 l 2
 144 542 255 672 382 672 c 0
 412 672 445 657 468 638 c 1
 469 638 l 1
 506 672 570 698 615 698 c 0
 645 698 680 689 705 669 c 1
 665 616 l 1
 663 616 l 1
 642 631 613 642 583 642 c 0
 505 642 446 595 407 426 c 2
 401 400 l 1
 480 400 l 2
 565 400 590 403 610 403 c 0
 628 403 635 394 635 378 c 0
 635 368 633 356 628 342 c 2
 545 88 l 2
 543 82 542 77 542 73 c 0
 542 67 544 64 549 64 c 0
 561 64 600 85 645 140 c 1
 660 121 l 1
 595 35 532 -14 497 -14 c 0
 476 -14 466 1 466 24 c 0
 466 37 469 53 475 70 c 2
 559 326 l 2
 562 336 564 344 564 350 c 0
 564 358 561 360 555 360 c 2
 392 360 l 1
337 400 m 1
 342 421 l 2
 357 485 390 548 425 591 c 1
 405 607 375 618 350 618 c 0
 271 618 219 580 182 425 c 2
 176 400 l 1
 337 400 l 1
EndSplineSet
Layer: 2
SplineSet
655 608 m 257
 629 628 594 642 555 642 c 256
 477 642 430 590 430 470 c 258
 430 399 l 257
 642 399 l 257
 690 415 l 257
 700 415 l 257
 700 32 l 257
 772 32 l 257
 772 0 l 257
 567 0 l 257
 567 32 l 257
 630 32 l 257
 630 330 l 257
 605 359 l 257
 430 359 l 257
 430 32 l 257
 505 32 l 257
 505 0 l 257
 300 0 l 257
 300 32 l 257
 360 32 l 257
 360 364 l 257
 304 364 l 257
 304 380 l 257
 360 406 l 257
 360 425 l 258
 360 585 478 698 597 698 c 256
 633 698 668 686 695 667 c 257
 657 608 l 257
 655 608 l 257
398 570 m 1
 372 595 332 611 292 611 c 0
 217 611 162 565 162 445 c 2
 162 399 l 1
 387 399 l 1
 382 359 l 1
 162 359 l 1
 162 32 l 1
 237 32 l 1
 237 0 l 1
 32 0 l 1
 32 32 l 1
 92 32 l 1
 92 357 l 1
 35 357 l 1
 35 378 l 1
 92 404 l 1
 92 410 l 2
 92 550 217 664 322 664 c 0
 363 664 402 647 433 622 c 1
 435 622 l 1
 398 570 l 1
EndSplineSet
LCarets2: 2 0 0
Ligature2: "'liga' Standard Ligatures in Latin lookup 2-1" f f i
EndChar

